<mxfile host="app.diagrams.net" agent="Mozilla/5.0 (Windows NT 10.0; Win64; x64) AppleWebKit/537.36 (KHTML, like Gecko) Chrome/131.0.0.0 Safari/537.36 Edg/131.0.0.0" version="26.0.9">
  <diagram id="uK24D3HV4bEcS0YeZDRl" name="PÃ¡gina-1">
    <mxGraphModel dx="896" dy="575" grid="1" gridSize="10" guides="1" tooltips="1" connect="1" arrows="1" fold="1" page="1" pageScale="1" pageWidth="827" pageHeight="1169" math="0" shadow="0">
      <root>
        <mxCell id="0" />
        <mxCell id="1" parent="0" />
        <mxCell id="hJNaefQTGlpcFomLB34I-1" value="" style="shape=image;verticalLabelPosition=bottom;labelBackgroundColor=default;verticalAlign=top;aspect=fixed;imageAspect=0;image=data:image/jpeg,/9j/4AAQSkZJRgABAQEASABIAAD/4gIoSUNDX1BST0ZJTEUAAQEAAAIYAAAAAAIQAABtbnRyUkdCIFhZWiAAAAAAAAAAAAAAAABhY3NwAAAAAAAAAAAAAAAAAAAAAAAAAAAAAAAAAAAAAQAA9tYAAQAAAADTLQAAAAAAAAAAAAAAAAAAAAAAAAAAAAAAAAAAAAAAAAAAAAAAAAAAAAAAAAAAAAAAAAAAAAlkZXNjAAAA8AAAAHRyWFlaAAABZAAAABRnWFlaAAABeAAAABRiWFlaAAABjAAAABRyVFJDAAABoAAAAChnVFJDAAABoAAAAChiVFJDAAABoAAAACh3dHB0AAAByAAAABRjcHJ0AAAB3AAAADxtbHVjAAAAAAAAAAEAAAAMZW5VUwAAAFgAAAAcAHMAUgBHAEIAAAAAAAAAAAAAAAAAAAAAAAAAAAAAAAAAAAAAAAAAAAAAAAAAAAAAAAAAAAAAAAAAAAAAAAAAAAAAAAAAAAAAAAAAAAAAAAAAAAAAAAAAAFhZWiAAAAAAAABvogAAOPUAAAOQWFlaIAAAAAAAAGKZAAC3hQAAGNpYWVogAAAAAAAAJKAAAA+EAAC2z3BhcmEAAAAAAAQAAAACZmYAAPKnAAANWQAAE9AAAApbAAAAAAAAAABYWVogAAAAAAAA9tYAAQAAAADTLW1sdWMAAAAAAAAAAQAAAAxlblVTAAAAIAAAABwARwBvAG8AZwBsAGUAIABJAG4AYwAuACAAMgAwADEANv/bAEMABAMDBAMDBAQDBAUEBAUGCgcGBgYGDQkKCAoPDRAQDw0PDhETGBQREhcSDg8VHBUXGRkbGxsQFB0fHRofGBobGv/bAEMBBAUFBgUGDAcHDBoRDxEaGhoaGhoaGhoaGhoaGhoaGhoaGhoaGhoaGhoaGhoaGhoaGhoaGhoaGhoaGhoaGhoaGv/CABEIA4QDRQMBIgACEQEDEQH/xAAcAAEAAAcBAAAAAAAAAAAAAAAAAQMEBQYHCAL/xAAbAQEAAgMBAQAAAAAAAAAAAAAABAUCAwYHAf/aAAwDAQACEAMQAAAB38AAAAAAAAAAAAAAAAAAAAAAAAAAAAAAAAAAAAAAAAAAAAAAAAAAAAAAAAAAAAAAAAAAAAAAAAAAAAAAAAAAAAAAAAAAAAAAAAAAAAAAAAAAAAAAAAAAAAAAAAAAAAAAAAAAAAAAAAAAAAAAAAAAAAAAAAAAAAAAAAAAAAAAAAAAAAAAAAAAAAAAAAAAAAAAAAAAAAAAAAAAAAAAAAAAAAAAAAAAAAAAAAAAAAAAAAAAAAAAAAAAAAAAAAAAAAAAAAAAAAAAAAAAAAAAAAAAAAAAAAAAAAAAAAAAAAAAAAAAAAAAAAAAAAAAAAAAAAAAAAAAAAAAAAAAAAAAAAAAAAAAAAAAAAAAAAAAAAAAAAAAAAAAAAAAAAAAAAAAAAAAAAAAAAAAAecUVNS1+dzWSRUbsh8Y34rtmRy7DCFsvkLI0ZXlZmK9+rHDL5kHvHUjHJ/WLe5uGTsen2Wq9RttTbaqlCNhgH0AAAAAAAAAAAAAAAAAAAAAAAAAAAAAAAAAAAAhHxg9LfQUm690Vljy8qtpPDnZIQtgfAAAAAAAAAfUyroYT9V8rMX9dFHylYbj08WuefV3pDIAAAAAAAAAAAAAAAAAAAAAAAAAAAAAABAlakyXa7dysu52/wAOMmQFXuAAAAAAAAAAAAAAAD6nXC1QttOUe8XuXZwrtGVM6iLEbAAAAAAAAAAAAAAAAAAAAAAAAAAAAfHnzSWfm5FwtkIcDYBWbQAAAAAAAAAAAAAAAAAAAPd0tK205R6xu8+gV9YOg0AAAAAAAAAAAAAAAAAAAAAAAAAIKSN9n2ellee2AcrMD4AAAAAAAAAAAAAAAAAAAAAAD6uV2xid18LJI01R39fEbwAAAAAAAAAAAAAAAAAAAAAEILLWbJ9pg8xswqtwAAAAAAAAAAAAAAAAAAAAAAAAAHq9WSFzoyqNpu3ptZEWGAAAAAAAAAAAAAAAAAAAAHmCw0+2NIh5ZahEzAAAAAAAAAAAAAAAAAAAAAAAAAAAAjcLcn68qjY736lVeha6wAAAAAAAAAAAAAAAAAPMI2Op2eKU8ptoCLmAAAAAAAAAAAAAAAAAAAAAAAAAAAAABGvoE7XlMbPd/Vqn0LLAAAAAAAAAAAAAAAACEYW+JlItkHktsFdtAAAAAAAAAAAAAAAAAAAAAAAAAAAAAAAAXmzrXTlUaOr9YqYiT8AAAAAAAAAAAAAAIecEnH5sjy+zgOclAAAAAAAAAAAAAAAAAAAAAAAAAAAAAAAAAATcixms6qJfx6XWh9AAAAAAAAAAAAAQtNdj3IyvI83swAAAAAIwjjcjG+S+TqftoPYrCc24ybARMwAAAAAAAAAAAAAImn7LXtCt40y3q4nUKkq+GmwGvIAAAAAAAPq91+MZJ6bVzR1EYAAAAAAAAAAACBRRvtto4vHbmAiZgAAAAAQ5e3ny96BX+R20K+dYca9D8jL2SPN7IAAAAAAAAAAAAADG+V9oar9XqvMYL+PuPeHHnXXndjUDjZgAAAAAAAC429Ya8pjT1Hr9PEb/AIAAAAAAAAAAB5x262Pg50Bws8AAAAAAPrR2oMtxL2am8m15+vVOxsv0/Gy68Hil2GIAAAAAAAAAAACPj3jsrHmO1ntdJB66++uQOlOd9rUW/d48mtgAAAAAAAAK6+YrkXoNdVDtYYAAAAAAAAAEI+aeP9s9Mh43chFzAAAAAAj492qRjyZSnt1JDqDl/sQl8gdx8NnX11xDLvGLoIGYAAAAAAAAAAADXOxtO3ujR49Zqcj7b5I63ORJOU68i5dXjxS7D4AAAAAAAAjX2+M/XlcJcz2OmiNgAAAAAAAACFmu+NcnKljzWzAAAAAAAYxk+H2Gvl0ezUztfijt0vPBPfvAR0lsDW2yfIrcKbcAAAAAAAAAAAA0VvbQHTxtVj0+r211JzB0+c86X3fob47MHht4GH0AAAAAAAAC8XPHMi9RqvQ6WOAAAAAAAABRWC427yy0DnJIAAAAAADDcyxKy18tD2SmdrcU9gmacFdwcPnQ+zNcbG8jtwpdwAAAAAAAAAAAEefugdCdTF1OPTazbHU3InXZzxovcGpvjsgeHXga/oAAAAAAAADJMbu3VxLsPS60AAAAAAABBJ0/bBJi8XuoCPkAAAAAAAsGQUsvHjZ78e10jpvmTYxvTkXcenDprOMdyLxq5Cu2AAAAAAAAAAAANJ7s1V0EfQQ9Wqr73DwD1Aacxq35Pp+9RjxG8DEAAAAAAAABGppozcMpj49ezUsRmAAAAAAAhb7hZ6XdbB5HbgAAAAAAAB9ck2TYuuvbKSAk4+psrK9f3p+dGHiN2Gv6AAAAAAAAAAAAwrNqGdhx0myvaKUCOztY75qN22B5BbgAAAAAAAAAB9ZBWWy5+xUwWesAAAAAACGP5BjPISpQ84swAAAAAAAANW6B7B5J9MrKIdVFjuXT3VnOSMhHllqAAAAAAAAAAAAAH1y/h2/tBew0/kWmr11jz71Fw86A4GeAAAAAAAAAABcL5juQ+nVcR1EYAAAAAADzi2S4zwU4OGngAAAAAAAANNbm8WerjBvWk9JrbP0BIned2IU+4AAAAAAAAAAAAACTyz1bZ+ijcjTNsZr3EKrzVDzCzCJmAAAAAAAAAABNyXF8n7+v9jt4QAAAAAAFNjt/x/zmwDj5oAAAAAAAAAAAAAAAAAAAAAAAAAAAAAAAAAAAAAAAAAEcnxjJe3gzh38AAAAAAACisN+sPmtjAcnMAAAAAAAAAAAAAAAAAAAAAAAAAAAAAAAAAAAAAAAAAAjkmN5H2sGoHoMAAAAAAACjx/Ise84sYDkJgAAAAAAAAAAAAAAAAAAl5/JrDsWtdW2oaMp5+G+46QyyN92FGRPpd8Br+gAAAAAAAAAAAAAAAAARyTG8m7eDNHfwAAAAAAAJGNZTi3Azg4eeAAAAAAAAAAAAAAABF4t0jG4YVcr7Y69YW3dSVhqe6bFhHywKVsKOr7q2wbxS8eetoZpRbPlckTudkBh9AAAAAAAAAAAAAAAAAZTjWTd/X+h28IAAAAAADzjOT49x0ulHnVkAAAAAAAAAAAAAAAAAAAAAAAAAAAAAAAAAAAAAAAAABUZHY756ZVxHVRgAAAAAAIWW9W2i3WYeTW4AAAAAAAAAAAAAAAAAAAAAAAAAAAAAAAAAAAAAAAAAfV2utFW+v08RbagAAAAAAPNPU+Y/3F3rx4vdBpyAAAAAAAAAAAAAAAAAAAAAAAAAAAAAAAAAAAAAAAAihUSsb/Mi9opA2AAAAAAAALDRXqyeUWgUEkAACJpW01bqWe8Qc4DTkAAAAAAAAAAAAAAAAAAAAAAAAAAABFb9E3WjoSOFZtA2QETMAABc7ZkHTRaweoVgAAAAAAAAErGsosfHS6EedWQAAFHx/wBMcx+kV1bujRLoI/Zk7k7c/Az9lPHvl5MBj9AAAAAAAAAAAAAAAAAAAAAAAAjBikzDKda6sw7uYN2tB2EPcW7+ZOnPNbOA5SUAABMyW03j0yriOqjAAAAAAAAAQoq2EX7iydJ8auYDRmABq3QO7tIes1MBe6EYDJ92c2+qzb2Z75n3bx0vK0yVzEqIiZgAAAAAAAAAAAAAAAAAABkRj5uNEKHWmmOtibJ1V4h1UWA2/ALz11xp2Vws4ODngARQq5eF4nxeyU0Rv+AAAAAAAAAAWyz5Rjfnk+UOMnAAaa0nvXRXrdTAXegAB68jYe6uU44O4KXlfc9FvzqN1n0EiyLpTUe6kh78Vm4NGQfAAAAAAAAAAAZD1UTNdKulTc6bFOv+H3ui+U2idUdDG3dpm1LHAAAACb2dx12Jw04OCngARvtpyLuoHod5BAAAAAAAAAAAhbblCDlisZ0nx65gNGQGu+cusuTvTqzyOoigAAAAV2zdSDrHYXBlxO65fLexdf3a8i25HX52iVf1fnjcvKELZisMqlxM8aZE0/cdhkENf2wwvzH7Yl+97PmPMjjs+Y16yeMnHG5uQJeFknXVPwoZ8jCbHVsSHPWtpePVWrue/H1l2JQAAAAAAGS9Xc79EedWMBx0wCJVSsLnWwj7FTREr4AAAAAAAAAAABQ2LKbJxEygHAWIEOReu9C9jD1OPRa4AAAAAAACN7sY2fmGgB1Vk3F8Tu2t4JrzupxVcjsNyTUnVrlWB1W5OpDryHGtrO17VxTSnXmL81DdGGYUKqlAAAAAAAAATTfO1LTd/HbiAq9oEcioLv6NWxHYRAAAAAAAAAAAAAISp0NbGPF8sXlFqFJIjieVpWHF8M2wn2emgNvwAAAAAAAAAAAAAAAAAAAAAAAAAAAD1n2A9OU2/NB5HbB8RnSch6GNO9xh6lVxGYAAAAAAAAAAAAACFouytzxZV0nktvARc8Q5g7O0F3cDVQ7uCAAAAAAAAABFGZ8ylqubjIt66e8d1nXt8ysi9+Hy0LpKy1UCqkZR5cIwy1gAAAAAAAARKszLpSwZB5RawFBIRV8/XU3I9aqIibiAAAAAAAAAAAAAAABKsGRS6LdjSZL8stYUlYxcnY/1ZzD6xVW8XWkAAAACMU75lJXy7RrvE7jk8YnQWSsr0e3lTIx1WEBjtB9AAAQi+4U9Lcm2HYaDLW6qwTxndBJo8SXa2TOelDOMAAAAB733im/+Kmh59YIqiRj6v/n36rUxFzqAAAAAAAAAAAAAAAAAAp7BksnnZGNxmyvMbNhObNvzjan6Y5x9XqqMWmoAAD1NnZXGu7Xevaq74NNiAAAAAAAAAAAAkT2WnGrNn1tseQxJNlWHGeR9xAESOfe+iOXlepp5pZIqjb8hf3v1Gq9C90gAAAAAAAAAAAAAAAAAAASbDkfmk3YurKPzC0YnlccfvIto67589LrMFRh0McD1Nk3jCTkM8oPWwx3AAAAAAAAAAAAAAAWrFc/we14CmE/lIlZ9Um18r2fw86X7R4OcLhNwlXz09Oq/QuNQAAAAAAAAAAAAAAAAAAAAAHm13WEDPFmQWTzexk+fSik6k0p2NZuwh8jx2RrnvYELpafezdnqkq6H1oMJAAAAAAAAAAAAAAADB79jVt59Bed16+b1hv2/evPLCA56RGM+9dHGpriej1sRMxAAAAAAAAAAAAAAAAAAAAAAAAh49sFmt2VU3IS8djU0vCz44plY5vwDs/Huxh8rZVlOt+ol5axq/Ru6niPbgAAAAAAAAAAACjzjVlnvmwtfJaT23tafznPU1TCPKySFbIxpLpXTu8r3o6yKGQAAAAAAAAAAAAAAAAAAAAAAAAAACFDXRi/cbkZTRcZNsappuQmJE5py19rzoVe6OUp3UeLXk/S0zNMdsre3QpqOVaXVRVGFhNQjhID5kD6ADEhKz1Tkm8/IdsZlkMGv1Pdd3XOpq9U5xflLUBVfYwjVy9dJU3Ws6+HR1h2UOIk/AAAAAAAAAAAAAAAAAAAAAAAAAAAAAAAIUtUj/bLQ5R55qTi0b5RcvKt6Z4pN8BpyjR1jd8xazbBTsNU0m4UtpaXu2O3Zo/1u6GeWlp+4mpqmv2O04YVe72h/PHog5BiihN34yo3CtvNFlr7t66iJInnSx4jd8AAAAAAAAAAAAAAAAAAAAAAAAAAAAAAAAAAAA809Sj/bZS36FPuxqVlPmo3YuyKVW7LGu/iHnao3HzHyt6vfFBGv9ZLdC6+5GFnjfJ0zHHZ2RRs9dkqbmt9NPUFvpiN/wAAAAAAAAAAAAAAAAAAAAAAAAAAAAAAAAAAAAAAAAAAAAAAAAAAAAAAAAAAAAAAAAAAAAAAAAAAAAAAAAAAAAAAAAAAAAAAAAAAAAAAAAAAAAAAAAAAAAAAAAAAAAAAAAAAAAAAAAAAAAAAAAAAAAAAAAAAAAAAAAAAAAAAAAAAAAAAAAAAAAAAAAAAAAAAAAAAAAAAAAAAAAAAAAAAAAAAAAAAAAAAAAAAAAAAAAAAAAAAAAAAAAAAAAAAAAAAAAAAAAAAAAAAAAAAAAAAAAAAAAAAAAAAAAAAAAAAAAAAAAAAAAAAAAAAAAAAAAAAAAAAAAAAAAAAAAAAAAAAAAAAAAAAAAAAAAAAAAAAAAAAAAAAAAAAAAAAAAAAAAAAAAAAAAAD/xAAyEAABAwMBBwMDBAIDAQAAAAACAQMEAAUGQBAREhMUIFAHMGAVITEWIzIzIjUkJaBB/9oACAEBAAEFAv8Az2qaJXOCupbrqgrqxrrBrrBrqwrqgrqW65wVxIvxjfSvgNLLSlllSvmtKRL7qGSUkg0pJZUksaF4C+IKaDRSxSilGtKSlp0MhoZRJQyhWkJC+Equ6ilClFJNa3qutRVSglElBJAq3/BCMQo5dEan4MHCCglUhIXwAzQKOUq0qqvh0JRUJdCSF5xSQUclUqqq+KElCm5SLSffzLkhAo3FcXxzbxN02+LnliJBR2Qp+Tak7qRd/k3Xkbo3CcXyjbqt026jieQekbqX7+XReFWZCH496Rv82zJ8Yq7kef5nnWJHD4pV3I89zF88w/weIVd1PPcxfgDD3D4d97j+Bx3vCyHvgsd7i8HIe4E+Cou5WXeYngHHEbEi4l+DAatkBIY65V3U85zC+ER3eBddKd0LrzbAsyWJHg3J0VkhJDTSRneJNY6fLBV36C9XZu0RJtwkXB6PJdiu49fUu7HgMoyQmSUlJbLfn7S9HkNymNGJcBAXGOrkOcZaDIrotzuOy1zzts1p0X2tdfbl9LtxEplswq6cLukjObl1UhzgHQZNO6G09mGTuptuuzadzpu2JIKJJYeGQzpGj5g6l4+M9BnUrif7MMl8i7a1V4UuElZk3sxCV1Fn0kY+E9RIPhDQ5NI6i9bMFtQT7n6hWkGitz/SztbfZHS2jbb8cjNWGSwUWRgkjc9pWT4w08g+NzQKvCkhznP7PTyNyrNmUbqcdq3Pc+36zNXeXaNlijdXeazWN0+RYg9yr3pYp7i0zx8AaG5Ocq3bcPa5WOXZrnWusYc5lj1meuft7MGa5mR16jN7rpY3OVd9Ki7lAuJNLLP76HIi4LJtx0eGwvDxtVhpcVl1meF/ytnp4O++16lDudhlwStNEP7aRV3UZcRaHKV3WHbYv9Jswhf+o1mdr/2Wz05/3deplAu49MyXC5pJJcLeiyr/AEG3HC47C+XAxWD/AOo1mdf7TZ6elw36vUov3k/OnaLiDRyy/wAtFkycVi24a7zccvLvItFYUm6zazO0/wCfswl3lZHXqK7xXdhOJ7TxC+2jdLiPRXsOZaNvp1K5lqzaT02PViIcFj1meh+5ss8no7rWYyeqyG1hzbjp45cLuicLhDRyW+bHX7Lsw68haLnnV9ZuL1WJrk2fWZ01vg7bfmUMbC64TzuNNc296dF3Ki700MpdzekuzHTXLsbBXDZb5TWsytjnWPtwhjmXTUR13taGYv30mZxuTd+zHI3VXnWy2OpimKgXZgsbgh6iIv8AjoZK73dJm8PmwezBYf7muyaH0d42/mrJE6G16iIv+ehcXeekmxRmxJDBxn9gipLZIH06267Nbfz4m3G7d9Rumpjrud0C/j/7pcxsqrtxGyrKka91oX2rzaztMyhFSLG7P9Khaltdx6Bz+GmUUJLlhQPOQcGUXGmgYb8BcbaxdGHsEkcyy4sxay1SfZU/Hvv/ANXxgf4+/I/q+MN/w9+T/V8Ya/r9+T/V8YZ/r9+T/V8Ya/r99/8Aq8QbgtDJyi1xqezuMNHnj61+u5lNZ45viZlbpFNOtvh4gP4++792/CkSAMrKIbJuy8juNLh9wmE3gkZKHC7YNfo610uGWxacwaEVPYG6lNWq+2Ny0ZA1cfDpSfj3y/Hg1XhQ3JDlLZWnyZjtRx9mREYlI2HLHwofz0J/Y/izCb3dDITc78Wip+5oZaf5/FoafbQy0/x+LRk3NaF5OJv4sCcI6I04S+KMDxOaOUO5z4Si7/biD99HKHeHtS8tdh3q33ONc2vNy5jEFq95Y9OrFZnV2f2o48LejJOJFTcvsSnkjRjNTONKdiO2jM23abcB0PLqu5Lvl8eHU24SLi7WCSdz3stjxHpZQ7j9jKn+RZNtuvEu1la8xiS6EkNPKXS/xbWN2yOXdF24q9yL37MQPvpZIcTfsZy5w27ttt8mWtbXlUWfSEheQ31MlswW7tmJvUZk4XZa3OTcfZaDgDTOjwH356v7fclWrJ5dtW2ZDAudE2YVv3+LESOpKswWrpnINVJmPzD7mi4XfYjhxuaeUG8e/Pv4+wi7ltWX3C2rbMptl3rpeJCZcCt/hUZcKhhktSZMC2BdvUFVqbcZNwP2B+5exHDgDTqm9HA4C7s8DfF9u25JcbXVs9QIsio8uJcAWK2tLDpYziUoqOsQVKkjuLQw6SMCVuBtLjlNstyXPPpcin5T0o/aiBzJXeyHGeplN707s0a47P7seU9EO3Z7PipAzi2TEZkNSBpWxKlihSw0pYhUsZxKVo0rhL3kFVpGTWkjuUkQqSHSRQpGgTZ+KnX+326rh6iANXHJLjc1/Pu2BrnXjvjt8A6ladDln23uP1Np0EebIirCzu5xqh+oUJ2ot/t01EJC7d1K2K1yQrkN10zddK3XTN10rddM3XIbrkhSNglbu5+ZHjJMzS1RKm+ozi1OyW5z6IlJffwmPzbr3R2+M9XIb4x7VTelyirCnaJPtUe7zoixs6urFRvUimM+tbtMZNapFNzoztISF7ZPNhTt5gMU/mdoYqR6iwxqT6iTDqVlV1lU6+68ujweJy4Xan3VpvlhrJLXCXbm8LlTdQjhDTdxltU3kd0aocwvA0OcXhKTPbslfr+7V+vrtRZ3d1os1vBUeVXdyjvVwcopLx6kRUytkToIHbFa1xjxoY8BdmR2/wCo2rzuJ2/rbp2tN8wkTcmukNcwe3Jrb9OuXnMYtv0629iJvVpvlj4CSz25HavqlvVNy+axa0/Up/bGZ4fBfmn2eWvZl9l6WRp0BVpIzi0kN5a6B2vp7lfTjr6cdfTjr6e5XQO0sN1KWO4NKKppo7ByXrPbAtULsjs8XhCHiR1pWy2yYzcti72ty1S9CLRmoQHVobciUMJlKRoErd7m7fRMNlRQWlordRQnRpRUdDiVj6ZvsZZ5iom5PCGCGjgK2u29Whu7xJUVyG/7oNkdN29VoIrYUibtMooVHBbKnIBjSoo+7i2P9Y52NNK4ojwp4ZxtHEMFbXbkFhC7svMnHd9oQU1ZgUIIGsNkHKfgqNbt3tY5jxXV1tsWg2tNK4oCgJ4hxtHENtW125Bjzd2bkR3Ir3sMsK8TLAspr5EQXaMFBe/H8ccuhtNAw3taaVxRBATxRgho6yra7b1YmLu1cLdItr/cA8ZMtI0HgZkfmB3Y/ipSqABbDaywp0IoKeMUUJHY6h2T7fHuTF6xuRai7beO93wbo8Dm2PHclOWLE24fazH31u3eQdjb6/C7CFCS84cD1Px3Yrm2CfC94JV3I4XEey0Y5Kui2yzxbU1tRFJWY/D5N1lHKNsm12z7XFubd1xGVCpU4VpC3LHfR4PAzZG5Kg22TcnLTh8eJSIgptbZVym2hbTyijxU7F3Vu7Lnj8K51csSmwaIVFW3FaJiULya+RMQah2+XcjtmEtt0yw3Gb2oiqrcWkTd5hxkXKcYJvtn2WFcqn4Q+3UiJIhOMzyGm3gd1jkkAqNZbndKgYZEj020DIdjccjoGxb845GE6Nkg7XWm3xm4fb5VS8Mnxqc6yCTc8CoXBPTK6A1Ht0+XUfDyOodmhQO4GCOm2BD4AcYTo2DDuMRcSVjVslVIwZunsXu8enGrjFpJ4UktpaR0F9tVRKV5saBzmq1a7k/TOLTXKZxOGFR7fFh94RzKgjiHwQ2ROiiKlEJD7DsVh6ncctbtOYbbCo8Hj0uEupS4dOr9I3Ov0nda/Sd1r9JXJaTDpa0OGLQYbDpvFLW3TVogsUIoKd4gR0ESgaEPhCpvoowFRRCSlAh1KNkVDEKhjgNJ8OJgCooaUsU6Vo00H5pGTWkiHQxBoWgH4sootcgFpYoV0aV0ddGtdIddIddIddIddGtdHXSDSRQpGQStyf8AmC//xAA2EQABAwIDBQYEBQUBAAAAAAABAAIDBBEhMDEQEhRAQQUTIDJQUSJCcZEGFTNSYUNTgIGhsf/aAAgBAwEBPwH/ACIEbjoEKd5XC+5XCj3XDMXDMXDMXCj3XCn3XDvCLHDUej6psL3JtMOqDGt0GYY2u6J1MOhToXN6ehspydU2JrNByT4WuT6dw05+OAvxTI2s05Z8TXp8Lmc2ASo6cDXmpKe+LVYjmGRmQ2TIxHzkkQkCc0sNjy0cZkKYwMFhzz2B4xT2Fhx5SNhkOCa0NFh6A9geLJ7Sw2PJNaXGyjYIx6FLH3gRFjyMMW4LnX0SeLeFxyEEe8b5BIAxXE46Jrg4XHIPeGBNqccQgQRlTx7puM5oLjZMaGi2RUu+XZTusd3kJ37ztlO64t7ZT2B4sjgc2mZ82TIbu2NNnXz3GwJ2wGzxl1LLHezBimt3QBkE2HgZi0Z02DDtabOGW9u80jMp23dfJkPwnwReQZ1R5PB0y527r8unbZuTJiw+CHBgzqjyeDpl1LbtvltFgBkuFwfBGLMAzp8Y9rRc5jxdpGVELvGW8WcdgxKtYWzni7TthF3jNkFnEZNMPiy6htjfZA27uQlbuu2UzfmzagWfk0o1y3sDwu5fe1lEzuxyEsXeBNgffRNaGgDNqdRk02h9MqumTTeU+mVXTJpdDyhsEZWDquIYhMw9ULHHlKrpk0vXkibL4yu5B8xuu5YOi7pnsu4jPRCMs8pQ5Op1GTSn4vTKnF+TCbPHpkhu8nJGqBuAfSnmzScuB12eF7wzVAgi4558oYmneAPhqHWb9cumdZ1vDUm5smSFmiZUB2q15pzg0YlPqCfLspjdlvDUOu7LabG6ad4A+Cf9Q7WyuZomVIPmQeHaHlnTNb1T6gnREk7aXr4Hu3RdHMpn/KfBP+ofCLpszx1QqfcITsPVbwPXO32jUo1DRojUuOgTpHO6+Kl6+Cpf8ua1xabhAhwvtqRZ2UJHDQoTvC4l3suK/hcUPZcU32XFN9lxQ9lxX8LiT7LiXozvPVbxPXKph8JO1zg0XTjvG+dTyWO6dtS24v6BG3daBtqJN47o5CKTvBsc3eBCcCDjz0LN522aTcFhyLHFhuExweL7KiP5swNJTaWd2jD9kOz6s/0yvyys/tlfltWP6ZRoqlurCnRvbqMyJm4Nj3hguU5xebnkopDGUCCLhEAhSx92fG1pcbBU/YlXPiRb6qH8Owt/UcSouyqOLRg/3imQxs8oAWA8GCLGnUJ9BSy+Zg+yl7ApJMW3Cn/D07P0jdTU0tObSC3jgi+Y7HODRcqSQyHlIpTGUCHC4TmhwsVJGWHw9n9ly1pvo1UvZ8FIPgH++udJEyZu68XC7Q7CsN+n+yILTY+CGHexOi0TnBouVLKZDy0cpjKY8PGCc0OFipYSzHbTRd/M2P3UUTYWBjRYDkfxBStikEreuu2KDq5aJ7wwYqSQyHmGuLDcKOYP+q1UlOD5U5pabFU8pgmbJ7KCZlRGHsOB5Ht6sbNKImdP/U2Nz9FHCGbJJwzROcXG55uOoIwcmuDhgnNDhiE+m/aqOun7Od/HsqTtSnqxgbH2K1zZqiKAXeQFW9sSTgsgFh7ptOAbuN0AAE54aMSpJy7Ac8HFuiZU/uTXB2iwKMTSoayspsGPuP5UXbzhhLH9lH2zSSdbfVMrKeTyvH3Qe09VcbMFvAdU6eJmrh90/tKkZ81/pipO2oh5Gk/8Uva1TLgMPonXkO8432OeG6p9T+1Ek+ggkJtQ4aps7CgQdDssCtxp6INtoT9yt6QaPP3K7yb+4fuu8lPzn7lG56n7lWHttLgNSnVDR/KdUOKvf0a5CE7x1QqT1C4pvsuIYu+Z7rvme676NcQwLiR0CNU7oEZnnqr3/wAiP//EAD8RAAEDAQQGBgkCBgEFAAAAAAECAwQABQYRIRITMDFBURAiMkBhcRQgM0JQgZGx0VKhFiMkU8HhgBU0Q/Dx/9oACAECAQE/Af8AkOSBTtoxWe2unLxREdnOl3nHuN0q80g7kijeOZwwr+IpvMULxzPCk3mkDtJFIvOPfbpu8MNeSsRTU+K92VisQfgxUE5mpVtRI3HE+FSLySF+yGFPTpL/AG1mszssxTNoSo/YXUe8ryfbDGotsxJPHA+NA4/AVrS2NJW6pt4mmsUsDE/tUm0pMs9dXy7lFtSVE7CsqhXgYe6rvVP7UlYWMU9+tC22YnURmqpdoyJh/mHu0O05EMjQOXKoFssTOqcld7efbjoK1nAVaVuuSeozkmjie8AkHKrNt5bWDcjMc6adQ8nTQcu8Tp7UFvSXU60Hpy8V7u+WfaT0BWWY5VEmMzG9Nvu1o2k3AbxO+pMl2W5pud+iS3YbmmioE9qe3pJ390tCeiA1pHfwqTJclOaxzf8AAIktyG7rEVBmtzWtNHcpMlEVouLqdMcmu6xfwKz564LumN1MPokNhxG49wJAGJq2bRMx3QR2R8EsO0vRnNSs9U1v29v2hqW9Qg5nfsGGFyXA22MzQuunVZudbyyqVGciOlpzeO4QYLs93Vo+fhT92NFrFpeKvGloU2opUMCNiKsK0PSmtWs9YbaQ+mO0XFcKlSFSXi4rjsLtQwEKkq45DovJE1jAkJ3p+3/3uFhQxGiBR3qz/HReSGGng+kdrf57KDKVEfDgppxLyAtPHa3km7o6fM7Deas5nURG0eHRKaD7C2+YNHI4baM2Xnkt8yKSMBgOi3mdbAV4Z7O7kzTQY6uG0edDLZWeFSXjJeLh47BhBcdSnmRQy6ZyNXKcTyJ21iI07QbHTKRrY60cwftRGB2UKQYshLgpCw4kKGzvFK1UfVDerY2cNKY0PEepbKdGe757a7icZ2PIHpOaaX2tnYEnXxAn9OWzt6RrpZTy2NmnRmtHxHqW2cZ7m2u0cJuHgek7qX2js7uyNXK1fPZOLDaCvlT7hddKzx2MRerfQrkR9/UtFWnNdPidtYKtG0EeOP26X16DKlcgaOZ2cN0sPpXyNJOIx2NsO6qEs88tkMjUR0PMIcHEDodWG2ys8KWrTUSdtBd1MpC+RHTbDupguHmMPrtBVmua2I2rw2N5XMIyU8zs7uSg7G1J3p+x6LflaiGUDerLbirKlCXESvjuPy6LzyhgmOPM/wCNrd1zSh4cjsbzqzbT57Oz5q4D4cTu40LaglvWafy41adoKtB7T4DcO4WPaZgOaK+wf/caftyE01ppVieQqVJXLeLq952t2Ffy3E+OxvMf6hI8Phl1z13Bsby/90ny+GXY9qvY3mH9Sk+HdEpKzgBTVjznhiGz88qF3J3h9adsOe0MdDHyzpSFIOioYHul1x13NjedPWbV3JpouccPOkegMZqxcP0H5P7ULbcayjthA8vzSranr3ufSha04H2ppFvWgg9rHzFPWozPGElvPmKUADgM+53YT1HFbG8zeLCV8j8Mu4jRiaXM7G22tbBV4fDLKa1UNseGxfQHGyg8adQW1lPL4VGbLzyUDjSE6CcNlbjGomHxz9WDZ708qDXAU60thWg4MD36BZUierq5DnUqOYr6mjwPq3fj62XpHhs7yRtNkPDh6t2WgmOpziT9qmQY81ODo+fGp135EfrNdYfv9KUCk4HvTER6SrBoY1Au6hvryTieXCgkJGikVeRrVzAocR6t3ouqjaw+9s5LIkNFs8aeaLLhQeHqWCnCz0fP79MuzIs32ic+dS7tuozYONPRXo5/mJw7rgTUayJcncnAeNRLuMt9Z44mm2W2BooGHTekeyPn6kVkyHktjjTTYaQEDhtLxw9W4JCePqWGcbPb+f3PqrbQ4MFCn7Chv7hh5U/dlf8A4l407Y01n3PpS2XGz1xhtcCaagyXewg0zd2Y52sqYu00n2qiaYs6NH7CBW71b1HJoef+PUu3D3yFeQ2syMmWwWlcaeaUw4UL3jpu25pwtDkdiptCh1hTlmRHO02KXd+CrcCKVdlj3VmlXX5OV/DDv66N2ZHBQr+GZX6hQuw9+sUm7C+LlJuwj3nKTduKO0SabsSCj3Mabhx2uwgCgMNjed3SkpbHAffpix1SXg2njUZlMdkNp4ba8Nn6Q9JR8+m7MgNyC0fe/wAf6+AWnI9Jlrc8em79n6pHpC953eW3WgODRVuq1bPMF7IdU7uiM+YzyXU8KZdS+2HE7j362JnokQkbzkOmx7OMx3SUOqKA0RgO4ToaJrJbVUmOuK7q17+i7loYf0q/l+Nrpp51rW+da5vnWub51rUHjWIOzJwq2Z/psjLsjd0Q4rkx4NoqLFREaDaO5WrZqZ7eI7Qp1pTKtBe+m1qbUFJOBFWTaSZ7OfbG8f59fdS5LaaVLJ3Ci+4eNFRPrAkUHVjjSZTg30mWk76SsL3H17ftXRHozRz4/joYYXJcCEb6s2zkQGsOJ390tWyUzk6SclU60tlegvfUWU5EcDjZzqz7RatBvSTv4j1XX0tiluqc37YKKTlTUrgv1bZtkRQWWTiv7f7pSio4nfTDDkleggZ1ZdlogIx3qPdrSstuenkrnUmK7Ec0HBUeQ5FXrGzgasy2mpoCF5L+/l0rOikmlEqOJ7jEWSNE9BOG+rVt/Rxai/X8fmlKKjiahwnprmg3Vn2a1ARgN/eJcNmYjQcFWhZD0JWO9POgSk4irPvC4z1JOY58f90xIakp02jiKUNIYUtJScO4xWykYmplpRoI/mHPlxq0LZfm4pGSeX56LOsZ2YdJeSajRWoiNBsd6UkKGBq0Lvoc68fI8qfjOxlaLgwpiQ7GVptHA1DvNuTJT8x+KQ9FnpxbUDTjKmztkoKt1Oy4kL2qs+QzqZeN97qsDRH70palq0lHE1HiOylaLQxqz7AbYwW/mf2oAAd9kRmpKdFwY1Nu2R1o5+VPRno5wcGFJWpBxScKj27MYyJ0h4/nfTdvxnfbNkeWdIlQnvZuj55VqVHNOdFtY4VgfVCVHcKUNAYrIHmactCG1vXj5Z07bqE+yR9fwKftSXIyUrAchlRxNMRHpJwbTjUK7fvSD8hTLDUdOi2MB8BdZbeGCxjUm7sd3No4VIsKYxuGPlS2ltnrDDoQ6ts4pOFItSa3udP1oW5OT731AoW/LG8D6V/EEr9I+lG3ph5fSjbU4+9h5AUu0JbnacJ+dFRVv6G2XHDggY1HsGW92hhUW70ZrNzrUhpDQwQMPgzjDTw66QadsKE7uGHlTt2EH2a6XdqSOyQaVYM8e7Rsad/br/pE3+2aFjTv7dJsCcrh+9Iu1JPaIFN3YbHbXTNiQms9HGm2W2h1Bh/yI//EAEsQAAECAgQICgcFBAoDAAAAAAECAwARBCExQBIgIkFQUWFxEBMjMDJSYIGRoQUkQmJygsEUU2Ox0TRDkrIVM2RzdIOgouHxwtLw/9oACAEBAAY/Av8AT22x0hFvBniwxYYsPBbHSEW9mbYqBioRbFZPO2mOlOKxFcxFRHZCsxk1xVVFZN3qJjKriuqKj2JriquNV+qqiuuNXYXKMZAjKOg8kxliKuwFZjIiuvQ+SY5SKtOVxJHjFei8kxJdWmqqzFej6rI26WmqJJqGk5L8Yq0ntjK0rVZFWkcFFsV6XmIkq3R8kWabkvRlcSTUNOyXZoqcVdHT8lWaJkOj2BwVWaHkLOweCru0LgJ7+wuCq3Qchb2GqjboGZiZ7DzETGgNnYmRsN/wBccJ9xDY1qVKPV3m3fgVPQeA7SGW1alOARhJIIOcXWRtF9nE7gXV5ThqbTrMF2lOFavygOUdwtrGcRJySaS30xr26BVQqAqSv3qx+UTUZmBIlbB6TcIeZOE2sTBukxExfNguK1JPJIyW93C1SG/ZNY1iEONmaFiYv7jw/rDko3wVKMyeFdAdOSrKb33XBN72m4vKSZLcyE4pYWcqjmXym/t0VByWUzO84jT7fSQqYht1HRWnCF1netlxo1GB6KcM4vFk5LySm/EmoCH3z+8WTioQTNTKii6yNhvNVpuVKOZKsEd3Cp99GG1RkzkRao2QxT2U4PGHAdlrzGKO91HAb9S3M/FyHfVw1QKA+2mbrfKmVeHDrLlS21lJ7opTGtIXdheNguJJsEOOH2lE8Ljud54+A/8AjFL1tycHceCiudZpJ8r6E/eOgcNBZNinkz3cFJlY4EueUND7xKk+V2wTnu5Nypa+q0o+WJQRrSVeKjFOb6zCx5cFEOoEed9oTesqP5cNHPUStXlwUZzrMS8CYoSvxUi7TgG7BNypp9yWJ6OH9nQfKHE60y4E+64oX2ip1Nk+fCv3aOo+Y4PRytaVj8oYVqWDdym7E3KmfL/MMT0b/hW/5Rwr/vz+QvrA/A+p4X/8Kr+ZPB6M/wA3/wAYSdt3F1O250z5f5hiejj/AGdI8odVqSTwOf35/IX1j+4H8x4VDrMKHmOD0enUlZ/KBeAboBqudM+EfniULWkKT/uMU5w+ywv8uA7XVfS+0Y/hfXhos/bCk/7eCjtj2GK+8mEDWq8EXQm501P4SjiPsZ2XZ9xH/cUkZ3SlsePAx7xUfO+0JesKHDQ38yHUk7uCmSsbIbHcIoiNbqR53gXMm6Ot9dBGIftCsGjvpwVnVqMMUWhOB1lnKUtNYKuChJ/CB8b7RnOq5LxH/GIHqQ6n7W0jBLU61Khbi61LVhGKINSsLwvANz33WlNdVw4qUptUZQhsWJTK+v60EKxluZm2jeU3IC6lyVTyAr6YtFTKpKsI91+eZPtoKYINRGLSKQfbXgju/wC7yRcjdWqQm1pUjuOLSKWoWDATf3wBkrOGnvxaMyekEzVvvJFyVvurzC7HEyhxpwSWgyPCALTDLJ6cpr339uloGUzUr4cRtJE228td6Tt0R/SFHTsdA/PhFMfTyLRyZ+0rQC23RhIWJEQppXQNaFaxwAJEyY5QesO1r2bL0nfcTdyFVgwXPRzgZn7C7ICvSD6VJ6refvhLbKQhCagBoHiaUmfVOcRyFJaKPfmDAeeVx9IFhlUm9i4q7Mi4K7MpuCuzKd1wPZlO64K7Mp3XBWicJxQQnWTEjSQ4RmbGFHq9Fdc+JWD+scnRGxvUTH7Ox5/rHLUNJ+Fcok9h0dXvCqAtlaXEHOkz0SLgrdoYqWQlItJji6Lh017qtD6xKi0X7C3rNvnGF6Rp4J71xy1KdX8ICYr45W9cf1a/44seHzxyT76N8jHq1LQr40yjjKIhShn4s4QV3RxNIT9mpgtbVn3dnK4lR0JbHXc/9f8AqAr0i65TFalGSB8ojBYbQ0nUlMualSGkubxZGDhKUM069DJ33JW/sum5Hsv3XIHsuo3IHsuLkrsuBcyOyouk9fYqqvmyq6T1c3SEyDtFSrBwd2qOMormFrTnGnC7SnA2jbBZoU2GNedUNYRy2poPNi6ERLVzLzpsbQVQpSrVGcByjuFtYziA36U5Nf3gsgLbUFoOcaYmTIQWqD6w9r9kRxlLcK1flwUqjn2k4Y5oC7T18zSNa5J88SdFdITnQawYCKZ6q7r9kxNJBBzjSuWcN3MgQUlXFM9ROJR9S5p8uaKrtu5lhHWdn5Y3q7hwOobICXuRd1GKtI4dLcSwn3rT3QW/RwLaPvFW90FSyVE5zi0VzqupPnzQF3I5igjav6cwEqP2hjqL+kBLb3EPH925+sZSatYirReQkqjjae+llEKb9DNiZ/eqgrpLqnFHWcdB1HmdgvGFq5igf5n05mqAFL+0M9VcBL0qPSDmVVPvjCZcwhtjKQTur0NUk98ZapboLlLcQiXWNcKb9FNy/EVGHS3VOnbzI38ztN5Ix6IrUsjnJUd8lHUVWICPSCDR1dYViAaO428mKpiMlUWTjKBF8qBMWRlKjXE6kiDhvhxfURXGDQECjo62eCukOKcUc6jzbKessDmNl6whmx8L7t1J+nPYdHcU2r3TARSgmkp1m2AHlGjrOZUBTDiXAdR4KwIsipRioiLJx0THRPPVAx0TFkVkRWqK64qSOH1mkoCtQrgp9HMYfvrg8e+Qg+wmoRXztDT+KD4V8xtN7ljUtvPxc/Cu4zo7y2zsVEnymkJ96JUtpbG22BxFLbrzEyjJIONWkR0B4R0RHRizzizzizzizzjoiOgPCKkjwx5vvIbG0wQHi8rUgRKgUYJ2rMcvSVYOpNUTUZm4FzM02T9MfYL5VaMYg1xSGOosgXOqPV6U6j5oy1JeHvCPWqH/AAKjlOMa3iMimN99UcnSGlfPGSQebynEjeY5WltJ+aP2jjD7og/Z6O44dtUerMNtb64IXSlJGpNUTdcUvebo/SFWurkNwxpCJX3CFhxmqUkVPJkd4vOSojvjk6S6n54yaa74x+1k7xH9ck/LHSa/gj91/BFrX8MdNsfJH7TLcIrpq4y6Y8fnjLdWreq8gJrJhij9RNe/GwzfpGJHFdQkcojLRp5K1jk2Ms/TGlm0BMWjGXgCTLuWjTqMMSdey1/TFkNBYSe/FUEDlm8pv9IkdNhbg5BnKVt2Y2Eq3QcxZi/bGByLpytirz0DHRiyM0dIR0kxaIzRZHRitJiy7IaaGEtZkBCGE9K1atZxcJVmhJGK7MRbL4wkLEjCmXOjahXWFyyRFdUZSosnFSRFXOVxWgRqjJVFk4rBFx+20pMnVjkwcwxa7NDSMSOIW1ZLia21ajC2X04K0289kiOUMosnviqq7ZQnFWTGTlRXzopdLT6unojrnF2RIaHkYkcTDbkilI6J62yFNvJKFpqIPN5NcTd8IkkSvmUIm3WOb41+aaIi09bZCUNgJQmoAYlVkSGiZGK8TjGpIpSbFdbYYU0+koWm0HmZCMnx0BNNSokeYD1ImiijP1t0JbZSEITUAMTZEhouRjZiZWQ+Oi5BapSME5jmOOAIkNBYQtGOmk+kQUM2pRnVASgBKRYBiV2RIaNkYmmzELNKRhDMc4grTy1G64zb8bdoOUKG3EDbCCtZsAhL/pCTr+ZGZOLNfhpGaPDEkoTBzGFPei5NrztGzugt0hBbWMxxN+g5mCeEKlxTH3ivpGDRkZXtLNpxJJriardJ7YrxMClthWpWcQpyiess7BlCJHgqj3s+guLTbn4MCiNFes5hCXKd6w71fZESTUMTZFWla4m34RXiEut4Dv3iLYK2B9paGdFvhElCRiaY1K0Bgt1nXGDRWlOHOc0BfpNfGK+7RZAbYQltAzDEqibnhpmuNYxfWWRh9dNRgq9HuB4dVVRjBpLS2lbREnMoRkm+dY6hAwWuIaPtLqgKpijSV6rEwEMoCEDMBi11CMnTlVRiuzFwHkJWnUoTglkKoy/ds8InRlIpCdlRjBpTK0fGmMrJjJIN2trj1eiLCes5kiJ+kKVV1Gv1j1ajpwusazjahGs9gKqjGvGktIUNRjLoyUK1t5MTodKUnYtM45HAfHur/WPWaG6BrwYyklMdKOkPHm6zFaxHIoW78CZxydCWna4cGB9ofaZ+EYUesLepB2qkI9Wo7be0Jx68kRrPYSsRkVxlCXMcsy258SZxlUNA+HJjJ41G5cclS3k7xOOS9IeLf/MZNNbO+cVUpjz/AEj9povif0j9po3n+kZVLYG6cZdPSNyI5T0is7kS+scq/SHO8CK2C58SzHJURkfJEkgAbOYyRGWYqHYmqqMmuMoG81AxlGUWT7H1iMkxVIxWk3CqOiYrkIyiTFQ7LWR0RwWmOlFsWiM0ZotEdKK1R0jwdEf6YP8A/8QALBAAAQIDBQgDAQEBAAAAAAAAAQARITFBQFFhcYEQIDBQkaGxwWDR8OHxoP/aAAgBAQABPyH/AJ7HF6mQBEf3Iiv6Ijk/RYfQv8df46vgaLHPRAivy6yEsB1Tg1+LlinQ9UPOImUM1c3RQQrXiRnJMDCbFe6AhpZ1RkiGB1qneXw8W4hmpMKUEOCfnz0pZzkMoMAFXn4oI4ih8ICi+fBSktwRIckk320i59SuP6KYR3GCDvggxwAKhrFGoh5H4JKDJo3oc5gj4AGcQ1UMFheUVc3Y8nehAjSDUIK5gi8c8eBsFTUfRueVlnYKgC6+iIBCPOYeg5De4cvIRvcKrLVDmz6GC6oiN55iII7IoQAuQI5mFvoCcBQoOanqqgntNdzAyQ6y9ciJPETPm53ligMjZpywlg6jzZtkucCYahmno8aFAuOVhegCNRPfnsxPQUC4hykLyARzAvtz8hPvTggXEOThByWVIPgJ/VSTgjkpMIp9LGePwNlq83JXrmr4JXFNKPvyOIcam9X+ClAYCDAoUeSfITGZciFjv8HELyIwQRHe3sHRZ8EvhJFk9uzEzsMfF0XqUFJAgRZbyPELMOiDZNiO+vMjgZCRDJRJNgCBEuf0BVGIAwuwAI+6YFZE4wUCQ3ffIW+fAqWH2UakEqSnPGjGBxFxX6VkvFkOKcPCCCURa5KDj+lgJYOSA1XTi05Fmnrt/wBUCwm5wnFxFvAWQG8cj0ijmCySTtPOFwQmNR4sr9KMrXK4SLDi4Pvn2fsp7aqOQ1dQdwbed0GC/wCoNuHpYPSKIC4WQY+7ICQQRBpJtqtJLBP5ogLDHSBg4mA8brE0LHvER4724ZWwJJNwVNEcn3WciAMJjz2sv7pNph9wFiI9voIG2jUAowPSMToEBu4aM83QBGgRx0HvJ0C7MXe2tMWAs7+m0By0RKKfCGqBPQmGSDOxPEmPhPEYCBiC3uyhwYTondWtocBgfv1LCOCwEk3AIs6HdTtATFYwAB3QUC4tCP2dCaje7xnN3trLljoUT6G0Qg+kBc9hsBKxjMg/cFOOWBDu8gWa7ySzxEi0FHWw0kZs3Iz2wGYmtR7QjgeGYv2PMXJXQ27C2sCVfsHna4Q+wj3sZ+Ed+V6pIHmpb3ZmIJgwTWyNlZOCUibFmh6iB7R249dQB9rE27NjbNA7fdtOf7gZ62u7/A/ez/MiP3X+ecbO8YZGFlYHJOfU9rE4MNwUyYyL7Hh3BWbZoZ+9N1nMrhQFnf8AQwKeyQVOAWOku3Phl0QD0h/wMGwGxbb89tn8gxfWx/8AvY/VC4sbPksvrI6DiNjZFxO3cGcDEOnoQ4EdDN7bDkX7t9LazfW9/wB7RBwDub2Nk+TZzfSCwbB3tD1zL2MlXHP4sbNR8QP63AHTKsk3cIMJ5wcewOx1GHnY9W38lwR97Rloa8o9lROo36QR7uqqeMWiMKwseEQeyVK7mCELoIYg7WunyyN3J41TiGijtCBqAPJQT6wLmGb3bW9DvnuAJsOZBoAgO5BZyaIo7oW8kuV+vQE+rQxlCmg0sUNvAWXA5jJ4bsQ4QAgSoh0FthUOF6Fj53jFZoMyw8PadGWKD6ObKzLBDMB3jvuuC6N7o/VtqhR914iHdAPcEEbrBIiJgEfy60vlUNiYVwFlbs8ux/28o7hTBAnhUxPgdbfCshq6bu403AHMKpmDamRPltLTmAPYTJPLFZQBxuU0PWKMmJjN42gbcjBNWbqWJ/YW87rHhiow7+dw3YpA+zC1agP+0sM7JEkkTUxsxmiACaD9w2mJSkIfw+uQDikDqhDvJNBQ+/YbIUwAE03UjxPz1anlgQsBsfCziLARBBDgisE+DsRFuRCGCsY+hwgh3eZpchNWIOQzcPpAkKXPYGIQKEZMGA++lrNxcQpGVgJsn5TDb4zG5sLB43xnt1g8fz8Z7PYIsr4yDZCwRZHKTQWTbBEjiGDWXdHOiSCED/RJf46goLxfQogDZ76gpIEGjrynsLAGqcmFBCIYDVHg5YOw917R04gFg6A3OLoEEmWZc/dl+okvdTxlXoL/AFaemyMvZPzhR/jAXenfF0fvXA1sZyNEUBkIAQDzeDHPk8RAFWUAWAHPJMxa7kYCEmAqnvHDPT7INLi4fy8QB3dYEYXCstwkY2QzCO0FVXNnyYXyCFgKFh8XZQjYsxs3xd4jdYmcgR8X6AsT10PxfFhjYm0LviwDkARdMhIWIxBVF2Pb4qx7omyN3wpAAJMIDES4cZZWSH5x8MGXEiZGYlmCggIGiQzx754EkJOmbgEUpCXf5ZIsYFiowkeh7cOL5zNkGUqjGKZcGGXEWAdRmiCzRM8wOyCDCBDjzFMwgqxgdx15wIwQASSSzBQSSD7tdEc0kBlkFNhiKAAYiHscK4ozyQDCyOoOkPfgmZwZ9YuwO47YC/YJARQSDi5M6aoNHaBHBGfNCQIkwCNQ/Yn95VwiTQ1vT7c9jqXvhPF0gLM5NOIcFtYdYxfe8AunxjnohjKWTwJwN35lOLwD05gQE5kwCKzw7P6E3Vk9+gx8FTOanEyI53ShodG4JpAXrCEWZn1Vz8wqb7d9N2Wu8TFwSCmp1M0RmoUJFMqMbh/pTHGYH7NkABycG7lRImSzTTHGJFmDIpF1xjo8+iatQG3IydG7c5L2+a6U8GcXutobg4AYuIcGQBJiJJv6QJ36FYwEPwwUKAUOJnyI+inBkv8AVPsgDkVExXkmFaLvGgUcGFw/f0p4AznYBYFoesK4fr3A4IscHBjpvDaAGBkyc2kt+4PrQH1w3IMIFNoHLkqCTGELOXOGIKljJK/sBUxkP2o8EebWygZcFTQzKIW1GCb3BMXlODL5IIKjYhEJ/viRNGa85ccO8HuXAbwZIlCAa032b6Hw/QWPtxgwPSLCCLOB1qkJZh1Q+NOCIuNkeKOIRNQ1KoIcYqq2YVC5Cpv5kRTDoeNFisQHUi1oIqbRmqOZIFc5QQYgJZqQg5JkSAclgECIABOd0CMm2SKw6K9NxgIkk5OeLB9wCRh/DgNJMJlqAEEFOlBlvNXEiHP+CIawB4+ykwga4x6ooCZ4hCn4BvB3QtwGBdNtYXJhopmMxsUSfUn/AOli+pfuS/Mk3/ZAH1bFSRIAFAmTbmiVNNxO9DqnmIYPuykLKEv2REQSpNgIV8pP9Hfix/ohC1yddLA03QCDCGIKIQQyxSxkScmKEiwXER3TaNf/AFUgZx+xe274QSGJkDcgQIAyYCuxIX4Uqrs1oQswbCfCdg8F+UDCjCQBO7NQxUHJ1IqKzU5sjCpi/FTvAQRCZJoqrbYEXm9+Qp3RrSb6OQTPoBKQRW+WuCprmhUyMmIomoLJcoC9WoUMFyZeZAjr58FEkmJe0CGdMBeUENAhGZE9zvROjbglkEIptLLcomCDTqinT0pPz2MwHVo6+N4rbEU3AQt+gEjB3mDu16FnOI0PPGcp9QFgQg/XndIKITJDbE6nkMQyt1E0evia6h4CMZwEHkLWohLJg7VTUfBQ3WNT25EQAiHV4m7dNC8BAh/b7s7FS4HopExkpI3VC5dQhehqn9nWL6ogvZFG4dQqlUoWimxJmspA4AKpTBpbjOfTdfUsvtS5GIwnCYTnSPrce+sCouPhA/JoGSeNXa0YJoFKoIcSm6PgApjrFSs6OgAhAOIRkArwQgpGCea/vhlIWsCiSh48eMkcUoyn1zO7GJJ6qADkt+1dEhv3Gtgj2IcCiQi2DjHWIdFHg4Ve8gAYAGW7Cwy/zB1H3lgnswMEUYCDxTtQWLQ9BAMwEGkNzAeZQBBYDlEXp1O5DCGGF792RZhs0QeGIASSGGK+BAgEGFsE1rwg5VFxjA8IEEUzdz7QOKMUtxhwVlBMMDlQVoy0O4RgBSm/CSLFJguDSzUlMUHNeQBJ+1RGNjUcAaBeNWFB3XZpDcuUNU0VgOVs9cKJo39wiaBYQ7G8IiSbMDeDXfJEZJQVOqeRCY7/ACVY7tUUoZLZtwQ15sFLcIgweaAAsBy1oLhVi3IAU+QW8GiCgSGAuxTei5pfkZDhywg3Bb2wbkphAkZh8bz23O6ueEAQANy9gylNj3IgmBDXg7SER8CCajAEZjmojndiNiNroQwYAW5GAsAB1jcdo2x8amSqjKGIMHXoMNxkDkGv5nD3BIquoodx5EEiGWf9UcAImQYj6RiBYih2GEaE8KJORP5HJCn6e46hTyxNDIntCAgAAAAMw3Dd1RTQHM81EDA4KIgJAkAx3A7pygOxv/RWGRiHOZERAKEINMxCEgThW4olomidCYBRSdIgzKvjSRkJ+uqlSwG3+57jaEkmixg9CAEOcSQxvUW6E90cX5fZvXUFXSr8/Iq7xUJ1ARAR3zdbIOC7JBAj4JkZTKN5o3QCl4MbDpuRheo57yGQNzshRDNBObHvbpSV5iB0T8Cqb9T0QiBGUgfbPoqXKoQdFB3kuxYY2F904xElQRKZyQRHvkxlGoDd30hwYXd/F6ab3nwheXDz9g0YqPaJRRmYLzulpnmBx0KcSRVj2S7Iom4/nB9JxcDcSyYs8U75kgCX5XfwIUjWBBkX4UnBmV4wF1BCFxUKMCNB2lOgOTEGIeE2EaMR2MR7oYHgYjrNZ7ojIElR0EUvEKAaXwLNRaJeo0STR8OvA1Vm0m5Yj4FOrf31XgB/RTl6PhBe2ARHN5lTaGDzHqsdoj6LWjcPtC6l94kFE9lPBU7K8/wynb3sJGpdA1IgDcCaJxoiGLGAVHvg4QJgDopYfeFOgFShfr7S0w18kZ4CnzmMUAEm+GkOpAoiaChkPAiKlMEabunCAMgkqV6iMmQAgkmgG+KMpg5EKPQRcgRkUaKnU7UaI9NkYvWr09eyL0OiH+FCsgGYJ1Um6CApBdP+YH//2gAMAwEAAgADAAAAEAAAAAAAAAAAAAAAAAAAAAAAAAAAAAAAAAAAAAAAAAAAAAAAAAAAAAAAAAAAAAAAAAAAAAAAAAAAAAAAAAAAAAAAAAAAAAAAAAAAAAAAAAAAAAAAAAAAAAAAAAAAAAAAAAAAAAAAAAAAAAAAAAAAAAAAAAAAAAAAAAAAAAAAAAAAAAAAAAAAAAAAAAAAAAAAAAAAAAAAAAAAAAAAAAAAAAAAAAAAAAAAAAAAAAAAAAAAAAAAAAAAAAAAAAAAAAAAAAAAAAAAAAAAAAAAAAAAAAAAAAAAAAAAAAAAAAAAAAAAAAAAAAAAAAAAAAAAAAAAAAAAAAAAAAAAAAAAAAAAAAAAAAAAAAAAAAAAAAAAAAAAAAAAAAAAAAAAAAAAAAAAAAAAAAAABFy+wosBgcZZwAAAAAAAAAAAAAAAAAAAAAAAAAAAAAAAAAAAAAECTHiAAAAAAAAABBwGgAAAAAAAAAAAAAAAAAAAAAAAAAAAAAAAAKZEQAAAAAAAAAAAAAAAIFCpQAAAAAAAAAAAAAAAAAAAAAAAAAAAAFgAAAAAAAAAAAAAAAAAAAAAMGgAAAAAAAAAAAAAAAAAAAAAAAAAH5CAAAAAAAAAAAAAAAAAAAAAAAPtowAAAAAAAAAAAAAAAAAAAAAAFNQAAAAAAAAAAAAAAAAAAAAAAAAAABaQAAAAAAAAAAAAAAAAAAAAJIgAAAAAAAAAAAAAAAAAAAAAAAAAAAADCwAAAAAAAAAAAAAAAAAALQgAAAAAAAAAAAAAAAAAAAAAAAAAAAAAAONwAAAAAAAAAAAAAAAALjwAAAAAAAAAAAAAAAAAAAAAAAAAAAAAAAANZwAAAAAAAAAAAAAADrwAAAAAAAAAAAAAAAAAAAAAAAAAAAAAAAAAABgAAAAAAAAAAAAAAGQAAAAAABmygAAAAAAAAAAAAAAMCWwAAAAAAAAGwAAAAAAAAAAAADQAAAAAAALwJgAAAAAAAAAAAAAACQFgAAAAAAAADJAAAAAAAAAAAAOQAAAAAACCgPYAAAAAAAAAAAAAJOyJQAAAAAAAAADgAAAAAAAAAAKogAAAAAAILVJMAAAAAAAAAAAAAKwCPxAAAAAAAAALlQAAAAAAAAACwAAAAAAAHoEIFwAAAAAAAAAAAAFgAIwAAAAAAAAAADwAAAAAAAAADgAAAAAAAJiFKCwAAAAAAAAAAAAPgCP/AAAAAAAAAAAD4AAAAAAAAADwAAAAAAADKAQQYAAAAAAAAAAAACMATugAAAAAAAAABCQAAAAAAADoAAAAAAAAB78AcQAAAAAAAAAAAACY4A4AAAAAAAAAAACIAAAAAAABYAAAAAAAAACoCcAAAAAAAAAAAAAADMDkAAAAAAAAAAAC4AAAAAAAAUAAAAAAAAAAz+IAAAAAAAAAAAAAAAEVAAAAAAAAAAAADYAAAAAAADsAAAAAAAAAAAAAAAAAAAAAAAAAAAAAAAAAAAAAAAAAADoAAAAAAAD4AAAAAAAAAAAAAAAAAAAAAAAAAAAAAAAAAAAAAAAAAAAcAAAAAAABoAAAAAAAAAAAAAAAAAACePBsEAAAAAAAAAAAAAAAAAABcAAAAAAAAcAAAAAAAAAAAAAAAAD3Uecv3ecAAAAAAAAAAAAAAAAADQAAAAAAADIAAAAAAAAAAAAAAAAAAAAAAAAAAAAAAAAAAAAAAAAAACcAAAAAAADkAAAAAAAAAAAAAAAAAAAAAAAAAAAAAAAAAAAAAAAAAACwAAAAAAADYkAAAAAAAAAAAAAAAAAAAAAAAAAAAAAAAAAAAAAAAAA7EAAAAAAAAAUAAADQ8AAAAAAAAAAAAAAAAAAAAAAAAAAAADUoAAAB4AAAAAAAAADAAAADgyS8AAAAAAAAAAAAAAAAAAAAAAAABLA9wAAADsAAAAAAAAADccAACMACidQAAAAAAAAAAAAAAAAAAAAi1rMAAEAAASwAAAAAAAAAAAEAAAAAABB0+VcyAAAAAAAAAAAAC4CIfAAAABsAAB8AAAAAAAAAAACEoAB4AAAAAACCRZFgYkfw2dxTxNAjAAAAAADoAAZ0AAAAAAAAAAAACkABIAAAAAAAACBAAwQQwBAxCAAAAAAAAAA7YACQAAAAAAAAAAAAADC0AA8AAAAAAAAAAAAAAAAAAAAAAAAAAAAAggAncAAAAAAAAAAAAAAAsIDsAAAAAAAAAATN4wWfB8AAAAAAAAABIkCwUAAAAAAAAAAAAAAAACsoOMAAAAACdO4NAAAAAACVetsAAAAAAMAAoAAAAAAAAAAAAAAAAAACwoLYAAAC5AAAAAAAAAAAAABtAAAADycYcAAAAAAAAAAAAAAAAAAAADAgAsAAuEAAAAAAAAAAAAAAADcBDBXRQAAAAAAAAAAAAAAAAAAAAAAD2VAyk4EAAAAAAAAAAAAAAAA7JEBqcAAAAAAAAAAAAAAAAAAAAAAAACzOgTP50AAAAAAAAAAAACnKIsh8AAAAAAAAAAAAAAAAAAAAAAAAAAAAAnkCp3DF7QgAAALHbQoIgANcAAAAAAAAAAAAAAAAAAAAAAAAAAAAAAABoMOADgLWjTCDS4BQZ9gAAAAAAAAAAAAAAAAAAAAAAAAAAAAAAAAAAAAAkK4vGMkGMqBywAAAAAAAAAAAAAAAAAAAAAAAAAAAAAAAAAAAAAAAAAAAAAAAAAAAAAAAAAAAAAAAAAAAAAAAAAAAAAAAAAAAAAAAAAAAAAAAAAAAAAAAAAAAAAAAAAAAAAAAAAAAAAAAAAAAAAAAAAAAAAAAAAAAAAAAAAAAAAAAAAAAAAAAAAAAAAAAAAAAAAAAAAAAAAAAAAAAAAAAAAAAAAAAAAAAAAAAAAAAAAAAAAAAAAAAAAAAAAAAAAAAAAAAAAAAAAAAAAAAAAAAAAAAAAAAAAAAAAAAAAAAAAAAAAAAAAAAAAAAAAAAAAAAAAAAAAAAAAAAAAAAAAAAAAAAAAAAAAAAAAAAAAAAAAAAAAAAAAAAAAAAAAAAAAAAAAAAAAAAAAAAAAAAAAAD/8QAKhEAAQMEAQUAAQMFAAAAAAAAAQARIRAwMUBBIFBRYXGBgJGhscHR4fD/2gAIAQMBAT8Q/UTZmkCQOVBTyk8KHgQ43avGg3fGfQnscYAksFPx06MmFKzRBBY70kga6gUqY42yLBTOe0JUksdhqEOYbk0zr8YBjfAspW3qGT2FocXTSMKmyOxAZ5R2j3WR5C0J7YfSH5NHU+inWKcAteDjeCBQGNiUBSdaEH4pP7R50BaN3lWX80bkF/wly910IuA9gmtsPJRk1N1eOqeVywhixt/P3anezrBlC2mvNub82R0lQ1jKFt8FaActaMYWlIDlWEIXHcanm9QWgheBvbLnHTNv7ek340HsUzlrLkW2yURrBZ50MRlEMKCbdGayM3bAjurYWRakWTo9+KBqFFkUBpo8MBZqApiKA6j20zgssGO2FD37XBsB7ZgwS5e0x+uy/wBFN70xegC2oSSLjtncqIQkmT1Ih/FtnFMh0FUzRQWuuyaeGqdNS6LmaJy5uOiyAgxRw6Vhh3To15zLJ9Qei7C6JqGBrI2QSMGpDDmQedGFEikQQ8SEtCHPtGax50Rxo4fB9js8AXwWLr7NHNTK3n4eouURLydHMwNHoXIMBZOfksf+xRCkf2nLK4TNaAdfd1R0b0imhhFGgx1sbcrEKkp8yFkoiFSAYOhqvIT+IFTof4lOW2kiHgdRsHFcGiVY6X1+n+Ez575wASf9vSOBz0OVhwFBPoGt6gnJSogmK+9mkUBDZ/WoA9GZHcrkOzxz1CRhRyEfJ07M0SbQZpjinuaQWW2ZBbFFHcaYyORG7k80E0F5PnuTBTCEwAnMrhEbxtzXEkuaIgKPOIK/HAoBM9+MskEwVA6dCkwGTOKIRYmED+5HNT3STNEwhVz2GZC8/WXiuBzEVnDiAoQf70uQkLOahGqJg0w8IlI9mGDW2ByoC8oU296PKRHUh4ll+oj/xAArEQABAgMFCAMBAQAAAAAAAAABABEhMDEQQEFhcSBQUYGRocHwsdHh8YD/2gAIAQIBAT8Q/wBDxUlU4WPl+8FUTI/6F/EQdexVxI/wFHuoheWyFBuYS6wUG0yQwY9SiEZzRNSUDQVQgoSEcoFQcZZBi43CflYFqYSPKF0XEQRipwFMqU5ZxfSWRY+CCccHhhdjc7xqIGC5R8XtoGIkfPFFEN4fSH/lIILdFeHIRwHFP6yC+Ok+Kg0TliLtWQdAjgzk34bP+oAJmF0NY50IgI5bgFC/qAzajhcjZwCJyaDgNxCerCII9wCqgE+Tz57kMPwsoFjif9MsJDkyy6gSWuAJc1wIcDGGKVhgTRX68ROJrBKmkgJCP6LAgGAdVwAYx2liEM7T7lYH9dEd6EU1wlekJAEBDCcHeNhWIC9OBVhEEdIWO1otlnRRiEyhODrHnSBLwCAAALRhP6pwzGEegfYQSESsIY9lSBMtjL9En1CjsNKcarQBwKE5bsmP8JbeUhkvh7HY5unBLxWhMZXdS3oqD3lGNgdYigyhwFuePzTuVC0A1iOyN0ywnwEzjjJyed0o2DaMDDeEo+Kpz1oAuHE7QCaN19UhiSLYAMPCxnk0U4aAcywAVmjWZdONMI4iz6G5Q6RcDqJVyTLBvSCMLNOWEn3bHdnJIk+pnuztRJb9SN0jxFekQzR4cgEfW6hJEWyEnlw3IrQHGwEQF6SOPVK0DkC8sU+ukJooc/0xRiVlzbzg3qcP8kQLm3WFzNdZOC4KILFurHOBCCOEp9imzcQS/EesS/PAeKVP1VpmtlppC8vFrXodnhnXrmqrqHHk6GUsb09qhYeiI8ULsAEPBUfGy9Bj8JeBeVWcm2NT2gR9Aqndr4YpmHuoGsAur5Am/J2CbrDK1s+qmxj9lT/BpjIYQnWTwMzkKNO0DjzCrzupMwvImaYKQKojkowzWovokEfrOKAwSUkUL0jN/oYQ5mtHT1GSygGwx21Cj6BfxkcMF+7IYneWJRg7oh6nSz086L4AEGiS4S2VNko7BOKw09G0o1Pf+l/JYOiCqUaCAtg7Pw1A5I1FgK8hujWwXvwDRY7xsF+I88kMQ4C4V+sDwKLAsFgDdrHzmCQKogqhFbtGCoUhlgAkp3fh/awIVewQnqd7lRjQKJwMElTAwBIByoCI2NV9KsU+zRFQ14qVOsoltwDxyv11sBG5JqY1l0pXe6OgMCa7AqZB9NNlpYo9HOcBp5QLxGw7QKlBEdyQy+JORxBuztoUQ4aFBrMWgzYemF1dUFeBYAHKCC5RxUIjuSgAHPAJsLnU3grd54hHwj3VswNnxYjdKn1SM7iR4ycOjIf0GsBn3eiEGYvTG3Cf/jyiUk/TlIwiCD4Z36KLBCcTYVEn1Aq2aSLlyheBNoUvsHMnJ3mTh6RHGS5caJFeHij2wc0xgBkXVV2QxsQFyAgUJfemXdQJ/MvTqhnSg7IohT/yMN6jimS9wjB4Zqvb1Cei3RqH1WOR2MqvP9GCrR5F7r7RiDeVeNh4XzREeiseR0JvLHNMp3dlC9ZbmYGuCyWiRhrZ6UV/NAVKzCKEq4IsakaMdFi6zTADoH+iP//EACwQAAECBAQFBAMBAQAAAAAAAAEAESExQVEQQGFxUIGRofAgMLHBYNHh8aD/2gAIAQEAAT8Q/wCeh9lBAaBOrydygqa8hy+kDUyFzqyt/hP2v8J+0PkJAWYOdW7uCh88r22ksCCKf8UAESAqh7ByNsVuYBDz1cVOz2MU3TdWx5+nni7mRIvo4IVYyyAnQWKF67NAXYaQHogMz8M2C7p4STdTqTyCt5BQLrw+ckX1CHLuQlf6TX0EKhzjciHQU1BTLN+DhCySAAuVDndEoeJV591LfDknyr4OmO6cdK4QkzNeJM4MpQhcF/wGmG63yEjsU9yEfKcBJfAjEA3Aj20kiP4hst1CouSpxybJv51R5670Zm3cA04HsohPqOld7oRlcQMVRU41ICCMhBTJTj80Tqt88LFS/m5IaNAkCiYDRAji8k9n0wYBPb9CMNuFkNgP9kv4hgAu3ivJEgArp8d64qbiA7oibgkERmyK2bo3Q+cKgpzxGSNgS/JRl2oCkYoniEk6ayc53VOhaspjiBaAgpCJBoQrPVDxcMY9QhhpvkVDhoTwsAiQhVfhHi5nRMR0xCGPIZqQR4VAiSNjgMyYIsfFe3HDoiGL4aboICxk8C44QXlAJkokQBIcdSTIQfMyieiHBnkicYBMormx3/ANEcRqRmmiDgDAoGHBAAihiHM0/AcsH58Jv4Qa/AmeaknRK3jH4IC0SRagQNiDJ+ACSNKX0F1M6JJQ/AyHRF0gFlghjwHaCXFE1d+Dyv8AyEKgwXz1kApsAEdEUYpqfg5RyaN0KDhnZJkOQI/r3zDCRJzBI8PsQboPAZRWpUYmNy1cXUY0rQDKov71QnDktnCDB2gLlHpLsT78yg45IW74JIm4zCWF0QTmij6CFIRL0FnRfgJBI84H8v6EVBzlwSoKPYWHot0EOJAqLHV3LXJFAOv3XtiJJmsQ7IlGs84DVJ++MwRESZJGFUUW/KjiagyXpk/khha3p8M+HVFOrvQdyKLmS8kmZxgYt0Zb7zdKZOSezX3poMtBLMUTqDkMiIxMhRPOWLsucQC66NMyUxidk59g4wzob9u8iCznF1B2vQQLpSiMEZMEUUklFuQdnHQoZgDlk1+Rc4FDbficj6omJxKIzuCRrrxBBnKlBl0ZgHRYHO7EA6MrYhHrkbB+u3KosIMOTZh6JkCGDCUPqBfMFN84AfUXiGfRGS++rDDzUogtbiDQLjo6ABACLfOlB5j2hlMSUboowEpgBF0c4hWxKObtIu4oxwlwaP7yHE3OevxypOEORPSctBOmqNElPfqj06Mwd1WjWuY4xjh6l8Bg7DhM7qwBuhPIr8g/YqHNmZQYKMXAY8Y0RDf5+YEkACGjd9TzHVEHKpoOnIlbdgWyjuNwm+otyiLvzKmQja7oxqcgI4CEhqC+hBNFALUZ7oKZg+o17DOGZTlpe2HzOIH8G1Q/fCMdcI1z+lRCxY2gZ4Dk3gyPAr5AyyujEZQo96GR1kQBVRE3oBfQSktychgb96ASHOUD4kMB8HNpZdaqsbPoCcuGPj2xb5QBRohqwsisjBbXUXobbd9TRSNHBxqV1PvOLJy0L2sTelYTNWdTX+d8v4hX9ZUbZRiftSlkbIH9IYUtGSftk4RnZrpm6IGAk36WJDYb9blayoKhVMrrMq3kxb5R7UARTJGY/oy/SOLzjRkiD4I6UX+VdWw/xQtnFl5DwXEcF3tyUdjAJzyGgPTqYZEoVTKgxTq2GTgFbTIS2RqEcddCBcYE4gMEkD1hMQhuVfhco86LZx7ogbwNHe4zJgjHaSO8cAQJyGCcgsSVuoTy11aDDbIExOy1uUojkbKD3jc3RXOAEYjCmqnsYFy0WD2yMbAODnEKmCMIlhE983RGjgo0nj6MJ8c76bGuBdoPrI2lidSjgAS8SUMuaYBHogDYkE8cgZpqHJoZophAw59z2Mq4hD+1GiSyY85LDGcqjG9IGk6HgNPQBaOmuHuzMBlQzoq5AJw5IXJmaNFEyaCv1CfQkSEcANFJc8wwIzdSFyAjFCwXYijybUIMlLFlBzL/AF3dlwoB1rCxkWiE3FJ95UgXdrmOwEJBi6Ayc3UMcs+ijiHyE3oWGmJgTIEy4NAOf7ZkNuvN+0MgUSf+10h9ZUWaOz4AYgR69SI2JAIgADkkoLbldZOUBnRQDqrxkHih2Q7wxcEp+j8AeRzZrl46EeAyBMRLyxzZV0PuxZK/iKGaE1EyjAVLlPulIZ+pE6URv/D2ES5JEXCJIJmgrkuwkaJ5iEhx/ScvqlczsddYKTIaNmeyoMrongunikMjIfHISgp1xA0IURKrqQLsUPsdAFNFuAU/GXdmhdbMEENncKI+Bsvr2uA2Z1vCN8gOYqFfxczRuS4yHIP2r/i91sBPbIdt8gqH8XK89bIdz8CofxcrxlsgHJPlX4PJTXLDkoYR4TdNC3wZAerqh4RJtWY+ZVUSz5AqLwAv8Gh5pL4DBIC77+5UQ2KxOwfPUBSW3eXkhwgoGFYMg2b/AAK3A9lFOsVAALmQKK1BefodwpT1VsV/haoy0Z0/uj4N5jiWyh/4/A+a5tfJAWipOiT6bAO9rGAoNoqguoQROd9IVeRFBS4KGkBDyGQYpqhcFODgmmQ1/TeCiedOTClMF5yNFMC7YQrhyQRULLko1Q/8qdp7qENQBm22VncudUeCs+/zZHGCtGz/ABdhXfDIiK5hPxdaVpPkKJv8XCbqIdv6gMgDB1fjz+vxd6GqgyFkQCjGFRGX4mE1J0CBICAERA5CyDdJzBJj4dvxS6ceRdL+shk4AQDuiPZmHrhFPxt07SQP5YRENPaCfo0OUaAROhT9l6hCZGjBgL7sEIlPFH2KvG57TUTnAlOb2GYPU06EJRzhpJ6WEp7JmmFNyhKJFiqLo9kgwIlz7OzI2z6bkXKctMcX9UAKAj16fkknm0HnwOQp8TgoIP3xwAq9kOFE1N8vRqjDUS8YRpLDAKd591/lRU9kouaENgsGyhbNQW8j9ey4XsHoGlqpUUjBD/csVH8hMJyctEn8nTo52sAAgyI4mIIAiPZD0gOZFqbCUULGclxb1mUTRNFHeGN08+CofZYj4nWmUMYJ2BhE/WUmmWheZemeKxv6qdESJgGAWa39ICcfID7xUBPCHCnTNIrdMb5CoeV0FpBWi6xJqAZO9DSgud3eDn6TKRAdAP7EgyBFhYr+RN0B8ZQRYogBCQQ+r5BSd6zU3p/7EfUOIAyITkLTK7V1kD6bjMPluUFgmH7NxIaoafruEgUACAEWhQ0UjuTmCAnF2CCNi+BBYNHkBaHOq/5dS6+oAp9HPsspCo8eQUFplmxxn29gppQpp7BMxzkDJFdAuQ26oRgueyrYfkiEm9ALJMBAZkNNyBBD8bYG4W2DlMmRL5rni6qEKSnZiHrFc6Cx6wII+se/amuyEAX1ktdJrQiydBT2ThZkCHsMQWzBRxyYUSX+x6/7ETKfZdpIAiRBVEBjSDbYyRzfiPE+QjNEAjI5IJ4nqiEEh0CZD2egY1KFhrmnXfhao1uqAIWfchpVw+qSeYGHMIuadLWic/ARyvL/AAieNGCZPtkBhwTmIQ9Zh5OAzAgyYR3dsJ+mZk42L5Qon3TmziqwlfmTUgmoZHjDT2rslnfREAiSIatJFlizUQkeN1Ag/c4KW+PqvjoPog7iLn03JclyXLHnhBA2SmMwu1C0G8RRpg+4obsZGvcBaeyNAhki10yyORook0T9vUfoPcIHi1Cjmxo7GCfYJU+6Y9vjFy29beZhBmHAAUVgFEJXj09RBlivLDqrzIXUQA6JKHYQIhu1HdxgLPRFlj2FCbEJrmppgIN018JZF2J0r/MKYchiP9GvE/ta/wAtVqvPVDxT5QSHMcv8wortYKRAWwYIXQRWoug9iadOcN8UDGtSW2IqQFC7g7JNqY+OQAdOXLdl39TGOsUJgFE+adDUFJ3PSDWmyAgiSaLaqPj6Nk3cAVCP9JR0AjX8YGwQLU7+MhhiKuDD/bllEbIX3SEuB0vaGowKgGmrRZAcG4YDeqAgjvSPymbcx7kFByrJz0UXnR+W5Q4hAlU3+3oqN6RoGCDVBAs6JXOcIcMZJ+0UofUdoHgBo/PpzUIyQDZrXmjfXnqGA/DMm3msQxtxQeW+8M1zTw5AFwczntfScAAOincHxop/GLU5dooxUGPMhQJ91/3Iq+kBAIYeSgc5JkK92im3jqSXoNFJdNl+YiN0LkBVeNgxVWXMAg/7HN6SWKEJCLp/UADAAMEYRzk8II/M0QOB0AdPScZ0ESAHxmiaPGwTAVTMqYnswUEegeskCHYhxvHB88U0C0fv0gHzseB7iA4s4ghiMvOalJMbIDXsvJrya54Npg4f6n36pmog1ynRykkQ4oBD6c6ICDHGbk4QGsg0IOH4CUAAIjPbsPoM0Rc2/rpPvljIGoUVikBufcs3NwBVQfK6Oms/oT+l/uH9I/sxSIoA5H8rotO2Doc43U0QgOSJzAjKzdfXkQmGYIfwJEBi6MMFQTVIAqT4EH0UVURTG00Nr0Uw1B6gj40aNQPg6ovX3SLkRqgIsYIagJ1fNgjYIX36E9DXsu6nIiHY5dvyQFgWB7kLAah18IX0RQnTkCAZJUj+rPI/BAXCgc5TkTJQjJz7ocSEyju6jHxJLTfF8DSSOPwQADAApwSACNxQqsisDg+gQGeB4l9o03547jT3aIELdELgQtiUOBGuiWh0QgLegXP7sk+g6YNohTAVHMJ+4dEwEdb0RyCrj3SNnMfmtad5XQBDAQWB6GlEEUOgFwcvFsbIxF9mE07opCTuw8Gxoho92QFQoTEY+yIAuSj5QYALwlNStDnk84dAJ2RCJhXIaIRhBIJpiNHRDSn6yYmLurGEMfHehDXhZAFCalhHQJYHGXCDFHwdjZGwPk4zVDM/B8HU2UJW/BHshoGA2ACARyzpnCObOBnCSBUO0poQiiRv65Ivs3lRKDzuzB5f3CWEJ3CigyUxwo5GImk40sdVV4bZHi3CGyZZfAojSPpBiN0PIsQAWtWvHgRhCElUMCEB9IBMBd1D0AktR/tKZioyAKE1upp9K+gGFEOGNBGwBZgoySk8dRg2B+Zfxomx1RK8JzYKjWXpF0ArTF+n3hLgIjMkFQ3gYHGqY++UCCq36yPI+DKS0CGYA0bvLIBBEGefDiRhEEN4k0yD9EeKQ2CBtgBUoZIHWiOz5exfCxhsmPFFYYlCFSF9kQTwHfAT4DB2ZFM3B8qCE4uicZKwHueyAgQwxQAOqGSSUCLhie1AhDiEGQZyxTsIplNwLLI4zCbJBvPGxYn0P/7BMpoXycxgEIieiN8xJwh8SAFvt4EKuRimiJ2DRQYMbAFzwCOhY3bN94JsT44D69A+QL79KJsakynAqjLiQDI1HnAU5RhciFAQYiSiMHuhIBYAbTLnig6IAyD4oOiUFYtCEbaRRBiBmddk5QnHNltcDAkAEyt5JobftFZAgGap4CaoSTgg6s9CQajNcft1YxCAqViGANoIwAYSYcVCYpg0IhA9oGaMERrjihgX9EN2UAETYwDoP0k1pywH5BkeSbdcSIQCDcQPTNwCMUsiFf8A3zpP6YQg3YuZ9w8yoHzRY+TCZwmBokz88mTZCVTUoynxpwRTioDLsEhkhphAzTlTxKieYKafE36/EhFhJ9CfURU2XcI/SBAJsIxCHTWnwJoRkWRbfZOBTunNym1HttqE4SKjumNimD/1VmgiVB8x2C8anDAkbI3DYWXsufQ66Gr9GO2LAWUmggczQFgOOANVMnGdRPAXqylETu6lgUiVuolQUE4Yc3YR06ruDoUcau4ge2hM5Ph4UA2GLOeV0EQjMEO3whch3CAOdyIO4g09tVPCq2Q9bW/wmGmcA47qk6k3ubOiFv5PhjQEo+Mus4uqiRJywciRCJwAkB3AUVDgqZ9E2HqtMLPwIo9gC1Ap+BGxgUVYlqEBzPCHogj5jMPswQEk28oSKuekdukoo+AdEmGFj9xEV8FrFSH1lEq9gJCVFr/qjML8exMG1lUV0MHz13RAEd/hCBRq6/XyQQaosdE3ohXAo+jBw8TqgMIr1KLU/BKRRbQLl5IOQMsXJ6J9t/i6iSBXWRIh9PRD0QoU5TFOBPDmnGHN+SfbDmnKY+g+5aDFERDaIptOpqCsAI6KU0S8m/CghEAqQM3EEGfV0VO4d2Xx2IQTYxqzGFlyT+pH0H20xFfoMX7lUynQJf1SVm7OgBAfiAIuigiEHTZB4G4KGlsxd0tRMluyI/L8r7LQ/wCiv9V+l/Uv0h/ooIQtzZqCndmC7kpIDPcyEsEJ7BIFMgEYf8vv/9k=;" vertex="1" parent="1">
          <mxGeometry x="50" y="30.75" width="110.9" height="119.25" as="geometry" />
        </mxCell>
        <mxCell id="hJNaefQTGlpcFomLB34I-2" value="" style="shape=image;verticalLabelPosition=bottom;labelBackgroundColor=default;verticalAlign=top;aspect=fixed;imageAspect=0;image=data:image/jpeg,/9j/4AAQSkZJRgABAQEASABIAAD/4gIoSUNDX1BST0ZJTEUAAQEAAAIYAAAAAAIQAABtbnRyUkdCIFhZWiAAAAAAAAAAAAAAAABhY3NwAAAAAAAAAAAAAAAAAAAAAAAAAAAAAAAAAAAAAQAA9tYAAQAAAADTLQAAAAAAAAAAAAAAAAAAAAAAAAAAAAAAAAAAAAAAAAAAAAAAAAAAAAAAAAAAAAAAAAAAAAlkZXNjAAAA8AAAAHRyWFlaAAABZAAAABRnWFlaAAABeAAAABRiWFlaAAABjAAAABRyVFJDAAABoAAAAChnVFJDAAABoAAAAChiVFJDAAABoAAAACh3dHB0AAAByAAAABRjcHJ0AAAB3AAAADxtbHVjAAAAAAAAAAEAAAAMZW5VUwAAAFgAAAAcAHMAUgBHAEIAAAAAAAAAAAAAAAAAAAAAAAAAAAAAAAAAAAAAAAAAAAAAAAAAAAAAAAAAAAAAAAAAAAAAAAAAAAAAAAAAAAAAAAAAAAAAAAAAAAAAAAAAAFhZWiAAAAAAAABvogAAOPUAAAOQWFlaIAAAAAAAAGKZAAC3hQAAGNpYWVogAAAAAAAAJKAAAA+EAAC2z3BhcmEAAAAAAAQAAAACZmYAAPKnAAANWQAAE9AAAApbAAAAAAAAAABYWVogAAAAAAAA9tYAAQAAAADTLW1sdWMAAAAAAAAAAQAAAAxlblVTAAAAIAAAABwARwBvAG8AZwBsAGUAIABJAG4AYwAuACAAMgAwADEANv/bAEMABAMDBAMDBAQDBAUEBAUGCgcGBgYGDQkKCAoPDRAQDw0PDhETGBQREhcSDg8VHBUXGRkbGxsQFB0fHRofGBobGv/bAEMBBAUFBgUGDAcHDBoRDxEaGhoaGhoaGhoaGhoaGhoaGhoaGhoaGhoaGhoaGhoaGhoaGhoaGhoaGhoaGhoaGhoaGv/CABEIA4QDRQMBIgACEQEDEQH/xAAcAAEAAwEBAQEBAAAAAAAAAAAAAQUGCAQHAgP/xAAaAQEBAQEBAQEAAAAAAAAAAAAABQQGAwEC/9oADAMBAAIQAxAAAAH78AAAAAAAAAAAAAAAAAAAAAAAAAAAAAAAAAAAAAAAAAAAAAAAAAAAAAAAAAAAAAAAAAAAAAAAAAAAAAAAAAAAAAAAAAAAAAAAAAAAAAAAAAAAAAAAAAAAAAAAAAAAAAAAAAAAAAAAAAAAAAAAAAAAAAAAAAAAAAAAAAAAAAAAAAAAAAAAAAAAAAAAAAAAAAAAAAAAAAAAAAAAAAAAAAAAAAAAAAAAAAAAAAAAAAAAAAAAAAAAAAAAAAAAAAAAAAAAAAAAAAAAAAAAQQ8/g/HhcKN+PO8UYvFGLxRi8UYvFGLxRi8UYvFGLxRi8UYvFGLxRi8UYvFGLxRi8UYvFGLxRi8UYvFGLxRi8UYvFGLxRi8UYvFGLxRi8UYvFGLxRi8UYvFGLxRi8UYvFGLxRi8UYvFJBeKMXijF4oxeKMXijF4oxeKMXc0Vn+/T1j9+4AEfn8ZDyx2NP50zmg8sgAAAAAAAAAAAAAAAAAAAAAAAAAAAAAAAAAAAAAAAAAAAAA/f376tn5/VV639D33AIjx/PxRUxH40PPwAAAAAAAAAAAAAAAAAAAAAAAAAAAAAAAAAAAAAAAAAAAAAAaqt1W/oP0N1wACKO8ynhgpxJ5IAAAAAAAAAAAAAAAAAAAAAAAAAAAAAAAAAAAAAAAAAAAAAB6vPs9FD0/1TU6sPv0ACMVtcVkk+ETeZAEkAAAAAAAAAAAAAAAAAAAAAAAAAAAAAAAAAAAAAAAAAAAFn+/axvyv2Ej9+wAAEYra4rJJ8Im8yAmJIAAAAAAAAAAAAAAAAAAAAAAAAAAAAAAAAAAAAAAAAAAB/fa+K0qdVI00gAAAIxW1xWST4RN5kBMSQAAAAAAAAAAAAAAAAAAAAAAAAAAAAAAAAAAAAAAAAABf1+y22/wBih0IAAAAEYra4rJJ8Im8yAmJIAAAAAAAAAAAAAAAAAAAAAAAAAAAAAAAAAAAAAAAAA/r/AD1Xtt9vria3WyPv6AAAAAjFbXFZJPhE3mQExJAAAAAAAAAAAAAAAAAAAAAAAAAAAAAAAAAAAAAAJiYAAPdtcVtqXTBrrAAAAAARitrisknwibzICYkgAAAAAAAAAAAAAAAAAAAAAAAAAAAAAAAAAAAAAExMAAHu22J21Lpg11gAAAAAIxW1xWST4RN5kBMSQAAAAAAAAAAAAAAAAAAAAAAAAAAAAAAAAAAAAACYmAAD3bbE7al0wa6wAAAAAEYra4rJJ8Im8yAmJIA8Hv8Ahnrt+vOdmqn0S52HRLnYdEudh0S52HRLnYdEudh0S52HRLnYdEudh0S52HRLnYdEudh0S52HRLnYdEudh0S52HRLnYdEudh0S52HRLnYdEudh0S52HRLnYdEudh0S52HRLnYdEudh0S52HRLnYdEudh0S52HRLnYdEudh0f7/hn3PLMDyxTEwAAe7bYnbUumDXWAAAAAAjFbXFZJPhE3mQExJAAAAAAAAAAAAAAAAAAAAAAAAAAAAAAAAAAAAAAJiYAAPdtsTtqXTBrrAAAAAARitrisknwibzICYkgAAAAAAAAAAAAAAAAAAAAAAAAAAAAAAAAAAAAAExMAAHu22J21Lpg11gAAAAAIxW1xWST4RN5kBMSQAAAAAAAAAAAAAAAAAAAAAAAAAAAAAAAAAAAAACYmAAD3bbE7al0wa6wAAAAAEYra4rJJ8Im8yAmJIAAAAAAAAAAAAAAAAAAAAAAAAAAAAAAAAAAAAABMTAAB7ttidtS6YNdYAAAAACMVtcVkk+ETeZATEkAAAAAAAAAAAAAAAAAAAAAAAAAAAAAAAAAAAAAAmJgAA922xO2pdMGusAAAAABGK2uKySfCJvMgJiSAAAAAAAAAAAAAAAAAAAAAAAAAAAAAAAAAAAAAATEwAAe7bYnbUumDXWAAAAAAjFbXFZJPhE3mQExJAfXy76jj/bZ8/jXNNTItcMi1wyLXDItcMi1wyLXDItcMi1wyLXDItcMi1wyLXDItcMi1wyLXDItcMi1wyLXDItcMi1wyLXDItcMi1wyLXDItcMi1wyLXDItcMi1wyLXDItcMi1wyLXDw/UcfsM0sPHFMTAAB7ttidtS6YNdYAAAAACMVtcVkk+ETeZATEkAAAAAAAAAAAAAAAAAAAAAAAAAAAAAAAAAAAAAAmJgAA922xO2pdMGusAAAAABGK2uKySfCJvMgJiSAAAAAAAAAAAAAAAAAAAAAAAAAAAAAAAAAAAAAATEwAAe7bYnbUumDXWAAAAAAjFbXFZJPhE3mQExJAAAAAAAAAAAAAAAAAAAAAAAAAAAAAAAAAAAAAAJiYAAPdtsTtqXTBrrAAAAAARitrisknwibzICYkgAAAAAAAAAAAAAAAAAAAAAAAAAAAAAAAAAAAAAExMAAHu22J21Lpg11gAAAAAIxW1xWST4RN5kBMSQAAAAAAAAAAAAAAAAAAAAAAAAAAAAAAAAAAAAACYmAAD3bbE7al0wa6wAAAAAEYra4rJJ8Im8yAmJIAAAAAAAAAAAAAAAAAAAAAAAAAAAAAAAAAAAAABMTAAB7ttidtS6YNdYAAAAACMVtcVkk+ETeZATEkB9Y/YfLvbZ7mSjTU1zIjXMiNcyI1zIjXMiNcyI1zIjXMiNcyI1zIjXMiNcyI1zIjXMiNcyI1zIjXMiNcyI1zIjXMiNcyI1zIjXMiNcyI1zIjXMiNcyI1zIjXMiNcyI1zIjXMiNcyI+g7D5d9RzSw8cUxMAAHu22J21Lpg11gAAAAAIxW1xWST4RN5kBMSQAAAAAAAAAAAAAAAAAAAAAAAAAAAAAAAAAAAAACYmAAD3bbE7al0wa6wAAAAAEYra4rJJ8Im8yAmJIAAAAAAAAAAAAAAAAAAAAAAAAAAAAAAAAAAAAABMTAAB7ttidtS6YNdYAAAAACMVtcVkk+ETeZATEkAAAAAAAAAAAAAAAAAAAAAAAAAAAAAAAAAAAAAAmJgAA922xO2pdMGusAAAAABGK2uKySfCJvMgJiSAAAAAAAAAAAAAAAAAAAAAAAAAAAAAAAAAAAAAATEwAAe7bYnbUumDXWAAAAAAjFbXFZJPhE3mQExJAAAAAAAAAAAAAAAAAAAAAAAAAAAAAAAAAAAAAAJiYAAPdtsTtqXTBrrAAAAAARitrisknwibzICYkgAr/AL+rBVPvpaqo+WqqFqqhaqoWqqFqqhaqoWqqFqqhaqoWqqFqqhaqoWqqFqqhaqoWqqFqqhaqoWqqFqqhaqoWqqFqqhaqoWqqFqqhaqoWqqFqqhaqoWqqFqqj7avB7/nmHz8zEwAAe7bYnbUumDXWAAAAAAjFbXFZJPhE3mQExJAHwv7o9NXMLp5opcwunhzC6eHMLp4cwunhzC6eHMLp4cwunhzC6eHMLp4cwunhzC6eHMLp4cwunhzC6eHMLp4cwunhzC6eHMLp4cwunhzC6eHMLp4cwunhzC6eHMLp4cwunhzC6eHMLp4cwunhzC6eHMLp4cwunhzC6eHMLp4fC/uhnnB55JiYAAPdtsTtqXTBrrAAAAAARitrisknwibzICYkgAAAAAAAAAAAAAAAAAAAAAAAAAAAAAAAAAAAAAExMAAHu22J21Lpg11gAAAAAIxW1xWST4RN5kBMSQAAAAAAAAAAAAAAAAAAAAAAAAAAAAAAAAAAAAACYmAAD3bbE7al0wa6wAAAAAEYra4rJJ8Im8yAmJIAAAAAAAAAAAAAAAAAAAAAAAAAAAAAAAAAAAAABMTAAB7ttidtS6YNdYAAAAACMVtcVkk+ETeZATEkAAAAAAAAAAAAAAAAAAAAAAAAAAAAAAAAAAAAAAmJgAA922xO2pdMGusAAAAABGK2uKySfCJvMgJiSAAAAAAAAAAAAAAAAAAAAAAAAAAAAAAAAAAAAAATEwAAe7bYnbUumDXWAAAAAAjFbXFZJPhE3mQExJABX/f1YKp99LVVHy1VQtVULVVC1VQtVULVVC1VQtVULVVC1VQtVULVVC1VQtVULVVC1VQtVULVVC1VQtVULVVC1VQtVULVVC1VQtVULVVC1VQtVULVVC1VQtVUfbV4Pf8APMPn5mJgAA922xO2pdMGusAAAAABGK2uKySfCJvMgJiSAPhf3R6auYXTzRS5hdPDmF08OYXTw5hdPDmF08OYXTw5hdPDmF08OYXTw5hdPDmF08OYXTw5hdPDmF08OYXTw5hdPDmF08OYXTw5hdPDmF08OYXTw5hdPDmF08OYXTw5hdPDmF08OYXTw5hdPDmF08OYXTw5hdPDmF08OYXTw+F/dDPODzyTEwAAe7bYnbUumDXWAAAAAAjFbXFZJPhE3mQExJAAAAAAAAAAAAAAAAAAAAAAAAAAAAAAAAAAAAAAJiYAAPdtsTtqXTBrrAAAAAARitrisknwibzICYkgAAAAAAAAAAAAAAAAAAAAAAAAAAAAAAAAAAAAAExMAAHu22J21Lpg11gAAAAAIxW1xWST4RN5kBMSQAAAAAAAAAAAAAAAAAAAAAAAAAAAAAAAAAAAAACYmAAD3bbE7al0wa6wAAAAAEYra4rJJ8Im8yAmJIAAAAAAAAAAAAAAAAAAAAAAAAAAAAAAAAAAAAABMTAAB7ttidtS6YNdYAAAAACMVtMtml0wl8uAAAAAAAAAAAAAAAAAAAAAAAAAAAAAAAAAAAAAAAAAAB7trldTT6j9DVUAAAAAAimuPN5+GGTEbigAAAAAAAAAAAAAAAAAAAAAAAAAAAAAAAAAAAAAAAAAANTdeX02e1/Q9PcAAAAAADN5/wCg5TBz9SMMQHwAAAAAAAAAAAAAAAAAAAAAAAAAAAAAAAAAAAAAAABoPNqt1z9jf0AAAAAAAACJFJTbJnn/AD/8/QPHnn4tsH58se2Ax7YDHtgMe2Ax7YDHtgMe2Ax7YDHtgMe2Ax7YDHtgMe2Ax7YDHtgMe2Ax7YDHtgMe2Ax7YDHtgMe2Ax7YDHtgMe2Ax7YDHtgMe2Ax7YDHtgMe2Ax7YDHtgMe2Ax7YDHtgMe2Ax/72Ps/Xrj7m5aKEyaKAAAAAAAAAAAAAAAAAAAAAAAAAAAAAAAAAAAAAAAAAAAAAAAAAAAAAAAAAAAAAAAAAAAAAAAAAAAAAAAAAAAAAAAAAAAAAAAAAAAAAAAAAAAAAAAAAAAAAAAAAAAAAAAAAAAAAAAAAAAAAAAAAAAAAAAAAAAAAAAAAAAAAAAAAAAAAAAAAAAAAAAAAAAAAAAAAAAAAAAAAAAAAAAAAAAAAAAAAAAAH/8QAKRAAAgEDBAICAgMAAwAAAAAAAAQVAxY0AhQwYAEFBhETIBIxQCGQoP/aAAgBAQABBQL/AMROqtT0Gr2NLwSdMk6ZJ0yTpknTJOmSdMk6ZJ0yTpknTJOmSdMk6ZJ0yTpknTJOmSdMk6ZJ0yTpknTJOmSdMk6ZJ0yTpknTJOmSdMk6ZJ0yTpknTJOmSdMk6ZJ0yTpknTJOmSdMk6ZJ0yTpknTJOmSdMk6ZJ0yTpknTJOmSdMk6ZJ0yTpknTJOmSdMk6ZJ0yTpknTJOmSdMk6ZJ0yTpknTJOmSdMk6ZJ0yTpklTJOmSdMk6ZJ0yTpknTJOmSdMk6ZJ0yTpknTJOmSdMkqZJaCjW/No/bz5+hh81V6mrr6tD8+vx4/j4/XVq8aNLDWqt56/o0+amqhR8UNH7PMfz89gSX/Fp/ZnX+Oj2BJf+er9/Zavqn1+hR81tejR40eP39jq+63XvGnzq8rUPFCnwOZPXkFv4+OFzJ66mv+bXxOZPXKVLzW10qfilo4nMnrf9+VF/w6ONzJ62gtyuZPWlV/z6/Hj68cjmT1nRo81NVGj4o6OVzJ6x48efIkt+LTzOZPWE8nncyesJ5PO5k9YTyedzJ6wnk87mT1hPJ53MnrCeTzuZPDUeVo6pNEk0STRJNEk0STRJNEk0STRJNEk0STRJNEk0STRJNEk0STRJNEk0STRJNEk0STRJNEk0STRJNEk0STRJNEk0STRJNEk0STRJNEk0STRJNEk0STRJNEk0STRJNEk0STRJNEk0STRJNEk0STRJNEk0STRJNEk0STRJNEk0STRJNEk0STRJNEk0Sm6tW18KeTzuZPD8i9e3X9tEvkS+RL5EvkS+RL5EvkS+RL5EvkS+RL5EvkS+RL5EvkS+RL5EvkS+RL5EvkS+RL5EvkS+RL5EvkS+RL5EvkS+RL5EvkS+RL5EvkS+RL5EvkS+RL5EvkS+RL5EvkS+RL5EvkS+RL5EvkS+RL5EvkS+RL5EvkS+RL5EvkS+RL5EvkS+RL5EvkS+fHfXt0PbcKeTzuZPWE8nncyesJ5PO5k9YTyedzJ6wnk87mT1hPJ53MnrCeTzuZPWE8nncyesJ5PO5k9YTyedzJ6wnk87mT1hPJ53MnrCeTzuZPD7j5Kz6/2F5ul5ul5ul5ul5ul5ul5ul5ul5ul5ul5ul5ul5ul5ul5ul5ul5ul5ul5ul5ul5ul5ul5ul5ul5ul5ul5ul5ul5ul5ul5ul5ul5ul5ul5ul5ul5ul5ul5ul5ul5ul5ul5ul5ul5ul5ul5ul5ul5ul5ul5ul5ul5ul5ul5ul5ul5ul5ul5ul5ul5ul5ul5ul5ul5ul5ul5ul5unp/krPsPYcKeTzuZPC98bU9gzZyBZyBZyBZyBZyBZyBZyBZyBZyBZyBZyBZyBZyBZyBZyBZyBZyBZyBZyBZyBZyBZyBZyBZyBZyBZyBZyBZyBZyBZyBZyBZyBZyBZyBZyBZyBZyBZyBZyBZyBZyBZyBZyBZyBZyBZyBZyBZyBZyBZyBZyBZyBZyBZyBZyBZyBZyBZyBZyBZyBZyBZyBZyBZyBZyBZyBZyBZyAj8bU9ezwp5PO5k9YTyedzJ6wnk87mT1hPJ53MnrCeTzuZPWE8nncyesJ5PO5k9YTyedzJ6wnk87mT1hPJ53MnrCeTzuZPWE8nncyesJ5PO5k8L3yRT17N4oF4oF4oF4oF4oF4oF4oF4oF4oF4oF4oF4oF4oF4oF4oF4oF4oF4oF4oF4oF4oF4oF4oF4oF4oF4oF4oF4oF4oF4oF4oF4oF4oF4oF4oF4oF4oF4oF4oF4oF4oF4oF4oF4oF4oF4oF4oF4oF4oF4oF4oF4oF4oF4oF4oF4oF4oF4oF4oF4oF4oF4oF4oF4oF4oF4oF4oF4oCPyRT2DPCnk87mTw+4+NM+w9hZjpZjpZjpZjpZjpZjpZjpZjpZjpZjpZjpZjpZjpZjpZjpZjpZjpZjpZjpZjpZjpZjpZjpZjpZjpZjpZjpZjpZjpZjpZjpZjpZjpZjpZjpZjpZjpZjpZjpZjpZjpZjpZjpZjpZjpZjpZjpZjpZjpZjpZjpZjpZjpZjpZjpZjpZjpZjpZjpZjpZjpZjpZjpZjpZjpZjpZjpZjp6f40z6/2HCnk87mT1hPJ53MnrCeTzuZPWE8nncyesJ5PO5k9YTyedzJ6wnk87mT1hPJ53MnrCeTzuZPWE8nncyesJ5PO5k9YTyedzJ4ajqtHVJokmiSaJJokmiSaJJokmiSaJJokmiSaJJokmiSaJJokmiSaJJokmiSaJJokmiSaJJokmiSaJJokmiSaJJokmiSaJJokmiSaJJokmiSaJJokmiSaJJokmiSaJJokmiSaJJokmiSaJJokmiSaJJokmiSaJJokmiSaJJokmiSaJJokmiSaJJokmiU3Va2rhTyedzJ4fkXr26/t4h8iHyIfIh8iHyIfIh8iHyIfIh8iHyIfIh8iHyIfIh8iHyIfIh8iHyIfIh8iHyIfIh8iHyIfIh8iHyIfIh8iHyIfIh8iHyIfIh8iHyIfIh8iHyIfIh8iHyIfIh8iHyIfIh8iHyIfIh8iHyIfIh8iHyIfIh8iHyIfIh8iHyIfIh8iHyIfIh8iHz4769uh7fhTyedzJ6wnk87mT1hPJ53MnrCeTzuZPWE8nncyesJ5PO5k9YTyedzJ6wnk87mT1hPJ53MnrCeTzuZPWE8nncyesJ5PO5k9YTyedzJ4ajqtHVJokmiSaJJokmiSaJJokmiSaJJokmiSaJJokmiSaJJokmiSaJJokmiSaJJokmiSaJJokmiSaJJokmiSaJJokmiSaJJokmiSaJJokmiSaJJokmiSaJJokmiSaJJokmiSaJJokmiSaJJokmiSaJJokmiSaJJokmiSaJJokmiSaJJokmiSaJJokmiU3Va2rhTyedzJ4fkXr26/t4h8iHyIfIh8iHyIfIh8iHyIfIh8iHyIfIh8iHyIfIh8iHyIfIh8iHyIfIh8iHyIfIh8iHyIfIh8iHyIfIh8iHyIfIh8iHyIfIh8iHyIfIh8iHyIfIh8iHyIfIh8iHyIfIh8iHyIfIh8iHyIfIh8iHyIfIh8iHyIfIh8iHyIfIh8iHyIfIh8iHz4769uh7fhTyedzJ6wnk87mT1hPJ53MnrCeTzuZPWE8nncyesJ5PO5k9YTyedzJ6wnk87mT1hPJ53MnrCeTzuZPWE8nn9jp+qvWPXafurz+x0/dLrHrtP1S56+j8lL+ur+P8AnzQ0fjpf4H1uroLf4vPj78MpeafVVkvNQ8ePrx/jYR01DUlW0mrT509P06dWo0pVtQujpp/6POnx5NSdHUbCgbCgbCgbCgbCgbCgbCgbCgbCgbCgbCgbCgbCgbCgbCgbCgbCgbCgbCgbCgbCgbCgbCgbCgbCgbCgbCgbCgbCgbCgbCgbCgbCgbCgbCgbCgbCgbCgbCgbCgbCgbCgbCgbCgbCgbCgbCgbCgbCgbCgbCgbCgbCgbCgbCgbCgbCgbCgbCgbCgbCgbCgbCgbCgbCgbCgbCgbCgbCgbCgbCgbCgbCgbCgbCgbCgaU6Ok8afHj/rz/AP/EADIRAAADBQYHAAIBBAMAAAAAAAABAwQTFVFSAgUzgZGhEBEUITBQsSAxEkFCYXEycID/2gAIAQMBAT8B/wDBlpZOx+zHVoVDq0Kh1aFQ6tCodWhUOrQqHVoVDq0Kh1aFQ6tCodWhUOrQqHVoVDq0Kh1aFQ6tCodWhUOrQqHVoVDq0Kh1aFQ6tCodWhUOrQqHVoVDq0Kh1aFQ6tCodWhUOrQqHVoVDq0Kh1aFQ6tCodWhUOrQqHVoVDq0Kh1SFQ6pCoh1SFRDqkKiHVIVEOqQqIdUhUQ6tCoWFk1P+J8/waGmyz2eZhVrVVP98iHc/XWSO0ZEX9QyM5IWP8nxtWiskZhdU1rZ2j9hd7NyJ7ay/But/wAED9gxsxr2+Z/ovxvPBz4l6xJI1bRWS/qEkySs/wAS/G88HPiXq+5mGJmJGzzP9n+V54OfEvV3ezczeWsvzvPBz4l6plZ7S9v/AB/UWbJWS5F+d54OfEvVXbg5+C88HPiXqrtwc/BeeDnxL1V24OfgvPBz4lwZEbK9sytHyEORq+CHIVfBDkKvghyFXwQ5Cr4IchV8EOQq+CHIVfBDkKvghyFXwQ5Cr4IchV8EOQq+CHIVfBDkKvghyFXwQ5Cr4IchV8EOQq+CHIVfBDkKvghyFXwQ5Cr4IchV8EOQq+CHIVfBDkKvghyFXwQ5Cr4IchV8EOQq+CHIVfBDkKvghyFXwNaFlC0RWT5/jduDn4Lzwc+JcP0O47juO47juO47juO47juO47juO47juO47juO47juO47juO47juO47juO4/f43bg5+C88HPiXqrtwc/BeeDnxL1V24OfgvPBz4l6q7cHPwXng58S9VduDn4Lzwc+Jequ3Bz8F54OfEuDJbRs2zeh8wS2D5glsHzBLYPmCWwfMEtg+YJbB8wS2D5glsHzBLYPmCWwfMEtg+YJbB8wS2D5glsHzBLYPmCWwfMEtg+YJbB8wS2D5glsHzBLYPmCWwfMEtg+YJbB8wS2D5glsHzBLYPmCWwfMEtg+YJbB8wS2D5glsHzBLYPmCWwa7aNq2Tr8btwc/BeeDnxL1V24OfgvPBz4l6q7cHPwXng58S9VduDn4Lzwc+Jequ3Bz8F54OfEvVXbg5+C88HPiXqrtwc/BeeDnxLgyWEbVs3ocsE9w5YJ7hywT3DlgnuHLBPcOWCe4csE9w5YJ7hywT3DlgnuHLBPcOWCe4csE9w5YJ7hywT3DlgnuHLBPcOWCe4csE9w5YJ7hywT3DlgnuHLBPcOWCe4csE9w5YJ7hywT3DlgnuHLBPcOWCe4csE9w5YJ7hywT3DlgnuGuwjZtk6/G7cHPwXng58S9VduDn4Lzwc+Jequ3Bz8F54OfEvVXbg5+C88HPiXqrtwc/BeeDnxL1V24OfgvPBz4lws2bVo+RFzDlSR6BypI9DDlSR6GHKkj0MOVJHoYcqSPQw5UkehhypI9DDlSR6GHKkj0MOVJHoYcqSPQw5UkehhypI9DDlSR6GHKkj0MOVJHoYcqSPQw5UkehhypI9DDlSR6GHKkj0MOVJHoYcqSPQw5UkehhypI9DDlSR6GHKkj0MOVJHoYcqSPQw5UkehhypI9DDlSR6GHKkj0B2bVk+Rly/G7cHPwXng58S4MzQbNaO1y58xFDpEUOkRQ6RFDpEUOkRQ6RFDpEUOkRQ6RFDpEUOkRQ6RFDpEUOkRQ6RFDpEUOkRQ6RFDpEUOkRQ6RFDpEUOkRQ6RFDpEUOkRQ6RFDpEUOkRQ6RFDpEUOkRQ6RFDpDS0dTaK1y5cvxu3Bz8F54OfEvVXbg5+C88HPiXqrtwc/BeeDnxL1V24OfgvPBz4l6q7cHPwXng58S9VduDn4Lzwc+JcLNm1aPkRcw5UkegcqSPQw5UkehhypI9DDlSR6GHKkj0MOVJHoYcqSPQw5UkehhypI9DDlSR6GHKkj0MOVJHoYcqSPQw5UkehhypI9DDlSR6GHKkj0MOVJHoYcqSPQw5UkehhypI9DDlSR6GHKkj0MOVJHoYcqSPQw5UkehhypI9DDlSR6GHKkj0MOVJHoYcqSPQw5UkehhypI9Adm1ZPkZcvxu3Bz8F54OfEuDM0GzWjtcufMRQ6RFDpEUOkRQ6RFDpEUOkRQ6RFDpEUOkRQ6RFDpEUOkRQ6RFDpEUOkRQ6RFDpEUOkRQ6RFDpEUOkRQ6RFDpEUOkRQ6RFDpEUOkRQ6RFDpEUOkRQ6RFDpEUOkRQ6Q0tHU2itcuXL8btwc/BeeDnxL1V24OfgvPBz4l6q7cHPwXng58S9VduDn4Lzwc+Jequ3Bz8F42f5I+tu6ydlHwLWHiR2R3I/V9zMIWHaRWfC3MZ83lgv9+q5BhYzI3lsv9eNVhSVPn+hbus/7TEMVmQhisyEMVmQhisyEMVmQhisyEMVmQhisyEMVmQhisyEMVmQhisyEMVmQhisyEMVmQhisyEMVmQhisyEMVmQhisyEMVmQhisyEMVmQhisyEMVmQhisyEMVmQhisyEMVmQhisyEMVmQhisyEMVmQhisyEMVmQhisyEMVmQhisyFi6z/vPQJMKKR8/3/29/8QAKhEAAQIFBAICAgIDAAAAAAAAAAJRAQMEEhQTMDJhIFARMSEiEEFCcID/2gAIAQIBAT8B/wCDIrTD7NRDmohzUQ5qIc1EOaiHNRDmohzUQ5qIc1EOaiHNRDmohzUQ5qIc1EOaiHNRDmohzUQ5qIc1EOaiHNRDmohzUQ5qIc1EOaiHNRDmohzUQ5qIc1EOaiHNRDmohzVQ5qoc1UOaqHNVDmqhzVQ5qocgqCvrwmTIS4fkVNUr+/X/AJjH4gSpdkP5j+Ba4rV8+wp5Xx+0fCdH4RH2EmXFcfmP141HH16ERXH4EpgiHxDxqOPr5MqyHlUcfXU8r/KPnUcfWypcZkej+vOo4+tpuOxUcfW03HYqOPrabjsVHHxlIguP2Y6HMdDmOhzHQ5jocx0OY6HMdDmOhzHQ5jocx0OY6HMdDmOhzHQ5jocx0OY6HMdDmOhzHQ5jocx0OY6HMdDmOhzHQ5jocx0OY6HMdDmOhzHQ5NRBEYfnxpuOxUcfW03HYqOPrabjsVHH1tNx2Kjj62m47FRx9bTcdio4+tpuOxUcfGVFMI/sXyC+QXyC+QXyC+QXyC+QXyC+QXyC+QXyC+QXyC+QXyC+QXyC+QXyC+QXyC+QXyC+QXyC+QXyC+QXyC+QXyC+QTYpjH9fGm47FRx9bTcdio4+tpuOxUcfW03HYqOPrabjsVHH1tNx2Kjj62m47FRx8ZUExj+xZILJBZILJBZILJBZILJBZILJBZILJBZILJBZILJBZILJBZILJBZILJBZILJBZILJBZILJBZILJBZILJBZILJBNgmEf18abjsVHH1tNx2Kjj62m47FRx9bTcdio4+tpuOxUcfW03HYqOPjCEY/RYpixTFimLFMWKYsUxYpixTFimLFMWKYsUxYpixTFimLFMWKYsUxYpixTFimLFMWKYsUxYpixTFimLFMWKYsUxYpixTFimLFMRhGH4j403HYqOPjLmRlx+jKixldGV0ZXRldGV0ZXRldGV0ZXRldGV0ZXRldGV0ZXRldGV0ZXRldGV0ZXRldGV0ZXRldGV0ZXRldGV0ZXRldGV0ZXRMmakfrxpuOxUcfW03HYqOPrabjsVHH1tNx2Kjj62m47FRx9bTcdio4+MIRj9FimLFMWKYsUxYpixTFimLFMWKYsUxYpixTFimLFMWKYsUxYpixTFimLFMWKYsUxYpixTFimLFMWKYsUxYpixTFimLFMWKYsUxGEYfiPjTcdio4+MuZGXH6MqLGV0ZXRldGV0ZXRldGV0ZXRldGV0ZXRldGV0ZXRldGV0ZXRldGV0ZXRldGV0ZXRldGV0ZXRldGV0ZXRldGV0ZXRldEyZqR+vGm47FRx9bTcdio4+tpuOxUcfW03HYqOPrabjsVEPlHraeHwjYXD5TGB9er+xEPhPxsz5Ufm6Hq5EqPzdHbVIQojStExlOYynMZTmMpzGU5jKcxlOYynMZTmMpzGU5jKcxlOYynMZTmMpzGU5jKcxlOYynMZTmMpzGU5jKcxlOYynMZTmMpzGU5jKcxlOYynMZTmMpzGU5jKcxlOYynIUsf7iJkIT/ALe//8QANRAAAAQGAQMCBQIGAgMAAAAAAAECBAMzNJKT0TJAYKEhMBESMUFRInETIEJSYbFigZCRoP/aAAgBAQAGPwL/AOIn9SiIenxUOKhxUOKhxUOKhxUOKhxUOKhxUOKhxUOKhxUOKhxUOKhxUOKhxUOKhxUOKhxUOKhxUOKhxUOKhxUOKhxUOKhxUOKhxUOKhxUOKhxUOKhxUOKhxUOKhxUOKhxUOKhxUOKhxUOKhxUOKhxUOKhxUOKhxUOKhxUOKhxUOKhxUOKhxUOKhxUOKhxUOKhxUOKhxUOKhxUOKhxUOKhxUOKhxUOKhxUOKhxUOKhxUOKhxUOKh8xEZF/n2Plg/wDsfqWfb/8AxL6j4F/N8T+g+H0T+O4CSn6mPlL+f+Gj6F9e4fmVyP8AnUfcPzq4l9PYJP5PuD4fb7giL0L2CL+0u3yIvqPh9/v7MTt/+Ir6n9PaidvfFXEvbiduklIJJfT24nbvryP6+5E7c/iL/wCvdidt/wDEvqPT3YnbRJT9TBJL3onbPwIvUfMrkfvxO2YfQRO2YfQRO2YfQRO2YfQRO2YfQRO2YfQRPaNEZxBQsvsqIRCsb5Uisb5Uisb5Uisb5Uisb5Uisb5Uisb5Uisb5Uisb5Uisb5Uisb5Uisb5Uisb5Uisb5Uisb5Uisb5Uisb5Uisb5Uisb5Uisb5Uisb5Uisb5Uisb5Uisb5Uisb5Uisb5Uisb5Uisb5Uisb5Uisb5Uisb5Uisb5Uisb5Uisb5Uisb5Uisb5Uisb5Uisb5Uisb5Uisb5Uisb5Uisb5Uisb5Uisb5Uisb5Uisb5Uisb5Uisb5Uisb5Uisb5Uisb5Uisb5Uisb5Uisb5Uisb5Uisb5Uisb5Uisb5Uisb5Uisb5Uisb5Uisb5Uisb5Uisb5Uisb5Uisb5Uisb5Uisb5UgkQXEFaz+yYhH7UPoIntR1wW0aIg/l9UoMy4kKJxiMUbjEYo3GIxRuMRijcYjFG4xGKNxiMUbjEYo3GIxRuMRijcYjFG4xGKNxiMUbjEYo3GIxRuMRijcYjFG4xGKNxiMUbjEYo3GIxRuMRijcYjFG4xGKNxiMUbjEYo3GIxRuMRijcYjFG4xGKNxiMUbjEYo3GIxRuMRijcYjFG4xGKNxiMUbjEYo3GIxRuMRijcYjFG4xGKNxiMUbjEYo3GIxRuMRijcYjFG4xGKNxiMUbjEYo3GIxRuMRijcYjFG4xGKNxiMUbjEYo3GIxRuMRijcYjFG4xGKNxiMUbjEYo3GIxRuMRijcYjFG4xGKNxiMUbjEYgLjNo0NBfN6qQZFxP2ofQRO2YfQRO2YfQRO2YfQRO2YfQRO2YfQRO2YfQRO2YfQRO2YfQRO2YfQRO2YfQRO2YfQRO2YfQRPait4MOCpKPh6qI/x+4kt7VbElvarYkt7VbElvarYkt7VbElvarYkt7VbElvarYkt7VbElvarYkt7VbElvarYkt7VbElvarYkt7VbElvarYkt7VbElvarYkt7VbElvarYkt7VbElvarYkt7VbElvarYkt7VbElvarYkt7VbElvarYkt7VbElvarYkt7VbElvarYkt7VbElvarYkt7VbElvarYkt7VbElvarYkt7VbElvarYkt7VbElvarYkt7VbElvarYkt7VbElvarYkt7VbElvarYkt7VbElvarYkt7VbElvarYkt7VbElvarYkt7VbElvarYkt7VbElvarYkt7VbElvarYkt7VbElvarYkt7VbElvarYkt7VbElvarYkt7VbElvarYhN40OClK/j6pI/wAfv7UPoIntLcRlxiWv+0y+H+hMcXFoTHFxaExxcWhMcXFoTHFxaExxcWhMcXFoTHFxaExxcWhMcXFoTHFxaExxcWhMcXFoTHFxaExxcWhMcXFoTHFxaExxcWhMcXFoTHFxaExxcWhMcXFoTHFxaExxcWhMcXFoTHFxaExxcWhMcXFoTHFxaExxcWhMcXFoTHFxaExxcWhMcXFoTHFxaExxcWhMcXFoTHFxaExxcWhMcXFoTHFxaExxcWhMcXFoTHFxaExxcWhMcXFoTHFxaExxcWhMcXFoTHFxaExxcWhMcXFoTHFxaExxcWhMcXFoTHFxaExxcWhMcXFoTHFxaExxcWhMcXFoTHFxaExxcWhMcXFoTHFxaExxcWhMcXFoTHFxaCHEFcY1o/uMvh/r2ofQRO2YfQRO2YfQRO2YfQRO2YfQRO2YfQRO2YfQRO2YfQRO2YfQRO2YfQRO2YfQRO2YfQRO2YfQRPaW3jIjGtH9pF8P9iW4tLYluLS2Jbi0tiW4tLYluLS2Jbi0tiW4tLYluLS2Jbi0tiW4tLYluLS2Jbi0tiW4tLYluLS2Jbi0tiW4tLYluLS2Jbi0tiW4tLYluLS2Jbi0tiW4tLYluLS2Jbi0tiW4tLYluLS2Jbi0tiW4tLYluLS2Jbi0tiW4tLYluLS2Jbi0tiW4tLYluLS2Jbi0tiW4tLYluLS2Jbi0tiW4tLYluLS2Jbi0tiW4tLYluLS2Jbi0tiW4tLYluLS2Jbi0tiW4tLYluLS2Jbi0tiW4tLYluLS2Jbi0tiW4tLYluLS2Jbi0tiW4tLYluLS2Jbi0tiW4tLYluLS2Jbi0tiW4tLYluLS2Jbi0tiW4tLYluLS2EN4KIxLX/cRfD/ftQ+gie1FcQYkFKV/D0UZ/j9hOb3K0Jze5WhOb3K0Jze5WhOb3K0Jze5WhOb3K0Jze5WhOb3K0Jze5WhOb3K0Jze5WhOb3K0Jze5WhOb3K0Jze5WhOb3K0Jze5WhOb3K0Jze5WhOb3K0Jze5WhOb3K0Jze5WhOb3K0Jze5WhOb3K0Jze5WhOb3K0Jze5WhOb3K0Jze5WhOb3K0Jze5WhOb3K0Jze5WhOb3K0Jze5WhOb3K0Jze5WhOb3K0Jze5WhOb3K0Jze5WhOb3K0Jze5WhOb3K0Jze5WhOb3K0Jze5WhOb3K0Jze5WhOb3K0Jze5WhOb3K0Jze5WhOb3K0Jze5WhOb3K0Jze5WhOb3K0Jze5WhOb3K0Jze5WhOb3K0Jze5WhOb3K0Jze5WhCcRokFSUfH0SZ/j9vah9BE7Zh9BE7Zh9BE7Zh9BE7Zh9BE7Zh9BE7Zh9BE7Zh9BE7Zh9BE7Zh9BE7Zh9BE7Zh9BE9o0RnMFCi+yohEKxvlSKxvlSKxvlSKxvlSKxvlSKxvlSKxvlSKxvlSKxvlSKxvlSKxvlSKxvlSKxvlSKxvlSKxvlSKxvlSKxvlSKxvlSKxvlSKxvlSKxvlSKxvlSKxvlSKxvlSKxvlSKxvlSKxvlSKxvlSKxvlSKxvlSKxvlSKxvlSKxvlSKxvlSKxvlSKxvlSKxvlSKxvlSKxvlSKxvlSKxvlSKxvlSKxvlSKxvlSKxvlSKxvlSKxvlSKxvlSKxvlSKxvlSKxvlSKxvlSKxvlSKxvlSKxvlSKxvlSKxvlSKxvlSKxvlSKxvlSKxvlSKxvlSKxvlSKxvlSKxvlSKxvlSKxvlSKxvlSCRBcwVqP7JiEftQ+gie1HXBbRoiD+X1Sgz/pIUbjEYo3GIxRuMRijcYjFG4xGKNxiMUbjEYo3GIxRuMRijcYjFG4xGKNxiMUbjEYo3GIxRuMRijcYjFG4xGKNxiMUbjEYo3GIxRuMRijcYjFG4xGKNxiMUbjEYo3GIxRuMRijcYjFG4xGKNxiMUbjEYo3GIxRuMRijcYjFG4xGKNxiMUbjEYo3GIxRuMRijcYjFG4xGKNxiMUbjEYo3GIxRuMRijcYjFG4xGKNxiMUbjEYo3GIxRuMRijcYjFG4xGKNxiMUbjEYo3GIxRuMRijcYjFG4xGKNxiMUbjEYo3GIxRuMRijcYjFG4xGKNxiMUbjEYo3GIxAXGbRoaC+b1Ugy/pP2ofQRO2YfQRO2YfQRO2YfQRO2YfQRO2YfQRO2YfQRO2YfQRO2YfQRO2YfQRO2YfQRO2YfQRO2YfQRPaNEZzBQovsqIRCsb5Uisb5Uisb5Uisb5Uisb5Uisb5Uisb5Uisb5Uisb5Uisb5Uisb5Uisb5Uisb5Uisb5Uisb5Uisb5Uisb5Uisb5Uisb5Uisb5Uisb5Uisb5Uisb5Uisb5Uisb5Uisb5Uisb5Uisb5Uisb5Uisb5Uisb5Uisb5Uisb5Uisb5Uisb5Uisb5Uisb5Uisb5Uisb5Uisb5Uisb5Uisb5Uisb5Uisb5Uisb5Uisb5Uisb5Uisb5Uisb5Uisb5Uisb5Uisb5Uisb5Uisb5Uisb5Uisb5Uisb5Uisb5Uisb5Uisb5Uisb5Uisb5Uisb5Uisb5Uisb5Uisb5Uisb5Uisb5UgkQXMFaj+yYhH7UPoIntR1wW0aIg/l9UoM/6SFG4xGKNxiMUbjEYo3GIxRuMRijcYjFG4xGKNxiMUbjEYo3GIxRuMRijcYjFG4xGKNxiMUbjEYo3GIxRuMRijcYjFG4xGKNxiMUbjEYo3GIxRuMRijcYjFG4xGKNxiMUbjEYo3GIxRuMRijcYjFG4xGKNxiMUbjEYo3GIxRuMRijcYjFG4xGKNxiMUbjEYo3GIxRuMRijcYjFG4xGKNxiMUbjEYo3GIxRuMRijcYjFG4xGKNxiMUbjEYo3GIxRuMRijcYjFG4xGKNxiMUbjEYo3GIxRuMRijcYjFG4xGKNxiMUbjEYo3GIxRuMRijcYjFG4xGKNxiMQFxm0aGgvm9VIMv6T9qH0ETtmH0ETtmH0ETtmH0ETtmH0ETtmH0ETtmH0ETtmH0ETtmH0ETtmH0C+2UdASvyXbJq/BdAR/g+2TP8AJ9ApP+B69sJT/jof4iP++1/4i/8Aro/mh+qe1fmieiel+MP9Khx+P7D9RGXZ/wClJmOPw/cfNE/UrqfVBDj5HHyOPkcfI4+Rx8jj5HHyOPkcfI4+Rx8jj5HHyOPkcfI4+Rx8jj5HHyOPkcfI4+Rx8jj5HHyOPkcfI4+Rx8jj5HHyOPkcfI4+Rx8jj5HHyOPkcfI4+Rx8jj5HHyOPkcfI4+Rx8jj5HHyOPkcfI4+Rx8jj5HHyOPkcfI4+Rx8jj5HHyOPkcfI4+Rx8jj5HHyOPkcfI4+Rx8jj5HHyOPkcfI9ED0/8AHn//xAAqEAABAwIGAgIDAQEBAQAAAAAAAcHwobEwYGGR0fERITFRQEFxIIGQoP/aAAgBAQABPyH/AOCHzl74wfKJ8nzuaqWHJ4udGnJ0acnRpydGnJ0acnRpydGnJ0acnRpydGnJ0acnRpydGnJ0acnRpydGnJ0acnRpydGnJ0acnRpydGnJ0acnRpydGnJ0acnRpydGnJ0acnRpydGnJ0acnRpydGnJ0acnRpydGnJ0acnRpydGnJ0acnRpydGnJ0acnRpydGnJ0acnRpydGnJ0acnRpydGnJ0acnRpydGnJ0acnRpydGnJ0acnRpydGnJ0acnRpydGnJ0acnRpydGnJ0acnRpydGnJ0acnRpydGnJ0acnRpydGnJLTk6FOToU5OhTk6FOToU5OhTk6FOToU5OhTk6FOToU5OhTk6FOSChJTkmpyIeQL+P9oo8r6PCvoX7X8Cj7P89edsvq+Hx9z70E0PgRPH+lwv4R+xfI+f4ftNcwIkMCF9v2v3/r0h7cefWYfWfhPZPr/fvPwvhfB8/K+1zB67ul+z14/wB+Fvn3ZgSafh8hBvwekTM7ok35UomPRV/L7XBqEt/r7yz4BH0f8JhVCWy96S/f/VPHhPCYVQlsu/uq+V8fCHoDQmHUJbLiJ6E+VPbI/ZiKhLZc8vqn94tQlstqe35v+tBFJPRExahLZa4yg9xGuNUJbLKr5S/RD0L69tMeoS2WahbfgVCWyzULYTHqEtlmoWwmPUJbLNQthMeoS2WahbCY9Qlss1C2Ex6hLYXiIp5WSf8AFJM5JnJM5JnJM5JnJM5JnJM5JnJM5JnJM5JnJM5JnJM5JnJM5JnJM5JnJM5JnJM5JnJM5JnJM5JnJM5JnJM5JnJM5JnJM5JnJM5JnJM5JnJM5JnJM5JnJM5JnJM5JnJM5JnJM5JnJM5JnJM5JnJM5JnJM5JnJM5JnJM5JnJM5JnPPBTwsl/5/MKoWwmPUJbCQvN4LR6PlE+yYsS1iWsS1iWsS1iWsS1iWsS1iWsS1iWsS1iWsS1iWsS1iWsS1iWsS1iWsS1iWsS1iWsS1iWsS1iWsS1iWsS1iWsS1iWsS1iWsS1iWsS1iWsS1iWsS1iWsS1iWsS1iWsS1iWsS1iWsS1iWsS1iWsS1iWsS1iWsS1iWsS1iWsS1j2XmJR6PlU+8KoWwmPUJbLNQthMeoS2WahbCY9Qlss1C2Ex6hLZZqFsJj1CWyzULYTHqEtlmoWwmPUJbLNQthMeoS2WahbCY9Qlss1C2Ex6hLZZqFsJj1CWyzULYTHqEtlmoWwmPUJbC9GUvkfaVX9PvIuHjx48ePHjx48ePHjx48ePHjx48ePHjx48ePHjx48ePHjx48ePHjx48ePHjx48ePHjx48ePHjx48ePHj7MpfI+lr9v2mFULYTHqEtheAEHlEXonizIu/fv379+/fv379+/fv379+/fv379+/fv379+/fv379+/fv379+/fv379+/fv379+/fv379+/fv379+/f5AQeEVeyeLsKoWwmPUJbLNQthMeoS2WahbCY9Qlss1C2Ex6hLZZqFsJj1CWyzULYTHqEtlmoWwmPUJbLNQthMeoS2WahbCY9Qlss1C2Ex6hLZZqFsJj1CWyzULYTHqEtlmoWwmPUJbC8AIPKqvZPN2Rd+/fv379+/fv379+/fv379+/fv379+/fv379+/fv379+/fv379+/fv379+/fv379+/fv379+/fv379+/yAg8Ki9E82YVQthMeoS2F6MpfI+kov7fWRcPHjx48ePHjx48ePHjx48ePHjx48ePHjx48ePHjx48ePHjx48ePHjx48ePHjx48ePHjx48ePHjx48ePH2ZS+R9rT6ftcKoWwmPUJbLNQthMeoS2WahbCY9Qlss1C2Ex6hLZZqFsJj1CWyzULYTHqEtlmoWwmPUJbLNQthMeoS2WahbCY9Qlss1C2Ex6hLZZqFsJj1CWyzULYTHqEthfOQZZIS5yXOS5yXOS5yXOS5yXOS5yXOS5yXOS5yXOS5yXOS5yXOS5yXOS5yXOS5yXOS5yXOS5yXOS5yXOS5yXOS5yXOS5yXOS5yXOS5yXOS5yXOS5yXOS5yXOS5yXOS5yXOS5yXOS5yXOS5yXOS5yXOS5yXOS5yXOS5yXOS5yXOS5yXOfGQZZLhVC2Ex6hLYSI4vBKL6PlE+yMsR1iOsR1iOsR1iOsR1iOsR1iOsR1iOsR1iOsR1iOsR1iOsR1iOsR1iOsR1iOsR1iOsR1iOsR1iOsR1iOsR1iOsR1iOsR1iOsR1iOsR1iOsR1iOsR1iOsR1iOsR1iOsR1iOsR1iOsR1iOsR1iOsR1iOsR1iOsR1iOsR1iOsR1hFeXklE9Hz4+8KoWwmPUJbLNQthMeoS2WahbCY9Qlss1C2Ex6hLZZqFsJj1CWyzULYTHqEtlmoWwmPUJbLNQthMeoS2WahbCY9Qlss1C2Ex6hLZZqFsJj1CWyzULYTHqEtlmoWwmPUJbC+cgyyQlzkuclzkuclzkuclzkuclzkuclzkuclzkuclzkuclzkuclzkuclzkuclzkuclzkuclzkuclzkuclzkuclzkuclzkuclzkuclzkuclzkuclzkuclzkuclzkuclzkuclzkuclzkuclzkuclzkuclzkuclzkuclzkuclzkuclzkuc+MgyyXCqFsJj1CWwkRxeCUX0fKJ9kZYjrEdYjrEdYjrEdYjrEdYjrEdYjrEdYjrEdYjrEdYjrEdYjrEdYjrEdYjrEdYjrEdYjrEdYjrEdYjrEdYjrEdYjrEdYjrEdYjrEdYjrEdYjrEdYjrEdYjrEdYjrEdYjrEdYjrEdYjrEdYjrEdYjrEdYjrEdYjrEdYjrEdYjrCK8vJKJ6Pnx94VQthMeoS2WahbCY9Qlss1C2Ex6hLZZqFsJj1CWyzULYTHqEtlmoWwmPUJbLNQthMeoS2WahbCY9Qlss1C2Ex6hLZZqFsJjp8f1Txt/r7ymnz/VfO34Eyp5yzMqePwJ7Tzlnz7+BfuZVUKnl4+XnK6PQnz59eqH3MiPP4Pg8pfzlfyeEv5/CQWRf2Ka+z/X7TnKqkn8P9rwJJIn6T8Pwi+lPY32fSjyir6njJ9FlPI8o8Ap9X0h4RPSfjoHtEUsA9Gt3Gt3Gt3Gt3Gt3Gt3Gt3Gt3Gt3Gt3Gt3Gt3Gt3Gt3Gt3Gt3Gt3Gt3Gt3Gt3Gt3Gt3Gt3Gt3Gt3Gt3Gt3Gt3Gt3Gt3Gt3Gt3Gt3Gt3Gt3Gt3Gt3Gt3Gt3Gt3Gt3Gt3Gt3Gt3Gt3Gt3Gt3Gt3Gt3Gt3Gt3Gt3Gt3Gt3Gt3Gt3Gt3Gt3Gt3Gt3Gt3Gt3Gt3Gt3Gt3Gt3Gt3Gt3Gt3Gt3Gt3Gt3Gt3Gt3Gt3Gt3HxB/wB9iD4QiHj/AM8v/9oADAMBAAIAAwAAABAAAAAAAAAAAAAAAAAAAAAAAAAAAAAAAAAAAAAAAAAAAAAAAAAAAAAAAAAAAAAAAAAAAAAAAAAAAAAAAAAAAAAAAAAAAAAAAAAAAAAAAAAAAAAAAAAAAAAAAAAAAAAAAAAAAAAAAAAAAAAAAAAAAAAAAAAAAAAAAAAAAAAAAAAAAAAAAAAAAAAAAAAAAAAAAAAAAAAAAAAAAAAAAAAAAAAAAAAAAAAAAAAAAAAAAAAAAAAAAAAAAAAAAAAAAAAAAAAAAAAAAAAAAATrPPPPPPPPPPPPPPPPPPPPPPPPPPPPPPPPPPPPPPf/AP8A/wD/AP8A7AAADIwQAAAAAAAAAAAAAAAAAAAAAAAAAAAAAAAAAAAAAAAAAAAABdgADaQAAAAAAAAAAAAAAAAAAAAAAAAAAAAAAAAAAAAAAAAAAAAAACAAAMAAAAAAAAAAAAAAAAAAAAAAAAAAAAAAAAAAAAAAAAAAAAAAAEeAAAPwAEQAAAAAAAAAAAAAAAAAAAAAAAAAAAAAAAAAAAAAAAAAAAJgAAAPwAAQAAAAAAAAAAAAAAAAAAAAAAAAAAAAAAAAAAAAAAAAABWwAAAAPwAAQAAAAAAAAAAAAAAAAAAAAAAAAAAAAAAAAAAAAAAAAAAwAAAAAPwAAQAAAAAAAAAAAAAAAAAAAAAAAAAAAAAAAAAAAAAAAABqgAAAAAPwAAQAAAAAAAAAAAAAAAAAAAAAAAAAAAAAAAAAAAAAAAAOwAAAAAAPwAAQAAAAAAAAAAAAAAAAAAAAAAAAAAAAAAAAAAAAAAAAKgAAAAAAPwAAQAAAAAAAAAAAAAAAAAAAAAAAAAAAAAAAAAAAAAAAAKgAAAAAAPwAAQBwwwwwwwwwwwwwwwwwwwwwwwwwwwwwwwwwwwwAAAKgAAAAAAPwAAQAQQQQQQQQQQQQQQQQQQQQQQQQQQQQQQQQQQQQAAAKgAAAAAAPwAAQAAAAAAAAAAAAAAAAAAAAAAAAAAAAAAAAAAAAAAAAKgAAAAAAPwAAQAAAAAAAAAAAAAAAAAAAAAAAAAAAAAAAAAAAAAAAAKgAAAAAAPwAAQAAAAAAAAAAAAAAAAAAAAAAAAAAAAAAAAAAAAAAAAKgAAAAAAPwAAQAAAAAAAAAAAAAAAAAAAAAAAAAAAAAAAAAAAAAAAAKgAAAAAAPwAAQAAAAAAAAAAAAAAAAAAAAAAAAAAAAAAAAAAAAAAAAKgAAAAAAPwAAQA3/AP8A/wD/AP8A/wD/AP8A/wD/AP8A/wD/AP8A/wD/AP8A/wD/AP8A/wD/AP8A/wD/AMMAAACoAAAAAAD8AAEAAAAAAAAAAAAAAAAAAAAAAAAAAAAAAAAAAAAAAAACoAAAAAAD8AAEAAAAAAAAAAAAAAAAAAAAAAAAAAAAAAAAAAAAAAAACoAAAAAAD8AAEAAAAAAAAAAAAAAAAAAAAAAAAAAAAAAAAAAAAAAAACoAAAAAAD8AAEAAAAAAAAAAAAAAAAAAAAAAAAAAAAAAAAAAAAAAAACoAAAAAAD8AAEAAAAAAAAAAAAAAAAAAAAAAAAAAAAAAAAAAAAAAAACoAAAAAAD8AAEAAAAAAAAAAAAAAAAAAAAAAAAAAAAAAAAAAAAAAAACoAAAAAAD8AAEAPf/wD/AP8A/wD/AP8A/wD/AP8A/wD/AP8A/wD/AP8A/wD/AP8A/wD/AP8A/wD/AP8A8MAAACoAAAAAAD8AAEAAAAAAAAAAAAAAAAAAAAAAAAAAAAAAAAAAAAAAAACoAAAAAAD8AAEAAAAAAAAAAAAAAAAAAAAAAAAAAAAAAAAAAAAAAAACoAAAAAAD8AAEAAAAAAAAAAAAAAAAAAAAAAAAAAAAAAAAAAAAAAAACoAAAAAAD8AAEAAAAAAAAAAAAAAAAAAAAAAAAAAAAAAAAAAAAAAAACoAAAAAAD8AAEAAAAAAAAAAAAAAAAAAAAAAAAAAAAAAAAAAAAAAAACoAAAAAAD8AAEAU4MMMMMMMMMMMMMMMMMMMMMMMMMMMMMMMM4EAAACoAAAAAAD8AAEBMIIIIIIIIIIIIIIIIIIIIIIIIIIIIIIIIIKMAAACoAAAAAAD8AAEAAAAAAAAAAAAAAAAAAAAAAAAAAAAAAAAAAAAAAAACoAAAAAAD8AAEAAAAAAAAAAAAAAAAAAAAAAAAAAAAAAAAAAAAAAAACoAAAAAAD8AAEAAAAAAAAAAAAAAAAAAAAAAAAAAAAAAAAAAAAAAAACoAAAAAAD8AAEAAAAAAAAAAAAAAAAAAAAAAAAAAAAAAAAAAAAAAAACoAAAAAAD8AAEAAAAAAAAAAAAAAAAAAAAAAAAAAAAAAAAAAAAAAAACoAAAAAAD8AAEAU4MMMMMMMMMMMMMMMMMMMMMMMMMMMMMMMM4EAAACoAAAAAAD8AAEBMIIIIIIIIIIIIIIIIIIIIIIIIIIIIIIIIIKMAAACoAAAAAAD8AAEAAAAAAAAAAAAAAAAAAAAAAAAAAAAAAAAAAAAAAAACoAAAAAAD8AAEAAAAAAAAAAAAAAAAAAAAAAAAAAAAAAAAAAAAAAAACoAAAAAAD8AAEAAAAAAAAAAAAAAAAAAAAAAAAAAAAAAAAAAAAAAAACoAAAAAAD8AAEAAAAAAAAAAAAAAAAAAAAAAAAAAAAAAAAAAAAAAAACoAAAAAADkABAAAAAAAAAAAAAAAAAAAAAAAAAAAAAAAAAAAAAAAAADcAAAAAACoEAAAAAAAAAAAAAAAAAAAAAAAAAAAAAAAAAAAAAAAAAAXIAAAAAAAAcAAAAAAAAAAAAAAAAAAAAAAAAAAAAAAAAAAAAAAAAAEMAAAAAAAAADaI00000000000000000000000000000000000000LgAAAAAAAAAAAAAAAAAAAAAAAAAAAAAAAAAAAAAAAAAAAAAAAAAAAAAAAAAAAAAAAAAAAAAAAAAAAAAAAAAAAAAAAAAAAAAAAAAAAAAAAAAAAAAAAAAAAAAAAAAAAAAAAAAAAAAAAAAAAAAAAAAAAAAAAAAAAAAAAAAAAAAAAAAAAAAAAAAAAAAAAAAAAAAAAAAAAAAAAAAAAAAAAAAAAAAAAAAAAAD/8QAIxEAAQUBAQACAQUAAAAAAAAAAAERMVBhMCBBUSEQcHGA0f/aAAgBAwEBPxD+hkToYTCYTCYTCYTCYTCYTCYTCYTCYTCYTCYTCYTCYTCYTCYTCYTCYTCYTCYTCZfdVVVWEWG8L5YfQ81AqyV0qYZa7fqsX4sXn8MeH8r/ABYx5EREZPEFgXJP+WCuERgnsfQVx9Ne0FaJlCQUfuCtJuCCtJuCCtJuCCtHsYiIiIiIiIiIiIiIiIiIiIiJ7JuCDyOHDhw4cOHDhw4cOHDhw4cOHDhw4cOHDhw4cOHDhw4fym4IK0m4IK0m4IK0m4IK0m4IK0m4IPIsiHSjqqqqqqqqqqqqqqqqqqqqqqpRksnmbggrSbggrSbggrSbggrSbggrSbggrSbgg8iSKZKOqqqqqqqqqqqqqqqqqqqqqqkGW6eZuCCtJuCCtJuCCtJuCCtJuCCtJuCCtNJyiiiiiiiiiiiiiiiiiiiiiiiiiiiiiiijmkm4IPImSjH/AP8A/wD/AP8A/wD/AP8A/wD/AP8A/wD66p5E3BBWk3BBWk3BBWk3BBWk3BBWk3BBWmk5RRRRRRRRRRRRRRRRRRRRRRRRRRRRRRRRzSTcEHkTJRj/AP8A/wD/AP8A/wD/AP8A/wD/AP8A/wD9dU8ibggrSbggrSbggrSbggrSbgUd+lrXCvyvDYkFRgtWiMEMCTistuI580sP9fURERERERERERERERERERERERERHXzq393v/8QAIBEAAgMBAAMBAQEBAAAAAAAAABExUGEBICEwEGBwgP/aAAgBAgEBPxD/AIMmVf8A/wD/AP8A/wD/AP8A/wD/AP8A/wD/AP8A/wD7bbbfp+/GDt+69zgDlv8AvSMcn9KP0RznOcXPCOvQ/lmjr/Z9nyjrmebHXJc4k55x2rHasdqx+KH1KNttttttttttttttttvg3G+rH5MYxjGMYxjGMYxjGMYxjGMYxjGMYx/ZjtWO1Y7VjtWO1Y/JrAwMDAwMDAwMDAwMDAwMDAwMDAwMDAwMDAwMDAwMDAwMDD7HMdqx2rHasdqx2rHasfk1oaGhoaGhoaGhoaGhoaGhoaGhoaGhoaGhoaGhoaGhoaGhp9jmO1Y7VjtWO1Y7VjtcSSSSSSSSSSSSSSSSSIMfi8c/AYMGDBgwYMGDBgwYMGDBgwYMGDBgwYMGDBgwYMGHvPqY7VjtWO1Y7VjtWO1xJJJJJJJJJJJJJJJJIgx+Lxz8BgwYMGDBgwYMGDBgwYMGDBgwYMGDBgwYMGDBgwYe8+pjtWO1Y7Vj/onZ34+dq3AvvyKPuenaokkkkkkkkkkkkkkkkkkkpe55/r3/xAAsEAABAwQDAAAEBwADAAAAAAABAFHwETBBYCExwSBhgbFAcZGh0eHxEJCg/9oACAEBAAE/EP8AwQAOAqhptZRVlFWUVZRVlFWUVZRVlFWUVZRVlFWUVZRVlP8AmhYIWR7gL6IQIKNgBLYaaqVKlSpUqVKlSpUqVKlSpUqVKlSpUqVKlSpUqVKlSpUqVKlSpUqVKlSpUqVKlSpUqVKlSpUqVKlSpUqVKlSpUqVKlX+JenTp06dOnTp06dOnX+P/ADX+coD6/SULdfKBV8Q/KiNigA6rBSD+gX08Bfsa+Dzo5VgrgKQBj4hgwKkkRgj4E2AV4ZKBOUh3T5NygKD4SeQoZAK3MZ2G+WQCOZJT4q9KhlCIvmeAjWrYAp9MTgYqIABp18VEEq7IOB/dNgq/jkHgIBMEAYWPiJ7/ACVMTUVfyJ/wa/xEaACyKOijj48BTLfiGsiYngj631s4CmW69QRqlXH0kFCvHFjAUy3XRgcn91IcPBUtYCmW64UAyeMACtaoXSuo3yQoAc2sBTLdcIQ4uBuMBTLdbH6TyjhPohZAKgAuYCmW60L2pKIKGgclxdAAdXMBTLdZEyF0OpK+dWAjkEHBqiKA3MBTLdZmXodXsBTLdZmXrpewFMt1mZeul7AUy3WZl66XsBTLdZmXrpewFMt1mZeul7AUy212ndc4qKkbRTJkyZMmTJkyZMmTJkyZMmTJkyZMmTJkyZMmTJkyZMmTJkyZMmTJkyZMmTJkyZMmTJkyZMmTJkyZMmTJnpi65xU0A2ky9dL2Apltrjei/BFKDoRosjhw4cOHDhw4cOHDhw4cOHDhw4cOHDhw4cOHDhw4cOHDhw4cOHDhw4cOHDhw4cOHDhw4cOHDhw4cOHDgF6PP4ArQdgLUy9dL2ApluszL10vYCmW6zMvXS9gKZbrMy9dL2ApluszL10vYCmW6zMvXS9gKZbrMy9dL2ApluszL10vYCmW6zMvXS9gKZbrMy9dL2ApluszL10vYCmW6zMvXS9gKZbrMy9dL2ApltoNzCNj5tTIeNFkaNGjRo0aNGjRo0aNGjRo0aNGjRo0aNGjRo0aNGjRo0aNGjRo0aNGjRo0aNGjRo0aNGjRo0aNGjRo0aB2MIWGl0rgcWpl66XsBTLbXH7bUpjQEqcP0WhQoUKFChQoUKFChQoUKFChQoUKFChQoUKFChQoUKFChQoUKFChQoUKFChQoUKFChQoUKFChQoUKFChQ5/Talc6gBXh9qZeul7AUy3WZl66XsBTLdZmXrpewFMt1mZeul7AUy3WZl66XsBTLdZmXrpewFMt1mZeul7AUy3WZl66XsBTLdZmXrpewFMt1mZeul7AUy3WZl66XsBTLdZmXrpewFMt1mZeul7AUy21z+21KY0JCvDdFoUKFChQoUKFChQoUKFChQoUKFChQoUKFChQoUKFChQoUKFChQoUKFChQoUKFChQoUKFChQoUKFChQoUOP02pXOpBU4bamXrpewFMttBuYAsPNqZDzosjRo0aNGjRo0aNGjRo0aNGjRo0aNGjRo0aNGjRo0aNGjRo0aNGjRo0aNGjRo0aNGjRo0aNGjRo0aNGjQOxgGx0ulcDm1MvXS9gKZbrMy9dL2ApluszL10vYCmW6zMvXS9gKZbrMy9dL2ApluszL10vYCmW6zMvXS9gKZbrMy9dL2ApluszL10vYCmW6zMvXS9gKZbrMy9dL2ApluszL10vYCmW2qJR+eMVFQS2ihQsWLFixYsWLFixYsWLFixYsWLFixYsWLFixYsWLFixYsWLFixYsWLFixYsWLFixYsWLFixYsWLFihQtVo/GGKmgBa1MvXS9gKZba4dou0RSg6EaLoSJEiRIkSJEiRIkSJEiRIkSJEiRIkSJEiRIkSJEiRIkSJEiRIkSJEiRIkSJEiRIkSJEiRIkSJEiRIkSc15X6AqTgFqZeul7AUy3WZl66XsBTLdZmXrpewFMt1mZeul7AUy3WZl66XsBTLdZmXrpewFMt1mZeul7AUy3WZl66XsBTLdZmXrpewFMt1mZeul7AUy3WZl66XsBTLdZmXrpewFMt1mZeul7AUy21RKPzxioqCW0UKFixYsWLFixYsWLFixYsWLFixYsWLFixYsWLFixYsWLFixYsWLFixYsWLFixYsWLFixYsWLFixYsUKFqtH4wxU0ALWpl66XsBTLbXDtF2iKUHQjRdCRIkSJEiRIkSJEiRIkSJEiRIkSJEiRIkSJEiRIkSJEiRIkSJEiRIkSJEiRIkSJEiRIkSJEiRIkSJEiTmvK/QFScAtTL10vYCmW6zMvXS9gKZbrMy9dL2ApluszL10vYCmW6zMvXS9gKZbrMy9dL2ApluszL10vYCmW6zMvXS9gKZbrMy9dL2ApluszL10veIn9tcfiGpjf01zQFL1eK/JUm6KPqI/TWWiCPqY/VV4+l6vKoLjJPyPGssijkfkOPFm8D9lToChKvhHKCg0EHFONXKAdToAIrtwMofKrz9PwB+ajB99XPxUZPv+CEmCOBCDSeZxm/fVQ1kXPGb90HugoAfgyAiuCF59P8rHRer96IlQq2n4hQitjoPR+1VTQD/j/lAD8Kd5AVKDjlEwGfMI3UIz6Uj9Uj9Uj9Uj9Uj9Uj9Uj9Uj9Uj9Uj9Uj9Uj9Uj9Uj9Uj9Uj9Uj9Uj9Uj9Uj9Uj9Uj9Uj9Uj9Uj9Uj9Uj9Uj9Uj9Uj9Uj9Uj9Uj9Uj9Uj9Uj9Uj9Uj9Uj9Uj9Uj9Uj9Uj9Uj9Uj9Uj9Uj9Uj9Uj9Uj9Uj9Uj9Uj9Uj9Uj9Uj9Uj9Uj9Uj9Uj9Uj9Uj9Uj9Uj9Uj9Uj9Uj9Uj9Uj9Uj9Uj9Uj9Uj9Uj9Uj9Uj9RWpR+c/ehAFDLkOCuuyD/14/wD/2Q==;" vertex="1" parent="1">
          <mxGeometry x="280" y="270" width="158.1" height="170" as="geometry" />
        </mxCell>
        <mxCell id="hJNaefQTGlpcFomLB34I-3" value="" style="shape=image;verticalLabelPosition=bottom;labelBackgroundColor=default;verticalAlign=top;aspect=fixed;imageAspect=0;image=data:image/jpeg,/9j/4AAQSkZJRgABAQEASABIAAD/4gIoSUNDX1BST0ZJTEUAAQEAAAIYAAAAAAIQAABtbnRyUkdCIFhZWiAAAAAAAAAAAAAAAABhY3NwAAAAAAAAAAAAAAAAAAAAAAAAAAAAAAAAAAAAAQAA9tYAAQAAAADTLQAAAAAAAAAAAAAAAAAAAAAAAAAAAAAAAAAAAAAAAAAAAAAAAAAAAAAAAAAAAAAAAAAAAAlkZXNjAAAA8AAAAHRyWFlaAAABZAAAABRnWFlaAAABeAAAABRiWFlaAAABjAAAABRyVFJDAAABoAAAAChnVFJDAAABoAAAAChiVFJDAAABoAAAACh3dHB0AAAByAAAABRjcHJ0AAAB3AAAADxtbHVjAAAAAAAAAAEAAAAMZW5VUwAAAFgAAAAcAHMAUgBHAEIAAAAAAAAAAAAAAAAAAAAAAAAAAAAAAAAAAAAAAAAAAAAAAAAAAAAAAAAAAAAAAAAAAAAAAAAAAAAAAAAAAAAAAAAAAAAAAAAAAAAAAAAAAFhZWiAAAAAAAABvogAAOPUAAAOQWFlaIAAAAAAAAGKZAAC3hQAAGNpYWVogAAAAAAAAJKAAAA+EAAC2z3BhcmEAAAAAAAQAAAACZmYAAPKnAAANWQAAE9AAAApbAAAAAAAAAABYWVogAAAAAAAA9tYAAQAAAADTLW1sdWMAAAAAAAAAAQAAAAxlblVTAAAAIAAAABwARwBvAG8AZwBsAGUAIABJAG4AYwAuACAAMgAwADEANv/bAEMABAMDBAMDBAQDBAUEBAUGCgcGBgYGDQkKCAoPDRAQDw0PDhETGBQREhcSDg8VHBUXGRkbGxsQFB0fHRofGBobGv/bAEMBBAUFBgUGDAcHDBoRDxEaGhoaGhoaGhoaGhoaGhoaGhoaGhoaGhoaGhoaGhoaGhoaGhoaGhoaGhoaGhoaGhoaGv/CABEIA4QDRQMBIgACEQEDEQH/xAAcAAEAAwEBAQEBAAAAAAAAAAAABAUIBgcDAgH/xAAUAQEAAAAAAAAAAAAAAAAAAAAA/9oADAMBAAIQAxAAAAH34AAAAAAAAAAAAAAAAAAAAAAAAAAAAAAAAAAAAAAAAAAAAAAAAAAAAAAAAAAAAAAAAAAAAAAAAAAAAAAAAAAAAAAAAAAAAAAAAAAAAAAAAAAAAAAAAAAAAAAAAAAAAAAAAAAAAAAAAAAAAAAAAAAAAAAAAAAAAAAAAAAAAAAAAAAAAAAAAAAAAAAAAAAAAAAAAAAAAAAAAAAAAAAAAAAAAAAAAAAAAAAAAAAAAAAAAAAAAAAAAAAAAAAAAAAAAAAAAAAAAAAAAAAAAAAAAAAAAAAAAAAAAAAAAAAAAAAAAAAAAAAAAAAAAAAAAAAAAAAAFR85/PlirhYq4WKuFirhYq4WKuFirhY/yvFgrxYK8WCvFgrxYK8WCvFgrxYK8WCvFgrxYK8WCvFgrxYK8WCvFgrxYK8WCvFgrxYK8WCvFgrxYK8WCvFgrxYK8WCvFgrxYK8WCvFgrxYK8WCvFgrxYK8WCvFgrxYfusF3L5kdY5+7PqAAABUW/wDDlEuIAAAAAAAAAAAAAAAAAAAAAAAAAAAAAAAAAAAAAAAAAAAAAAPp8x03257oD+gAAA+POdTAKIAAAAAAAAAAAAAAAAAAAAAAAAAAAAAAAAAAAAAAAAAAAAAADouduC0AAAABS1vVc4fAAAAAAAAAAAAAAAAAAAAAAAAAAAAAAAAAAAAAAAAAAAAAACdBlnQgAAAAR5A5X83VKAAAAAAAAAAAAAAAAAAAAAAAAAAAAAAAAAAAAAAAAAAAAAJcSWdCAAAAABQ334OWfb4gAAAAAAAAAAAAAAAAAAAAAAAAAAAAAAAAAAAAAAAAAAACXElnQgAAAAAAic/1dUVAAAAAAAAAAAAAAAAAAAAAAAAAAAAAAAAAAAAAAAAAAAAEuJLOhAAAAAAA/n9HNfCXEAAAAHMdPwp9lKLpSi6UoulKLpSi6UoulKLpSi6Uo9Bm1doAAAAAAAAAAAAAAAAAAAAAAAAAAAAJcSWdCAAAAAAADnokuIAAAAAAAAAAAAAAAAAAAAAAAAAAAAAAAAAAAAAAAAAAAJcSWdCAAAAAAADnokuIAAAAAAAAAAAAAAAAAAAAAAAAAAAAAAAAAAAAAAAAAAAJcSWdCAAAAAAADnokuIAAAAAAAAAAAAAAAAAAAAAAAAAAAAAAAAAAAAAAAAAAAJcSWdCAAAAAAADnokuIAAAAOO7GiPGXajinajinajinajinajinajinajinajinajinajinajinajinajinajinajinajinajinajinajinajinajinajinajinajinajinajinajinajinajinajinajinajinajinajivc+B9EJQAAEuJLOhAAAAAAABz0SXEAAAAAAAAAAAAAAAAAAAAAAAAAAAAAAAAAAAAAAAAAAAEuJLOhAAAAAAABz0SXEAAAAAAAAAAAAAAAAAAAAAAAAAAAAAAAAAAAAAAAAAAAEuJLOhAAAAAAABz0SXEAAAAB48ews+DQbPg0Gz4NBs+DQbPg0Gz4NBs+DQbPg0Gz4NBue6EAAAAAAAAAAAAAAAAAAAAAAAAAAAAS4ks6EAAAAAAAHPRJcQAAAAAAAAAAAAAAAAAAAAAAAAAAAAAAAAAAAAAAAAAAAS4ks6EAAAAAAAHPRJcQAAAAAAAAAAAAAAAAAAAAAAAAAAAAAAAAAAAAAAAAAAAS4ks6EAAAAAAAHPRJcQAAAAEUlKUXSlF0pRdKUXSlF0pRdKUXSlF0pRdKUXSlF0pRdKUXSlF0pRdKUXSlF0pRdKUXSlF0pRdKUXSlF0pRdKUXSlF0pRdKUXSlF0pRdKUXSlF0pRdKUXSltz9gAAS4ks6EAAAAAAAHPRJcQAAAAed+iDJDW4yQ1uMkNbjJDW4yQ1uMkNbjJDW4yQ1uMkNbjJDW4yQ1uMkNbjJDW4yQ1uMkNbjJDW4yQ1uMkNbjJDW4yQ1uMkNbjJDW4yQ1uMkNbjJDW4yQ1uMkNbjJDW4yQ1uMkNbjJDW4yQ1uMkNbjJDW4yRqC3AAACXElnQgAAAAAAA56JLiAAAAAAAAAAAAAAAAAAAAAAAAAAAAAAAAAAAAAAAAAAACXElnQgAAAAAAA56JLiAAAADx72EZ8aDGfGgxnxoMZ8aDGfGgxnxoMZ8aDGfGgxnxoMc/wBAAAAAAAAAAAAAAAAAAAAAAAAAAAAACXElnQgAAAAAAA56JLiAAAAAAAAAAAAAAAAAAAAAAAAAAAAAAAAAAAAAAAAAAACXElnQgAAAAAAA56JLiAAAADx72EZ8aDGfGgxnxoMZ8aDGfGgxnxoMZ8aDGfGgxnxoMc/0AAAAAAAAAAAAAAAAAAAAAAAAAAAAAJcSWdCAAAAAAADnokuIAAAAAAAAAAAAAAAAAAAAAAAAAAAAAAAAAAAAAAAAAAAJcSWdCAAAAAAADnokuIAAAAAAAAAAAAAAAAAAAAAAAAAAAAAAAAAAAAAAAAAAAJcSWdCAAAAAAADnokuIAAAAPO/RIplJp0ZiadGYmnRmJp0ZiadGYmnRmJp0ZiadGYmnRmJp0ZiadGYmnRmJp0ZiadGYmnRmJp0ZiadGYmnRmJp0ZiadGYmnRmJp0ZiadGYmnRmJp0ZiadGYmnRmJp0ZiadGYmnRmJp0ZiadGYmnRmJp0Zi1B+Lc/YAAEuJLOhAAAAAAABz0SXEAAAAAAAAAAAAAAAAAAAAAAAAAAAAAAAAAAAAAAAAAAAEuJLOhAAAAAAABz0SXEAAAAAAAAAAAAAAAAAAAAAAAAAAAAAAAAAAAAAAAAAAAEuJLOhAAAAAAABz0SXEAAAAB5ienPFh7S8WHtLxYe0vFh7S8WHtLxYe0vFh7S8WHtLxYe0qW6AAAAAAAAAAAAAAAAAAAAAAAAAAAAEuJLOhAAAAAAABz0SXEAAAAFXaClXQpV0KVdClXQpV0KVdClXQpV0KVdD4/YAAAAAAAAAAAAAAAAAAAAAAAAAAAAEuJLOhAAAAAAABz0SXEAAAAAAAAAAAAAAAAAAAAAAAAAAAAAAAAAAAAAAAAAAAEuJLOhAAAAAAABz0SXEAAAABxx2LPg0Gz4NBs+DQbPg0Gz4NBs+DQbPg0Gz4NBs+DQbPg0Gz4NBs+DQbPg0Gz4NBs+DQbPg0Gz4NBs+DQbPg0Gz4NBs+DQbPg0Gz4NBs+DQbPg0Gz4NBs+DQbPg0Gz4NBs+DQbPg0Gz4NBs+DQbPg0Gz57mWAAAEuJLOhAAAAAAABz0SXEAAAAFFejzF6cPMXpw8xenDzF6cPMXpw8xenDzF6cPMXpw8xenDzF6cPMXpw8xenDzF6cPMXpw8xenDzF6cPMXpw8xenDzF6cPMXpw8xenDzF6cPMXpw8xenDzF6cPMXpw8xenDzF6cPMXpw8xenDzF6cPMXpw8xenDzF6cPMfRJQAAAS4ks6EAAAAAAAHPRJcQAAAAAAAAAAAAAAAAAAAAAAAAAAAAAAAAAAAAAAAAAAAS4ks6EAAAAAAAHPRJcQAAAAAAAAAAAAAAAAAAAAAAAAAAAAAAAAAAAAAAAAAAAS4ks6EAAAAAAAHPRJcQAAAAeX+oDPjQYz40GM+NBjPjQYz40GM+NBjPjQYz40GM+NBjPjQYz40GM+NBjPjQYz40GM+NBjPjQYz40GM+NBjPjQYz40GPP/QAAAAAAAAAAAAAAAAAAS4ks6EAAAAAAAHPRJcQAAAAAAAAAAAAAAAAAAAAAAAAAAAAAAAAAAAAAAAAAAAS4ks6EAAAAAAAHPRJcQAAAAAAAAAAAAAAAAAAAAAAAAAAAAAAAAAAAAAAAAAAAS4ks6EAAAAAAAHPRJcQAAAAHHHYs+DQbPg0Gz4NBs+DQbPg0Gz4NBs+DQbPg0Gz4NBs+DQbPg0Gz4NBs+DQbPg0Gz4NBs+DQbPg0Gz4NBs+DQbPg0Gz4NBs+DQbPg0Gz4NBs+DQbPg0Gz4NBs+DQbPg0Gz4NBs+DQbPg0Gz4NBs+DQbPnuZYAAAS4ks6EAAAAAAAHPRJcQAAAAUV6PMXpw8xenDzF6cPMXpw8xenDzF6cPMXpw8xenDzF6cPMXpw8xenDzF6cPMXpw8xenDzF6cPMXpw8xenDzF6cPMXpw8xenDzF6cPMXpw8xenDzF6cPMXpw8xenDzF6cPMXpw8xenDzF6cPMXpw8xenDzF6cPMXpw8x9ElAAABLiSzoQAAAAAAAc9ElxAAAAAAAAAAAAAAAAAAAAAAAAAAAAAAAAAAAAAAAAAAABLiSzoQAAAAAAAc9ElxAAAAAAAAAAAAAAAAAAAAAAAAAAAAAAAAAAAAAAAAAAABLiSzoQAAAAAAAc9ElxAAAAAAAAAAAAAAAAAAAAAAAAAAAAAAAAAAAAAAAAAAABLiSzoQAAAAAAAc9ElxAAAAAAAAAAAAAAAAAAAAAAAAAAAAAAAAAAAAAAAAAAABLiTDoAAAAAAAAU9Xf0AAAAAAAAAAAAAAAAAAAAAAAAAAAAAAAAAAAAAAAAAAAAtKu/JoAAAAAAAPxzPUwCiAAAAAAAAAAAAAAAAAAAAAAAAAAAAAAAAAAAAAAAAAAB++miTgAAAAAAAACupuq+BzS2ikN+vyAAAAAAAAAAAAAAAAAAAAAAAAAAAAAAAAAAAAAD9n4TJRV3Mr7gAAAAAAAAAAAAAAAAAAAAAAAAAAAAAAAAAAAAAAAAAAAAAAAAAAAAAAAAAAAAAAAAAAAAAAAAAAAAAAAAAAAAAAAAAAAAAAAAAAAAAAAAAAAAAAAAAAAAAAAAAAAAAAAAAAAAAAAAAAAAAAAAAAAAAAAAAAAAAAAAAAAAAAAAAAAAAAAAAAAAAAAAAAAAAAAAAAAAAAAAAAAAAAAAAAAAAH//EACkQAAICAQMFAAIDAQADAAAAAAAFFRYEAjAzAQMGFGATIBESUEAikKD/2gAIAQEAAQUC/wDjw7mR3O3q9zWe5rPc1nuaz3NZ7ms9zWe5rPc1nuaz3NZ7ms9zWe5rPc1nuaz3NZ7ms9zWe5rPc1nuaz3NZ7ms9zWe5rPc1nuaz3NZ7ms9zWe5rPc1nuaz3NZ7ms9zWe5rPc1nuaz3NZ7ms9zWe5rPc1nuaz3NZ7ms9zWe5rPc1nuaz3NZ7ms9zWe5rPc1nuaz3NZ7ms9zWe5rPc1nuaz3NZ7ms9zWe5rPc1nuaz3NZ7ms9zWe5rPc1nuaz3NZ7ms9zWe5rPc1nuaz3NZ7ms9zWe5rPc1nuaz3NZ7ms9zWe5rOmZ1NOXo6mnuadW13+1+XT8/2sjr2zRr6a+mxldn6DRr66Ovb19O5p2O/2vx6vn+x3fx6tjuaOnc06tPXRq+f7HX+3a2Mjs/k0/P4er/x2cns/wAdfnsXr/Hd2evT+end7f49XzuNzbXd7f5dPXp/Xr85jc23k9n+/T5zG5tzJ7X9OvzeNzbmrT019O5o/Hq+axubd73a/Lp+axubeyu1/PzWNzb/AHtP9O5tZXkK7CyLanLanLanLanLanLanLanLanLanLanLanLanLanLanLanLanLanLanMTL7Odj/wC1jc2/k820w8Uw2WZRVxRVxRVxRVxRVxRVxRVxRVxRVxRVxRVxRVxRVxRVxRVxRVxRVxRVwvwe2txP9rG5t/J5vmMbm38nm+Yxubfyeb5jG5t/J5vmMbm38nm+Yxubfyeb5jG5t/J5tryRr3k+DemBemBemBemBemBemBemBemBemBemBemBemBemBemBemBemBemBemBemBemBemBemBemBemBemBemBemBemBemBemBemBemBemBemBemBemBemBemBemBemBemBemBemBemBemBemBemBemBemBemBemBemBemBemBemBemBemBemBemBemBemBemBemBemBemBemBemBemBemBgd/VlYP743Nv5PNtNVXZcY9FXFFXFFXFFXFFXFFXFFXFFXFFXFFXFFXFFXFFXFFXFFXFFXFFXFFXFFXFFXFFXFFXFFXFFXFFXFFXFFXFFXFFXFFXFFXFFXFFXFFXFFXFFXFFXFFXFFXFFXFFXFFXFFXFFXFFXFFXFFXFFXFFXFFXFFXFFXFFXFFXFFXFFXFFXFFXFFXFFXFFXFFXFFXFFXFFXFFXFFXFFXFFXGN2dONj/vjc2/k83zGNzb+TzfMY3Nv5PN8xjc2/k83zGNzb+TzfMY3Nv5PNtO/FMxkzorAorAorAorAorAorAorAorAorAorAorAorAorAorAorAorAorAorASYPcWrP9rG5t/J5vmMbm38nm+Yxubfyeb5jG5t/J5vmMbm38nm+Yxubfyeba7+T2cXTMLiYXEwuJhcTC4mFxMLiYXEwuJhcTC4mFxMLiYXEwuJhcTC4mFxMLiYXEwuJhcTC4mFxMLiYXEwuJhcTC4mFxMLiYXEwuJhcTC4mFxMLiYXEwuJhcTC4mFxMLiYXEwuJhcTC4mFxMLiYXEwuJhcTC4mFxMLiYXEwuJhcTC4mFxMLiYXEwuJhcTC4mFxMLiYXEwuNGvT3NH743Nv5PNteZY3eyVkOxIdiQ7Eh2JDsSHYkOxIdiQ7Eh2JDsSHYkOxIdiQ7Eh2JDsSHYkOxIdiQ7Eh2JDsSHYkOxIdiQ7Eh2JDsSHYkOxIdiQ7Eh2JDsSHYkOxIdiQ7Eh2JDsSHYkOxIdiQ7Eh2JDsSHYkOxIdiQ7Eh2JDsSHYkOxIdiQ7Eh2JDsSHYkOxIdiQ7Eh2JDsSHYkOxIdiQ7EV6NXbWfvjc2/k83zGNzb+TzfMY3Nv5PN8xjc2/k8207z33ZaSnlJKeUkp5SSnlJKeUkp5SSnlJKeUkp5SSnlJKeUkp5SSnlJKeUkp5SSnlJKeUkp5SJO7k95Z/tY3Nv5PN8xjc2/k83zGNzb+TzfMY3Nv5PNtO8992Wkp5SSnlJKeUkp5SSnlJKeUkp5SSnlJKeUkp5SSnlJKeUkp5SSnlJKeUkp5SSnlJKeUiTu5PeWf7WNzb+TzfMY3Nv5PN8xjc2/k83zGNzb+TzfMY3Nv5PN8xjc2/k8215lk97GWTDEmGJMMSYYkwxJhiTDEmGJMMSYYkwxJhiTDEmGJMMSYYkwxJhiTDEmGJMMSYYkwxJhiTDEmGJMMSYYkwxJhiTDEmGJMMSYYkwxJhiTDEmGJMMSYYkwxJhiTDEmGJMMSYYkwxJhiTDEmGJMMSYYkwxJhiTDEmGJMMSYYkwxJhiTDEmGJMMSYYkwxJhiTDEmGJMMRXr1dxZ++Nzb+TzbXfxuzlaYdcQ64h1xDriHXEOuIdcQ64h1xDriHXEOuIdcQ64h1xDriHXEOuIdcQ64h1xDriHXEOuIdcQ64h1xDriHXEOuIdcQ64h1xDriHXEOuIdcQ64h1xDriHXEOuIdcQ64h1xDriHXEOuIdcQ64h1xDriHXEOuIdcQ64h1xDriHXEOuIdcQ64h1xDriHXEOuIdcQ64h1xo0ae3o/fG5t/J5vmMbm38nm+Yxubfyeb5jG5t/J5vmMbm38nm+YxubfyebabeXReffy/l/L+X8v5fy/l/L+X8v5fy/l/L+X8v4pz5TA/2sbm38nm2u6uw+/wByHXEOuIdcQ64h1xDriHXEOuIdcQ64h1xDriHXEOuIdcQ64h1xDrjtdrt9jt/7WNzb+TzfMY3Nv5PN8xjc2/k83zGNzb+TzfMY3Nv5PNteSNe8nwb0wL0wL0wL0wL0wL0wL0wL0wL0wL0wL0wL0wL0wL0wL0wL0wL0wL0wL0wL0wL0wL0wL0wL0wL0wL0wL0wL0wL0wL0wL0wL0wL0wL0wL0wL0wL0wL0wL0wL0wL0wL0wL0wL0wL0wL0wL0wL0wL0wL0wL0wL0wL0wL0wL0wL0wL0wL0wL0wL0wL0wL0wL0wL0wL0wL0wL0wL0wL0wMDv6srB/fG5t/J5tpqq7LjHoq4oq4oq4oq4oq4oq4oq4oq4oq4oq4oq4oq4oq4oq4oq4oq4oq4oq4oq4oq4oq4oq4oq4oq4oq4oq4oq4oq4oq4oq4oq4oq4oq4oq4oq4oq4oq4oq4oq4oq4oq4oq4oq4oq4oq4oq4oq4oq4oq4oq4oq4oq4oq4oq4oq4oq4oq4oq4oq4oq4oq4oq4oq4oq4oq4oq4oq4oq4oq4xuzpxsf8AfG5t/J5vmMbm38nm+Yxubfyeb5jG5t/J5vmMbm38nm+Yxubfyeba8jzHOPnSnlJKeUkp5SSnlJKeUkp5SSnlJKeUkp5SSnlJKeUkp5SSnlJKeUkp5SSnlJKeUkp5SSnlJKeUkp5SSnlJKeUkp5SSnlJKeUkp5SSnlJKeUkp5SSnlJKeUkp5SSnlJKeUkp5SSnlJKeUkp5SSnlJ4xlNMn/Fxubfyeb5jG5t/J5vmMbm38nm+Yxubfyeb5jG5t/J5vmMbm38nm+Yxubfyeba8ka95Pg3pgXpgXpgXpgXpgXpgXpgXpgXpgXpgXpgXpgXpgXpgXpgXpgXpgXpgXpgXpgXpgXpgXpgXpgXpgXpgXpgXpgXpgXpgXpgXpgXpgXpgXpgXpgXpgXpgXpgXpgXpgXpgXpgXpgXpgXpgXpgXpgXpgXpgXpgXpgXpgXpgXpgXpgXpgXpgXpgXpgXpgXpgXpgXpgXpgXpgXpgXpgXpgYHf1ZWD++Nzb+TzbTVV2XGPRVxRVxRVxRVxRVxRVxRVxRVxRVxRVxRVxRVxRVxRVxRVxRVxRVxRVxRVxRVxRVxRVxRVxRVxRVxRVxRVxRVxRVxRVxRVxRVxRVxRVxRVxRVxRVxRVxRVxRVxRVxRVxRVxRVxRVxRVxRVxRVxRVxRVxRVxRVxRVxRVxRVxRVxRVxRVxRVxRVxRVxRVxRVxRVxRVxRVxRVxRVxRVxjdnTjY/wC+Nzb+TzfMY3Nv5PN8xjc2/k83zGNzb+TzfMY3Nv5PN8xjc2/k83zGNzb+TzfMY3Nv5PN8xjc2/k9P473zGLzb+Zp+Zw9P/Blaf57XzGL0/jtb+rp/bTr09dGr5bRo669Wnp/Xp/wZHa/Jp+Wx+1+PT/xd7G6azrp66evyXTT11dezjdNH/Lr7WnuGrDNWN3Oh109dPxvTT11GnG7nU04Zo7ent9P/AFx//8QAFBEBAAAAAAAAAAAAAAAAAAAAsP/aAAgBAwEBPwE83//EABQRAQAAAAAAAAAAAAAAAAAAALD/2gAIAQIBAT8BPN//xAA7EAABAgUBBwMCBQMDAwUAAAACAAQzNJKT0gEDMTJAYJTiERIwIqMTNUFh0SFQUQVx8EKBkRQVkKDB/9oACAEBAAY/Av8A6eHproK3CtwrcK3CtwrcK3CtwrcK3CtwrcK3CtwrcK3CtwrcK3CtwrcK3CtwrcK3CtwrcK3CtwrcK3CtwrcK3CtwrcK3CtwrcK3CtwrcK3CtwrcK3CtwrcK3CtwrcK3CtwrcK3CtwrcK3CtwrcK3CtwrcK3CtwrcK3CtwrcK3CtwrcK3CtwrcK3CtwrcK3CtwrcK3CtwrcK3CtwrcK3CtwrcK3Ctwr6h0X9fXRfSWnxfv1B6a/10XqPw+8f+/UHqK9dPh/pu16g/b4fTVa6a9QD8PrpxadQFp+/xe8d369P/AO/xf1Xp+n6dPD8fovTXp0fk9w7+nR+X3Dw69OD8vpqvTXpsfm/fTd02Pz+8f+/TQ8gWmm74z2Dlz+HtR4h9ha//AIpz7R/wpz7R/wAKc+0f8Kc+0f8ACnPtH/CnPtH/AApz7R/wpz7R/wAKc+0f8Kc+0f8ACnPtH/CnPtH/AApz7R/wpz7R/wAKc+0f8Kc+0f8ACnPtH/CnPtH/AAg27U/xNkfDr6en97HkC+PaOtvtNuO02np66CWnpu9P8KM6rHFRnVY4qM6rHFRnVY4qM6rHFRnVY4qM6rHFRnVY4qM6rHFRnVY4qM6rHFRnVY4qM6rHFRnVY4qM6rHFRnVY4qM6rHFRnVY4rZtdhqRbPZ+vpqW/f6/3seQLpkeQLpkeQLpkeQLpkeQLpkeQLpkeQL4w27YQIi2ugfXp+2qgtaSyUFrSWSgtaSyUFrSWSgtaSyUFrSWSgtaSyUFrSWSgtaSyUFrSWSgtaSyUFrSWSgtaSyUFrSWSgtaSyUFrSWSgtaSyUFrSWSgtaSyUFrSWSgtaSyUFrSWSgtaSyUFrSWSgtaSyUFrSWSgtaSyUFrSWSgtaSyUFrSWSgtaSyUFrSWSgtaSyUFrSWSgtaSyUFrSWSgtaSyUFrSWSgtaSyUFrSWSgtaSyUFrSWSgtaSyUFrSWSgtaSyUFrSWSgtaSyUFrSWSgtaSyUFrSWSgtaSyUFrSWSgtaSyUFrSWSgtaSyUFrSWSgtaSyUFrSWSgtaSyUFrSWSgtaSyUFrSWSgtaSyUFrSWSgtaSyUFrSWSgtaSyUFrSWSgtaSyTbb7T00Pa7IT19P30+AeQL4x2DkjEBP3/Rr/z/ACozqscVGdVjiozqscVGdVjiozqscVGdVjiozqscVGdVjiozqscVGdVjiozqscVGdVjiozqscVGdVjiozqscVGdVjiozqscVGdVjiozqscVGdVjiozqscVGdVjiozqscVGdVjiozqscVGdVjiozqscVGdVjiozqscVGdVjiozqscVGdVjiozqscVGdVjiozqscVGdVjiozqscVGdVjiozqscVGdVjiozqscVGdVjiozqscVGdVjiozqscVGdVjiozqscVGdVjiozqscVGdVjiozqscVGdVjiozqscVGdVjiozqscVGdVjiozqscVGdVjiozqscVGdVjiozqscVGdVjiozqscVGdVjiozqscVGdVjiozqscVGdVjiozqscVstgHrqGyDQNPX9vgHkC6ZHkC6ZHkC6ZHkC6ZHkC6ZHkC+PbOthtNgOzP2+mhlr67tNP8KM1qLFRmtRYqM1qLFRmtRYqM1qLFRmtRYqM1qLFRmtRYqM1qLFRmtRYqM1qLFRmtRYqM1qLFRmtRYqM1qLFRmtRYqM1qLFRmtRYrYNdvqJbTZ+711Ddxa6/wB7HkC6ZHkC6ZHkC6ZHkC6ZHkC6ZHkC+P3udqGxHd6mXtU+1vip9rfFT7W+Kn2t8VPtb4qfa3xU+1vip9rfFT7W+Kn2t8VPtb4qfa3xU+1vip9rfFT7W+Kn2t8VPtb4qfa3xU+1vip9rfFT7W+Kn2t8VPtb4qfa3xU+1vip9rfFT7W+Kn2t8VPtb4qfa3xU+1vip9rfFT7W+Kn2t8VPtb4qfa3xU+1vip9rfFT7W+Kn2t8VPtb4qfa3xU+1vip9rfFT7W+Kn2t8VPtb4qfa3xU+1vip9rfFT7W+Kn2t8VPtb4qfa3xU+1vip9rfFT7W+Kn2t8VPtb4qfa3xU+1vip9rfFT7W+Kn2t8VPtb4qfa3xU+1vip9rfFT7W+K0PZ66EJaeumun6/APIF8eyBtsj2xfj6a+gD7v+nVSDqySkHVklIOrJKQdWSUg6skpB1ZJSDqySkHVklIOrJKQdWSUg6skpB1ZJSDqySkHVklIOrJKQdWSUg6skpB1ZJSDqySkHVklIOrJKQdWSUg6skpB1ZJSDqySkHVklIOrJKQdWSUg6skpB1ZJSDqySkHVklIOrJKQdWSUg6skpB1ZJSDqySkHVklIOrJKQdWSUg6skpB1ZJSDqySkHVklIOrJKQdWSUg6skpB1ZJSDqySkHVklIOrJKQdWSUg6skpB1ZJSDqySkHVklIOrJKQdWSUg6skpB1ZJSDqySkHVklIOrJKQdWSUg6skpB1ZJSDqySkHVklIOrJJkG001Eh2Aaajr+n0/APIF0yPIF0yPIF0yPIF8e3D/Th2+rbT2+z2tvdpw6fr6Lgddn4rgddn4rgddn4rgddn4rgddn4rgddn4rgddn4rgddn4rgddn4rgddn4rgddn4rgddn4rgddn4rgddn4rgddn4rgddn4rgddn4rgddn4rYH/qOhaOdfd7/cHt136/p/ex5AumR5AumR5AumR5Avj24f6cO31bae32e1t7tOHT9fRcDrs/FcDrs/FcDrs/FcDrs/FcDrs/FcDrs/FcDrs/FcDrs/FcDrs/FcDrs/FcDrs/FcDrs/FcDrs/FcDrs/FcDrs/FcDrs/FcDrs/FcDrs/FbA/8AUdC0c6+73+4Pbrv1/T+9jyBdMjyBdMjyBdMjyBdMjyBdMjyBfHsjbbU9iX4+mnqBe3/p1U+6vEp91eJT7q8Sn3V4lPurxKfdXiU+6vEp91eJT7q8Sn3V4lPurxKfdXiU+6vEp91eJT7q8Sn3V4lPurxKfdXiU+6vEp91eJT7q8Sn3V4lPurxKfdXiU+6vEp91eJT7q8Sn3V4lPurxKfdXiU+6vEp91eJT7q8Sn3V4lPurxKfdXiU+6vEp91eJT7q8Sn3V4lPurxKfdXiU+6vEp91eJT7q8Sn3V4lPurxKfdXiU+6vEp91eJT7q8Sn3V4lPurxKfdXiU+6vEp91eJT7q8Sn3V4lPurxKfdXiU+6vEp91eJT7q8Sn3V4lPurxKfdXiU+6vEp91eJT7q8SZHtNdSItgGupa/r9PwDyBfH7HOyDbDv8AQx9ykGtgVINbAqQa2BUg1sCpBrYFSDWwKkGtgVINbAqQa2BUg1sCpBrYFSDWwKkGtgVINbAqQa2BUg1sCpBrYFSDWwKkGtgVINbAqQa2BUg1sCpBrYFSDWwKkGtgVINbAqQa2BUg1sCpBrYFSDWwKkGtgVINbAqQa2BUg1sCpBrYFSDWwKkGtgVINbAqQa2BUg1sCpBrYFSDWwKkGtgVINbAqQa2BUg1sCpBrYFSDWwKkGtgVINbAqQa2BUg1sCpBrYFSDWwKkGtgVINbAqQa2BUg1sCpBrYFSDWwKkGtgVINbAqQa2BUg1sCpBrYFSDWwKkGtgVINbAqQa2BWgbPTQRHT0000/T4B5AumR5AumR5AumR5AumR5AumR5Avj2zX/0f4v4fp9X4vp6+unr/hfl/wB/xX5f9/xX5f8Af8V+X/f8V+X/AH/Ffl/3/Ffl/wB/xX5f9/xX5f8Af8V+X/f8V+X/AH/Ffl/3/Ffl/wB/xX5f9/xX5f8Af8V+X/f8V+X/AH/Ffl/3/FbF1+H+F+J6/T6+vp6a+n97HkC+PXabZpsNptNd5Fsh111Ug1sCpBrYFSDWwKkGtgVINbAqQa2BUg1sCpBrYFSDWwKkGtgVINbAqQa2BUg1sCpBrYFSDWwKkGtgVINbAqQa2BWmz2ADs9npuEdPTTT+9jyBdMjyBdMjyBdMjyBdMjyBfGG3bCBEW10D69P21UFrSWSgtaSyUFrSWSgtaSyUFrSWSgtaSyUFrSWSgtaSyUFrSWSgtaSyUFrSWSgtaSyUFrSWSgtaSyUFrSWSgtaSyUFrSWSgtaSyUFrSWSgtaSyUFrSWSgtaSyUFrSWSgtaSyUFrSWSgtaSyUFrSWSgtaSyUFrSWSgtaSyUFrSWSgtaSyUFrSWSgtaSyUFrSWSgtaSyUFrSWSgtaSyUFrSWSgtaSyUFrSWSgtaSyUFrSWSgtaSyUFrSWSgtaSyUFrSWSgtaSyUFrSWSgtaSyUFrSWSgtaSyUFrSWSgtaSyUFrSWSgtaSyUFrSWSgtaSyUFrSWSgtaSyUFrSWSgtaSyUFrSWSgtaSyUFrSWSgtaSyUFrSWSgtaSyUFrSWSbbfaemh7XZCevp++nwDyBfGOwckYgJ+/wCjX/n+VGdVjiozqscVGdVjiozqscVGdVjiozqscVGdVjiozqscVGdVjiozqscVGdVjiozqscVGdVjiozqscVGdVjiozqscVGdVjiozqscVGdVjiozqscVGdVjiozqscVGdVjiozqscVGdVjiozqscVGdVjiozqscVGdVjiozqscVGdVjiozqscVGdVjiozqscVGdVjiozqscVGdVjiozqscVGdVjiozqscVGdVjiozqscVGdVjiozqscVGdVjiozqscVGdVjiozqscVGdVjiozqscVGdVjiozqscVGdVjiozqscVGdVjiozqscVGdVjiozqscVGdVjiozqscVGdVjiozqscVGdVjiozqscVGdVjiozqscVGdVjiozqscVGdVjitlsA9dQ2QaBp6/t8A8gXTI8gXTI8gXTI8gXTI8gXTI8gXxgP+kjttdj+Fprr7Nh7/q9df2XA67PxXA67PxXA67PxXA67PxXA67PxXA67PxXA67PxXA67PxXA67PxXA67PxXA67PxXA67PxXA67PxXA67PxXA67PxXA67PxXA67PxXA67PxXA67PxXA67PxXA67PxXA67PxXA67PxXA67PxXA67PxXA67PxXA67PxXA67PxXA67PxXA67PxXA67PxXA67PxXA67PxXA67PxXA67PxXA67PxXA67PxXA67PxXA67PxXA67PxTr/wB402unt9v4f4my9n+fX9P7KPIF0yPIF0yPIF0yPIF0yPIF0yPIF0yPIF8YbdsIERbXQPr0/bVQWtJZKC1pLJQWtJZKC1pLJQWtJZKC1pLJQWtJZKC1pLJQWtJZKC1pLJQWtJZKC1pLJQWtJZKC1pLJQWtJZKC1pLJQWtJZKC1pLJQWtJZKC1pLJQWtJZKC1pLJQWtJZKC1pLJQWtJZKC1pLJQWtJZKC1pLJQWtJZKC1pLJQWtJZKC1pLJQWtJZKC1pLJQWtJZKC1pLJQWtJZKC1pLJQWtJZKC1pLJQWtJZKC1pLJQWtJZKC1pLJQWtJZKC1pLJQWtJZKC1pLJQWtJZKC1pLJQWtJZKC1pLJQWtJZKC1pLJQWtJZKC1pLJQWtJZKC1pLJQWtJZKC1pLJQWtJZKC1pLJQWtJZKC1pLJQWtJZKC1pLJQWtJZKC1pLJQWtJZJtt9p6aHtdkJ6+n76fAPIF8Y7ByRiAn7/o1/5/lRnVY4qM6rHFRnVY4qM6rHFRnVY4qM6rHFRnVY4qM6rHFRnVY4qM6rHFRnVY4qM6rHFRnVY4qM6rHFRnVY4qM6rHFRnVY4qM6rHFRnVY4qM6rHFRnVY4qM6rHFRnVY4qM6rHFRnVY4qM6rHFRnVY4qM6rHFRnVY4qM6rHFRnVY4qM6rHFRnVY4qM6rHFRnVY4qM6rHFRnVY4qM6rHFRnVY4qM6rHFRnVY4qM6rHFRnVY4qM6rHFRnVY4qM6rHFRnVY4qM6rHFRnVY4qM6rHFRnVY4qM6rHFRnVY4qM6rHFRnVY4qM6rHFRnVY4qM6rHFRnVY4qM6rHFRnVY4qM6rHFRnVY4qM6rHFRnVY4qM6rHFRnVY4qM6rHFRnVY4rZbAPXUNkGgaev7fAPIF0yPIF0yPIF0yPIF0yPIF0yPIF0yPIF0yPIF0yPIa9M6cgOvTJa8h/t0zp+/Ia6f5WumvS+mmi00/xyPrpxadL+uvFryfqH9NV6F0n6aL1L+uvK/UvpL/AMrd6/7L6tNdOjfp011W70X1F/4X0/8Axyf/xAArEAABBAEEAgIBBQADAQAAAAABALHB8PERIUBgMDFRYUFQcYGRoZCg0eH/2gAIAQEAAT8h/wCngW/VbH0scscscscscscscscscscscscscscscscsMVhisMVhisMVhisMVhisMVhisMVhisMVhisMVhisMVhisMVhisMVhisMVhisMVhisMVhisMVhisMVhisMVhisMVhisMVhisMVhisMVhisMVhisMVhisMVhisMVhisMVhisMVhisMVhisMVhisMVhisMVhisMVhisMVhisMVhisMVhisMVhisMVhisMVhigfY/Y6KAq9mP58QNnYfRhEEag7aH1ppoevmtz41qZ1Hh1Nv9mn+9g1OafP2gn8/gI12O6/ol/52Au976a/X2tQfvwFP5l7wwf7/APnYNdfA0/rw7B/B9hfR6/8AcRq/vxawLd19pg/Akfz4gGG4Ebo+u3Ov5687bxhKex/B+0cgNCDv1123k2i2+x8jrrtvLhQPXHbeUhHqCN0c/q/H2Otu28wtH7iRBBII0IO/8dadt59Fobj00607bznf2gBWw7ePazP0TUa+xoOx4aKKKKKKKKKKKKKKKKKO4EW61aHQ7EAjcab6N+tu24DNh49rTAuwA2JH0N9+HAgQIECBAgQIECBAgQIECBueAEEtSL0APZOm3627bgM2HWXbcBmw6y7bgM2HWXbcBmw6y7bgM2HWXbcBmw6y7bgM2HjKL4A5GmprsR8dGWLFixYsWLFixYsWLFixYsWLFixYsWLFixYsWLFixYsWLFixYsWLFixYsWLFixYsWLFixYsWLFixYsWLFgQBGjoNQEjQ+hqfknTwO24DNh4xi8ahAk6EabjTT4U9FgQIECBAgQIECBAgQIECBAgQIECBAgQIECBAgQIECBAgQIECBAgQIECBAgQIECBAgQIECBAgQIECBAgQIBVTCnqSA0/vT/fA7bgM2HWXbcBmw6y7bgM2HWXbcBmw6y7bgM2HWXbcBmw8e15kHYZ6L44axYsWLFixYsWLFixYsWLFm+xgCS1A9gH0fgfrbtuAzYdZdtwGbDrLtuAzYdZdtwGbDrLtuAzYdZdtwGbDxgJdIAcCSPWpP1rprroFRJVElUSVRJVElUSVRJVElUSVRJVElUSVRJVElUSVRJVElUSVRJVElUSVRJVElUSVRJVElUSVRJVElUSVRJVElUSVRJVElUSVRJVElUSVRJVElUSVRJVElUSVRJVElUSVRJVElUSVRJVElUSVRJVElUSVRJVElUSVRJVElUSVRJVElUSVRJVElUSUAT4vqAIBBBGxH3roR4HbcBmw8YHPKPIDR10A103/ANVmhWaFZoVmhWaFZoVmhWaFZoVmhWaFZoVmhWaFZoVmhWaFZoVmhWaFZoVmhWaFZoVmhWaFZoVmhWaFZoVmhWaFZoVmhWaFZoVmhWaFZoVmhWaFZoVmhWaFZoVmhWaFZoVmhWaFZoVmhWaFZoVmhWaFZoVmhWaFZoVmhWaFZoVmhWaFZoVmhWaFZoQiPa6EgG3z+/5B8DtuAzYdZdtwGbDrLtuAzYdZdtwGbDx7m2wW5qaauu5KxZMWTFkxZMWTFkxZMWTFkxZMWTFkxZMWTFkxZMWTFk2PmAtoQ9Bptp+P1t23AZsOsu24DNh1l23AZsOsu24DNh49zbYLc1NNXXclYsmLJiyYsmLJiyYsmLJiyYsmLJiyYsmLJiyYsmLJiybHzAW0Ieg020/H627bgM2HWXbcBmw6y7bgM2HWXbcBmw6y7bgM2HWXbcBmw8ZHPKPIjV01B102/wAVmlWaVZpVmlWaVZpVmlWaVZpVmlWaVZpVmlWaVZpVmlWaVZpVmlWaVZpVmlWaVZpVmlWaVZpVmlWaVZpVmlWaVZpVmlWaVZpVmlWaVZpVmlWaVZpVmlWaVZpVmlWaVZpVmlWaVZpVmlWaVZpVmlWaVZpVmlWaVZpVmlWaVZpVmlWaVZpVmlWaVZpRiPa6kiG/z+/5J8DtuAzYeMBDpADgCB70I+9NdNdCqJCokKiQqJCokKiQqJCokKiQqJCokKiQqJCokKiQqJCokKiQqJCokKiQqJCokKiQqJCokKiQqJCokKiQqJCokKiQqJCokKiQqJCokKiQqJCokKiQqJCokKiQqJCokKiQqJCokKiQqJCokKiQqJCokKiQqJCokKiQqJCokKiQqJCokKiQqJCokKiQgCfB9AAAAAA2A+tNAPA7bgM2HWXbcBmw6y7bgM2HWXbcBmw6y7bgM2HWXbcBmw8bKjz6a/nThszMzMzMzMzMzOqPPt/Gv627bgM2Hj09e7EnrU+z6CokKiQqJCokKiQqJCokKiQqJCokKiQqJCokKiQqJCokKiQqJC19O6H/ABBsNzvtud/1t23AZsOsu24DNh1l23AZsOsu24DNh1l23AZsPGUXwByNNTXYj46MsWLFixYsWLFixYsWLFixYsWLFixYsWLFixYsWLFixYsWLFixYsWLFixYsWLFixYsWLFixYsWLFixYsWLAgCNHQagJGh9DU/JOngdtwGbDxjF41CBJ0I03Gmnwp6LAgQIECBAgQIECBAgQIECBAgQIECBAgQIECBAgQIECBAgQIECBAgQIECBAgQIECBAgQIECBAgQIECBAgQCqmFPUkBp/en++B23AZsOsu24DNh1l23AZsOsu24DNh1l23AZsOsu24DNh4zorpOPyiS02A2WLJiyYsmLJiyYsmLJiyYsmLJiyYsmLJiyYsmLJiyYsmLJiyYsmLJiyYsmLJiyYsmLJiyYsmLJiyYsmLJiyYsmLJiyYsmLJ9E1P7bQNfx+iu24DNh1l23AZsOsu24DNh1l23AZsOsu24DNh1l23AZsOsu24DNh4yi+AORpqa7EfHRlixYsWLFixYsWLFixYsWLFixYsWLFixYsWLFixYsWLFixYsWLFixYsWLFixYsWLFixYsWLFixYsWLFixYEARo6DUBI0Poan5J08DtuAzYeMYvGoQJOhGm400+FPRYECBAgQIECBAgQIECBAgQIECBAgQIECBAgQIECBAgQIECBAgQIECBAgQIECBAgQIECBAgQIECBAgQIECAVUwp6kgNP70/wB8DtuAzYdZdtwGbDrLtuAzYdZdtwGbDrLtuAzYdZdtwGbDrLtuAzYdZdtwGbDrLtuAYk/nQj9sjrIal+ASf604G8H7B6zvF+ABPA1P5IEdZ3Z7LU8AJH0BCCHoRder/kDv9II30GnB2R+D7+l9Hqv0B7WyPyfXD1Teff2jAGhHz1PSbqT+AtA2319cUToOunoj2gn3J6UP3ML/AFgH/vTf85Bqvah+8oI937AtNDp9/wDHJ//aAAwDAQACAAMAAAAQAAAAAAAAAAAAAAAAAAAAAAAAAAAAAAAAAAAAAAAAAAAAAAAAAAAAAAAAAAAAAAAAAAAAAAAAAAAAAAAAAAAAAAAAAAAAAAAAAAAAAAAAAAAAAAAAAAAAAAAAAAAAAAAAAAAAAAAAAAAAAAAAAAAAAAAAAAAAAAAAAAAAAAAAAAAAAAAAAAAAAAAAAAAAAAAAAAAAAAAAAAAAAAAAAAAAAAAAAAAAAAAAAAAAAAAAAAAAAAAAAAAAAAAAAAAAAAAAAAAAAAAAAAAAAAAAAAAAAAAAAAAAAAAAAAAAAAAAAAAAAAAAAAAAAAAAAAAAAAAAsAAAAAAAQwwwwwwwwwwwwwwwwwwwwwwwwwwwwwwwwwwwwwgwMAAAAQAAAAAAAAAAAAAAAAAAAAAAAAAAAAAAAAAAAAAAAAAAAAAAAAgAAAA0AAAAAAAAAAAAAAAAAAAAAAAAAAAAAAAAAAAAAAAAAAAAAAAQAAAAAMAAAAAAAAAAAAAAAAAAAAAAAAAAAAAAAAAAAAAAAAAAAAAAUAAAAAQIAAAAAAAAAAAAAAAAAAAAAAAAAAAAAAAAAAAAAAAAAAAAAUAAAAAAQAAAAAAAAAAAAAAAAAAAAAAAAAAAAAAAAAAAAAAAAAAAAAUAAAAAAAwAAAAAAAAAAAAAAAAAAAAAAAAAAAAAAAAAAAAAAAAAAAAUAAAAAAAAAAAAAAAAAAAAAAAIAAAAAAAAAAAAAAAAAAAAAAAAAAAAUAAAAAAAAAAAAAAAAAAAAAAAAAAAAAAAAAAAAAAAAAAAAAAAAAAAAUAAAAAAAAAAAAAAAAAAAAAAAAAAAAAAAAAAAAAAAAAAAAAAAAAAAAUAAAAAAAAAAAAAAAAAAAAAAAAAAAAAAAAAAAAAAAAAAAAAAAAAAAAUAAAAAAAAAAAAAQwwwwwwwwwwwwwwwwwwwwwwwwwwwwwwwwwwkAAAUAAAAAAAAAAAAAAAAAAAAAAAAAAAAAAAAAAAAAAAAAAAAAAAAAAAAUAAAAAAAAAAAAAAAAAAAAAAAAAAAAAAAAAAAAAAAAAAAAAAAAAAAAUAAAAAAAAAAAAAEMMMMMMMMMIAAAAAAAAAAAAAAAAAAAAAAAAAAAAUAAAAAAAAAAAAAAAAAAAAAAAAAAAAAAAAAAAAAAAAAAAAAAAAAAAAUAAAAAAAAAAAAAAAAAAAAAAAAAAAAAAAAAAAAAAAAAAAAAAAAAAAAUAAAAAAAAAAAAAAAAAAAAAAAAAAAAAAAAAAAAAAAAAAAAAAAAAAAAUAAAAAAAAAAAAAQAAAAAAAAAAAAAAAAAAAAAAAAAAAAAAAAAAQAAAUAAAAAAAAAAAAAAAAAAAAAAAAAAAAAAAAAAAAAAAAAAAAAAAAAAAAUAAAAAAAAAAAAAQwwwwwwwwwAAAAAAAAAAAAAAAAAAAAAAAAAAAAAUAAAAAAAAAAAAAAAAAAAAAAAAAAAAAAAAAAAAAAAAAAAAAAAAAAAAUAAAAAAAAAAAAAQwwwwwwwwwAAAAAAAAAAAAAAAAAAAAAAAAAAAAAUAAAAAAAAAAAAAAAAAAAAAAAAAAAAAAAAAAAAAAAAAAAAAAAAAAAAUAAAAAAAAAAAAAAAAAAAAAAAAAAAAAAAAAAAAAAAAAAAAAAAAAAAAUAAAAAAAAAAAAAQAAAAAAAAAAAAAAAAAAAAAAAAAAAAAAAAAAQAAAUAAAAAAAAAAAAAAAAAAAAAAAAAAAAAAAAAAAAAAAAAAAAAAAAAAAAUAAAAAAAAAAAAAAAAAAAAAAAAAAAAAAAAAAAAAAAAAAAAAAAAAAAAUAAAAAAAAAAAAAEAAAAAAAAAIAAAAAAAAAAAAAAAAAAAAAAAAAAAAUAAAAAAAAAAAAAQAAAAAAAAAAAAAAAAAAAAAAAAAAAAAAAAAAAAAAUAAAAAAAAAAAAAAAAAAAAAAAAAAAAAAAAAAAAAAAAAAAAAAAAAAAAUAAAAAAAAAAAAAEMMMMMMMMMMMMMMMMMMMMMMMMMMMMMMMMMMIAAAUAAAAAAAAAAAAAAAAAAAAAAAAAAAAAAAAAAAAAAAAAAAAAAAAQAAAUAAAAAAAAAAAAAAAAAAAAAAAAAAAAAAAAAAAAAAAAAAAAAAAAAAAAUAAAAAAAAAAAAAAAAAAAAAAAAAAAAAAAAAAAAAAAAAAAAAAAAAAAAUAAAAAAAAAAAAAAwwwwwwwwwwwwwwwwwwwwAAAAAAAAAAAAAAAAAAUAAAAAAAAAAAAAAAAAAAAAAAAAAAAAAAAAAAAAAAAAAAAAAAAAAAAUAAAAAAAAAAAAAAAAAAAAAAAAAAAAAAAAAAAAAAAAAAAAAAAAAAAAUAAAAAAAAAAAAAEMMMMMMMMMMMMMMMMMMMMMMMMMMMMMMMMMMIAAAUAAAAAAAAAAAAAAAAAAAAAAAAAAAAAAAAAAAAAAAAAAAAAAAAQAAAUAAAAAAAAAAAAAAAAAAAAAAAAAAAAAAAAAAAAAAAAAAAAAAAAAAAAUAAAAAAAAAAAAAAAAAAAAAAAAAAAAAAAAAAAAAAAAAAAAAAAAAAAAUAAAAAAAAAAAAAAAAAAAAAAAAAAAAAAAAAAAAAAAAAAAAAAAAAAAAUAAAAAAAAIAAAAAAAAAAAAAAAAAAAAAAAAAAAAAAAAAAAAAAAAAAAUAAAAAAAAgAAAAAAAAAAAAAAAAAAAAAAAAAAAAAAAAAAAAAAAAAAAQAAAAAAAAUIAAAAAAAAAAAAAAAAAAAAAAAAAAAAAAAAAAAAAAAAAAgAAAAAAAAAEIAAAAAAAAAAAAAAAAAAAAAAAAAAAAAAAAAAAAAAAMIAAAAAAAAAAAAAAAAAAAAAAAAAAAAAAAAAAAAAAAAAAAAAAAAAAAAAAAAAAAAAAAAAAAAAAAAAAAAAAAAAAAAAAAAAAAAAAAAAAAAAAAAAAAAAAAAAAAAAAAAAAAAAAAAAAAAAAAAAAAAAAAAAAAAAAAAAAAAAAAAAAAAAAAAAAAAAAAAAAAAAAAAAAAAAAAAAAAAAAAAAAAAAAAAAAAAAA//EABQRAQAAAAAAAAAAAAAAAAAAALD/2gAIAQMBAT8QPN//xAAUEQEAAAAAAAAAAAAAAAAAAACw/9oACAECAQE/EDzf/8QAKxAAAAQFAwMFAAMBAAAAAAAAAAFh8BEhMWDBMEBBUdHxUHGBkbGQoeGg/9oACAEBAAE/EP8AjwNfITNU+w8g7jyDuPIO48g7jyDuPIO48g7jyDuPIO48g7jyDuPIO48g7jyDuPIO48g7hhZDCyGFkMLIYWQwshhZDCyGFkMLIYWQwshhZDCyGFkMLIYWQwshhZDCyGFkMLIYWQwshhZDCyGFkMLIYWQwshhZDCyGFkMLIYWQwshhZDCyGFkMLIYWQwshhZDCyGFkMLIYWQwshhZDCyGFkMLIYWQwshhZDCyGFkMLIYWQwshhZDCyGFkMLIYWQwshhZDCyGFkMLIYWQwshhZDCyGFkMLIlxKsNDdUziLuDaanxX9aRpIpTblDByTM1vgPdy9S9jwIPP5aMIdLcEEsyYgUDqi6H00CimQRDB8WKue4FY5YoCIRIyIZfehQHoPofUFJQhrgJpzwWi4WpA62+RDfC/D/ADSQg5cG/wC7f7elTwekXmUGID/EmT9St45XpwqavSA+9BiW65XqcLG3Scr1ZPW4jlerKNMC9o9tjletDMi+xdAf2gBLaOV68U+9QuttOV65IIQQMSY0NESI4f3ppYnNyz0hP952YgggggggggggggggggioQ3/mQ/kU9bOV7vaTATplSiE4jT+tnatWrVq1atWrVq1atWrVq1zkYylDMJLoda+tuV3Ts5XdOzld07OV3Ts5XdOzld07OV7vYixX7nhVdEvPNjdu3bt27du3bt27du3bt27du3bt27du3bt27du3bt27du3bt27du3bt27du3bt27du3bt27du3bt27du3aBbU4l05A0Acr3exfCeX7Pj5B+pbGWrVq1atWrVq1atWrVq1atWrVq1atWrVq1atWrVq1atWrVq1atWrVq1atWrVq1atWrVq1atWrVq1atWrVqDjSY6WMIFI4IiRoOV3Ts5XdOzld07OV3Ts5XdOzle72kuRKZ4IlU9DpDZ9u3bt27du3bt27du3bt27cHbEJDiH1scrunZyu6dnK7p2crunZyu6dnK93sfZ+VcPrU1jAc+fPnz58+fPnz58+fPnz58+fPnz58+fPnz58+fPnz58+fPnz58+fPnz58+fPnz58+fPnz58+fPnz58+fNBWGnQINADle72K43cjREiJOnysZu3bt27du3bt27du3bt27du3bt27du3bt27du3bt27du3bt27du3bt27du3bt27du3bt27du3bt27du3bwnLQdJnI5DjRoByu6dnK7p2crunZyvd7FgwiDxMZ7i1kmzZs2bNmzZs2bNmzZs2bNmz63AxhJSPZo19bcrunZyu6dnK7p2cr3exYMIg8TGe4tZJs2bNmzZs2bNmzZs2bNmzZs+twMYSUj2aNfW3K7p2crunZyu6dnK7p2crunZyvd7HcbuRqiRElT4WM3bt27du3bt27du3bt27du3bt27du3bt27du3bt27du3bt27du3bt27du3bt27du3bt27du3bt27du3bt4zloOkzmcxxq0A5Xu9j7PyrhdamsYDnz58+fPnz58+fPnz58+fPnz58+fPnz58+fPnz58+fPnz58+fPnz58+fPnz58+fPnz58+fPnz58+fPnz5oKw06BBoAcrunZyu6dnK7p2crunZyu6dnK93tB3nPoDkOsdI7PMzMzMzMzMzMyjr+AVKPtF625Xu9qKZ2GhEFQI9pbPnz58+fPnz58+fPnz58+fOuhRsmZnDnD1sDld07OV3Ts5XdOzld07OV7vYixX7nhVdEvPNjdu3bt27du3bt27du3bt27du3bt27du3bt27du3bt27du3bt27du3bt27du3bt27du3bt27du3bt27du3aBbU4l05A0Acr3exfCeX7Pj5B+pbGWrVq1atWrVq1atWrVq1atWrVq1atWrVq1atWrVq1atWrVq1atWrVq1atWrVq1atWrVq1atWrVq1atWrVqDjSY6WMIFI4IiRoOV3Ts5XdOzld07OV3Ts5XdOzle72PGa0YiTmlzXSU4+ks2bNmzZs2bNmzZs2bNmzZs2bNmzZs2bNmzZs2bNmzZs2bNmWL9ZH4Zx1hLr6K5XdOzld07OV3Ts5XdOzld07OV3Ts5Xu9iLFfueFV0S882N27du3bt27du3bt27du3bt27du3bt27du3bt27du3bt27du3bt27du3bt27du3bt27du3bt27du3bt27doFtTiXTkDQByvd7F8J5fs+PkH6lsZatWrVq1atWrVq1atWrVq1atWrVq1atWrVq1atWrVq1atWrVq1atWrVq1atWrVq1atWrVq1atWrVq1atWoONJjpYwgUjgiJGg5XdOzld07OV3Ts5XdOzld07OV3Ts5XdOzld07OV7CkQX4gitkNLGQ/NgRD6l8KmbZQ5k+NgQZLIEM2ySeIUR90C/NhXVKkRQRNuh2uRlOQKJpIux7atA62qc1AdtW9NmYQtM4E4LxrTFQ2MSczxOP97WdS6ET5BBEl0ImSEUgZKAdQMfas0cAZRLMUyMew/sxUlVNU/n+OT//2Q==;" vertex="1" parent="1">
          <mxGeometry x="160.89999999999998" y="80" width="162" height="174.19" as="geometry" />
        </mxCell>
        <mxCell id="hJNaefQTGlpcFomLB34I-4" value="" style="shape=image;verticalLabelPosition=bottom;labelBackgroundColor=default;verticalAlign=top;aspect=fixed;imageAspect=0;image=data:image/jpeg,/9j/4AAQSkZJRgABAQEASABIAAD/4gIoSUNDX1BST0ZJTEUAAQEAAAIYAAAAAAIQAABtbnRyUkdCIFhZWiAAAAAAAAAAAAAAAABhY3NwAAAAAAAAAAAAAAAAAAAAAAAAAAAAAAAAAAAAAQAA9tYAAQAAAADTLQAAAAAAAAAAAAAAAAAAAAAAAAAAAAAAAAAAAAAAAAAAAAAAAAAAAAAAAAAAAAAAAAAAAAlkZXNjAAAA8AAAAHRyWFlaAAABZAAAABRnWFlaAAABeAAAABRiWFlaAAABjAAAABRyVFJDAAABoAAAAChnVFJDAAABoAAAAChiVFJDAAABoAAAACh3dHB0AAAByAAAABRjcHJ0AAAB3AAAADxtbHVjAAAAAAAAAAEAAAAMZW5VUwAAAFgAAAAcAHMAUgBHAEIAAAAAAAAAAAAAAAAAAAAAAAAAAAAAAAAAAAAAAAAAAAAAAAAAAAAAAAAAAAAAAAAAAAAAAAAAAAAAAAAAAAAAAAAAAAAAAAAAAAAAAAAAAFhZWiAAAAAAAABvogAAOPUAAAOQWFlaIAAAAAAAAGKZAAC3hQAAGNpYWVogAAAAAAAAJKAAAA+EAAC2z3BhcmEAAAAAAAQAAAACZmYAAPKnAAANWQAAE9AAAApbAAAAAAAAAABYWVogAAAAAAAA9tYAAQAAAADTLW1sdWMAAAAAAAAAAQAAAAxlblVTAAAAIAAAABwARwBvAG8AZwBsAGUAIABJAG4AYwAuACAAMgAwADEANv/bAEMABAMDBAMDBAQDBAUEBAUGCgcGBgYGDQkKCAoPDRAQDw0PDhETGBQREhcSDg8VHBUXGRkbGxsQFB0fHRofGBobGv/bAEMBBAUFBgUGDAcHDBoRDxEaGhoaGhoaGhoaGhoaGhoaGhoaGhoaGhoaGhoaGhoaGhoaGhoaGhoaGhoaGhoaGhoaGv/CABEIA4QDRQMBIgACEQEDEQH/xAAcAAEAAgIDAQAAAAAAAAAAAAAABgcFCAEDBAL/xAAbAQEAAgMBAQAAAAAAAAAAAAAAAwQBBQcGAv/aAAwDAQACEAMQAAABv4AAAAAAAAAAAAAAAAAAAAAAAAAAAAAAAAAAAAAAAAAAAAAAAAAAAAAAAAAAAAAAAAAAAAAAAAAAAAAAAAAAAAAAAAAAAAAAAAAAAAAAAAAAAAAAAAAAAAAAAAAAAAAAAAAAAAAAAAAAAAAAAAAAAAAAAAAAAAAAAAAAAAAAAAAAAAAAAAAAAAAAB5tdi6qooXqLO8leC3J/rIN8Pdo3soWgAAAAAAAAAAAAAAAAAAAAAAAAAAAAAAAAAAAAAAAAAAAAAAB1dtIFfQDjbYq+b2GK0rXZUaK9eyutQ7eobS2zohukZ0AAAAAAAAAAAAAAAAAAAAAAAAAAAAAAAAAAAAAAAAAAAAAHXpHtvpUXbsDUVugADUPbzWYqoC+qFnJuKAAAAAAAAAAAAAAAAAAAAAAAAAAAAAAAAAAAAAAAAAAAAACBafbq6VFx7F6MbUE/AODjTu06EAEjjk5NxQAAAAAAAAAAAAAAAAAAAAAAAAAAAAAAAAAAAAAAAAAAAAAdeke8FIGuHd0i1pvrkNhq1gYAAX1Sm6RnQAAAAAAAAAAAAAAAAAAAAAAAAAAAAAAAAAAAAAAAAAAAAAOrtGp9Y7667FJu3qAAHbldlDzWyAAAAAAAAAAAAAAAAAAAAAAAAAAAAAAAAAAAAAAAAAAAAAAAAEXqi/xopjMnjCSXvS+5Z4fcAAAAAAAAAAAAAAAAAAAAAAAAAAAAAAAAAAAAAAAAAAAAAAAAADxe3AGkAMpvVoJv2AAAAAAAAAAAAAAAAAAAAAAAAAAAAAAAAAAHRhSQoHgy08RVfwTzqhAm6ECboQJuhAm6ECboQJuhAm6ECboQJuhAm6ECboQJuhAm+GwOOKFA3C0+2KJuhAm6ECboQJuhAm6ECboQJuhAm6ECboQJuhAm6ECboQJuhAnGYq8XV6aNyZb6vM0Sl4vaAAAAAAAAAAAAAAADznoisfix39AADg5efpPcxfSZpgOskaLfBLEP6yaIR8E6QL4J/wAV+J98wMTv4g4m/EJE0QsTPiGiZeWLitnZ1ndelJTwmPMNEz5hYmvMJE45gwnf1AhP+a/FhK++yfIH2E4QnsJkiP2StGfskbBdpmGN7T2untOQAczSFC7+ypLJMkAAAAAAAAAAAAAdR4av7sOfXXF8US/xRwZny+Ad3VwAAAAAAAAAAAAAAINj5HHDMzDBZ0AAAAAAAAAAAAAfXyPV6MaM57IuJr7K+7ied0fzRZ0lpK2zJAAAAAAAAAAAAV9n6vOOORgsRNBX3E/8ZDEo8xgGW6DwPR0nyAAAAAAAAAAAADoi8vHX2AAAAAAAAAAAAAO06nr7zGs16SOJb6yGZCWcng94MviBd/ZAZ8AAAAAAAAAADxlU44AAAAAHHI6+r0jw9OUGI6s4MB1yMRn4lIifxLxDfmaCFfM3EG+Z2IH8z4QDiwBXywRXqwhXqwhXqwhXvNgiv+Z+IDzPRA/qdCD8zcQvmZiHfcuET+5SI19yIYHszQxPZkh4u7vHz9AAAAAABzctM2USkAAAAAAAAACMSevCHgAAAAAAAAAAAAAAAAAAAAAAAAAAAAAAAAAAAAAAAATCH5Qt8AAAAAAAAACorVpU4AAAAAAAAAAAAAAAAAAAAAAAAAAAAAAAAAAAAAAAAA54F1emOSMAAAAAAAAAwNVWpVYAAAAABH4RIqpJohYmiFiaIWJohYmiFiaIWJohYmiFiaIWJohYmiFiaIWJohYmiFiaIWJohYmiFiaIWJohYmiFiaIWJohYmiFiaIWJohYmiFiaIWJohYtaa1Ra4AAAAABOZ1A54AAAAAAAAAYCq7UqsAAAAAAhVU2tVIAAAAAAAAAAAAAAAAAAAAAAAAAAABNLXqi1wAAAAACbzyBzwAAAAAAAAAwFV2pVYAAAAABCqptaqQAAAAAAAAAAAAAAAAAAAAAAAAAAACaWvVFrgAAAAAE3nkDngAAAAAAAABgKrtSqwAAAAACFVTa1UgAAAAH1I45c+aef172+1fl00dEPpQAAAAAAAAAAAOeOfaxc8B2Ggc/j9fhB7EAAAACaWvVFrgAAAAAE3nkDngAAAAAAAABgKrtSqwAAAAACFVTa1UgAAAAHOyWt+103nMhRV61TJoqUFXoAAAAAAAAAAAAHMzhto5p3diMuu821A49Xlo9U4DIAAAE0teqLXAAAAAAJvPIHPAAAAAAAAADAVXalVgAAAAAEKqm1qpAAAAAPVtxqztLP5HmvrBiEuj1sFPpQAAAAAAAAAAAH1c9M3x96ixxc55q/H5jDqPU/kYnAAAAmlr1Ra4AAAAABN55A54AAAAAAAAAYCq5NS5YTAZ8AAAAAhVU2tVIAAAABKNmdcNj7Hi+Y7IcRLo9VRS6gAAAAAAAAAAABzsPrxsjLoZgLXgtfYBZVbUen/IxcAAAAmlr1Ra4AAAAAY6Il7TyiLzOwAAAAAAACl55pqfHUH3aFWdpsMxGXAAAAIVVNrVSAAAAATTY7XLY2x4njFZXFS6PVTjnil1IAAAAAAAAAAAD62S1t2Sl0EuFrwdFVnZlaUem/IxeAAAAmlr1Ra4AAAAwWYo48nlBblRjfrspq5QAAAAAAYo1tqjv6AACYW3rxfh6wAAAQqqbWqkAAAAAmuxuuOx1jxPGKyuJl0mqgpdRAAAAAAAAAAAA+tktbdkZdBLxa8HRdZWXWtHp3yMXQAAAJpa9UWuAAAAQarc5gwAs+flH7s6G7VFngAAAAAVFbushVm3FR7BFIUBvTpcYcC2Knm5agAAAIVVNrVSAAAAASzZbVzaOfxrA52JzaPWoUunAAAAAAAAAAAAc7F6633Jo7FFvwFBV5NIVR6hwMWwAAAJpa9UWuAAAMdkYaVPwD2eOzTZDIhrL7rD1+N2gAAAAANNdytEzaKdeT1jWzZOnjXIDO4L0mwQAAAIVVNrVSAAAAAe7bTUHbOfyvqgk8q+TR0aKnRgAAAAAAAAAAAPq7KTtj61l0C7zjWSM5HH0OrfISAAAATS16otcAAAVpZdPkUA2C192nLHBi9KN69JTdv3w6YgAAAAHj0n3K1KNvwIBP4oaeAA2E7/D7gAACFVTa1UgAAAAHOzWs15SaOzaTu3WuXRxEVvcAAAAAAAAAAAAfU6guVQbV+D3Qq7znXTgpdNAAAAAmlr1Ra4AAApG7qKMSBuBp/uYSIDT3cLUgvyy6ltoAAAAAj+re1GrBtmBH5BgDTAAF9ZHwe8AAAhVU2tVIAAAAB9TeDke1WrXp8X3R+R8bIAAAAAAAAAAABzwNla5r/wAv3qOofG3AAAAAmlr1Ra4AAAoa+aJMUBufphuSSUDUzbPUUuu36ktsAAAAA8OoG5mlZuKBFpTAjU4A7y/PQAAAEKqm1qpAAAAAAAAAAAAAAAAAAAAAAAAAAAAJpa9UWuAAAKQu+nSLAbb6kbNlpgaa7j6Om09nQqagAAAADTPczV42J9ENmQqO3NdCnAM1hZmWwAAACFVTa1UgAAAAAAAAAAAAAAAAAAAAAAAAAAAE0teqLXAAAFYWfCSqgLxo6ZG3gI1pvsVSRuZlAAAAAAUzc2CKVvfSvcAyWmd760AC1Kuvk94AAAIVVNrVSAAAAAAAAAAH18gAAAAAA+z4AAAAAAAAABNLXqi1wAABisqNdGXxA+vkbeS7S6QHjllTbSlsgAAAAAA1Kgm22n5z1APok9xYDPgAAAEKqm1qpAAAAAAAAAAO3ryuKY4DIAAAAHPZ15VjEhkAAAAAAAACaWvVFrgAAAFf1psHRR4QAZTd2lb3AAAAAAAGvmwfBoE2Yp8g9iZiXHIAAAAIVVNrVSAAAAAAAAAASiMTWF4j+RmQAAAAD6ksamaOFBIAAAAAAAABNLXqi1wAAABGJONeeq7oWQWwpbsIdneAAAAAAAAGAqu1KrAAAAAAIVVNrVSAAAAAAAAAATDD46yc1avc8YtAAAAAeqZ98OzUxgxbAAAAAAAAAmlr1Ra4AAAAABN55A54AAAAAAAAAYCq7UqsAAAAAAhVU2tVIAAAAAAAAABzblSZbNbzeK6qVY+Ri0AAB9dvXbGYPXTcpiyP5GLYAAAAAAAAE0teqLXAAAAAAJvPIHPAAAAAAAAADAVXalVgAAAAAEKqm1qpAAAAAAAAAAALV66wvL701HcXLUPzf8wxaHIdlpZgwstzdBfer84j3YAAAAAAAAAE0teqLXAAAAAAJvPIHPAAAAAAAAADAVXalVgAAAAAEKqm1qpAAAAAAAAAAAOefkW3ZOr2Tk0toRjMSL6qwSQ53AFhwuscH82O7oI93wGQAAAAAAAAAJpa9UWuAAAAAATeeQOeAAAAAAAAAGAqu1KrAAAAAAIVVNrVSAAAAAAAAAAAAAAAAAAAAAAAAAAAATS16otcAAAAAAm88gc8AAAAAAAAAMBVdqVWAAAAAAQqqbWqkAAAAAAAAAAAAAAAAAAAAAAAAAAAAmlr1Ra4AAAAABN55A54AAAAAAAAAYGqrrpU4AAAAABH4Ra4qha4qha4qha4qha4qha4qha4qha4qha4qha4qha4qha4qha4qha4qha4qha4qha4qha4qha4qha4qha4qha4qha4qha4qha4qha4qha4qha4qha4hU1AAAAAACczqOSMAAAAAAAAAVFbteEPAAAAAAAAAAAAAAAAAAAAAAAAAAAAAAAAAAAAAAAAA54yha3pAAAAAAAAABGJP4ymAAAAAAAAAAAAAAAAAAAAAAAAAAAAAAAAAAAAAAAAAJhD7KJSAAAAAAAAAACncdaNXnAAAAAAAAAAAAAAAAAAAAAAAAAAAAAAAAAAAAAAAAOblh0+AAAAAAAAAAAFfWD1FIstiQAAAAAAAAAAAAAAAAAAAAAAAAAAAAAAAAAAAAABl8dbZ7uwAAAAAAAAAAAAMZV9x+cpRKYsH3mzApf6yCrE7ytFpdxU63uwqHttoVT2WkKw+rNFa/djiu/qwhX/ANT4QPmdiDczgQj6mohaaCGczIQ3mYiHJiIcmIhvEzEM4mghXE2EHTgQXidiBfM/Ff8AxYYrr4sgVp8WcKu+LUFTfFuCnvm4/gp9bfUVSs/zlcJ95iFJPhzwAd2SskxklAAAAAAAAAAAAAABFZUKVytnYUjnr+MGSnvrf4LS7qnFvdlOi41QdpbSqewtJWH0WarX7LHV39FhK/8AonyB8k7QbknCEfRNULE0QzkmSG8kxQ4TFDhMUN4JmhnBNEK4Jsg4nCC8E7QL5J+r/wCCw1dfBZCtPgs5V3wWoqb4Lc+Kh+S2+qqRZ/nrgT7zQvJmTw8hzRW00mPtOvsAAAAAAAAAAAAAAAAAADqxGcEI6p4IGnggaeCBp4IGnggaeCBp4IGnggaeCBp4IGnggaeCBp4IGnggaeCBp4IGnggaeCBp4IGnggaeCBp4IGnggaeCBp4IGnggaeCBp4IGnggmYkY83pAAAAAAAAAAAAAAAAAAAAAAAAAAAAAAAAAAAAAAAAAAAAAAAAAAAAAAAAAAAAAAAAAAAAAAAAAAAAAAAAAAAAAAAAAAAAAAAAAAAAAAAAAAAAAAAAAAAAAAAAAAAAAAAAAAAAAAAAAAAAAAAAAAAAAAAAAAAAAAAAAAAAAAAAAAAAAAAAAAAAAAAAAAAAAAAAAAAAAAAAAAAAAAAAAAAAAAAAAAAAAAAAAAAAAAAAAAAAAAAAAAAAAAAAAAAAAAAAAAAAAAAAAAAAAAAAAAAAAAAAAAAAAAAAAAAAAAAAAAAAAAAAAAAAAAAAAAAAAAAAAAAAAAAAAAAAAAAAAAAAAAAAAAAAAAAAAAAAAAAAAAAAAAAAAAAAAAAAAAAAAD/8QANBAAAAQEBAUEAwEAAQQDAAAAAAEDBAIFBhYVMDRAEBESExQHIDVgITJQMSUiIyQ2QZCg/9oACAEBAAEFAv8A6qJlP5fKSe+pH5VrycqCGt55zb+oUzSDD1CYuA2dIvE/sCyybdKoK6VcHFHFHF7ZfM3UrWpyr0Jx9fiihghqqpo5y4bNVni0u9PooiTomTQEvQspVKa0K7ZwnCcJ8IYjgio+p8VS+u19Ouwg1bKPHEjkaElbeyraageo8WrlRm4lMxgmsv8ArcURQlOH8UzmXp6wKNf3VOwKXzrj6dTHkp9bqNfxZGPT0ywn3V+ZY3xpFwbeofrdac7ZFAzIkHvtMyIqgmGJzfjIPnPrdRoeVIwkrGipTlSozlL2VdVMBp+ykW5uKh+txQlEU4YRSyZCCOJOKXV0/aEn6hsTJf1EbEU1qyYTQvb6dS7mp9cr6S99DKatlHjiUy6CVS/65FDDHDVVMxyZxkQwnHFR9MYUl9eWRTcJVBQqrc4oIoIvbL5Y6mi1OUghJ/sUykEvmxPfTf8AL5pGwdiSymKdPmHp6xbhs1RZp/ZJgv5T4Uqv49Q/ZXavYa8Jct48w+yzs+Um4QnyP6RFFDASs2aJBSoYRcRi4jFxGLiMXEYuIxcRi4jFxGLiMXEYuIxcRi4jFxGLiMXEYuIxcRi4jFxGLiMXEYuIxcRi4jE2nprSrjcRi4jFxGLiMXEYuIxcRi4jFxGLiMXEYuIxcRi4jFxGLiMXEYuIxcRi4jFxGLiMXEYuIxcRi4jFxGIah/KU6aqBNZNb+OorAkSs5aJhWoTCs3dqiKOKM94/0P8AA/wJTJ0iEqgVIJT1tGEnSK/8J/N4GwVVjXj2nMh1wjuwDvpjyEh5KI8pEeWiPMQHmIDzUB5qAcukVG/BIuanmoDzUB5qA8xAeWiPKRHlIjyUR5CQ7yY7sA64Rz2v+GwnXIQxFGW9UVgRgfziNf3mZEDXSIG8RIG/RBzJIYmQxOIHMlBiKw89ceauPKWHfVHdjHVFnxQ9MQal1OM3mY64h3VB5Co8tYeauPPWGIqgpnGCmYKZwApikCfoAnSJglYDyGUxVZG1eJPIN28dwskXTxV5GIo4YBE+RhEUzIRTJQG9WMGqpFvnkHQ5Eth5uN4URkCcKwiF+sQhmcYhmSYgdIx8UlY0Y5ZMvNLcxRknDMHhvV4j6YVn6kYMzP8AhzRP8iWJ9Kf8KBWNMNHprRBJWJFRm6heIbidP+uLgtLoYhGzWgBly/hLJEsnDLluuCEoIf4MKcUYTl6sQQawIcZc9NkvDEUUO2mr7xEfacJRCJmjEIpamDlgOXKg2S5A26pA4TL+wScZgmqxgmCxgpaoClhCGXokIW6UHvkj/lt363fd5pwQmDbpGDZoA2CIw5EYZAMMIYYYwyMYaqMOWHgLDwVx4a48VYeMsPHVHZUHajHbjHREOkxyPJ5GORjpMdEQ7cY7Sg7Co8dUeKsPEWHhLjwFxh6ww5YYaoMMiGGDDIQUtTBS9EExQBNUQSKZAiIs7/Daq95ttHKvZb/U5Er1s9pPFehl9Tp9XkvtKgV5rfU5cp2Xu0mandffUy/AQU7qOyWU7SR/k/qkkV7jHZTiI4Zfmzd8owbXM7FzOxczsXM7FzOxczsXM7FzOxczsXM7FzOxczsXM7FzOxczsXM7FzOxczsXM7FzOxczsXM7FzOxczsXM7FzOxczsXM7FzOxczsXM7FzOxczsXM7FzOxczsXM7FzOxczsXM7FzOxczsXM7FzOxczsXM7FzOxczsXM7FzOxczsXM7FzOxczsXM7FzOxczsSibrzBzm07Fs518fm1NoP7NM6/Np39tlOvj82ptB/ZpnX5tO/tsp18fm1NoP7NM6/Np39tlOvj82ptB/ZpnX5tO/tsp18fm1NoP7NM6/Np39tlOvj82ptBmSaX4m/nEgbOJfvaakaELGpJWUtfZlM6/Np39tlOvj82ptBmUS15JCctvDmm7aoG4cQQQpQVg27sszKZ1+bTv7bKdfH5tTaDMplHsyYVmj0THd0uj3pyJoj5EuzKZ1+bTv7bKdfH5tTaDMYp9lkK3S5obuiUubzg4SNFfLpnX5tO/tsp18fm1NoMtGA1FeFYwdUp3dDwckeE7g7c2y6Z1+bTv7bKdfH5tTaDLlBdUz4VOXOSbujC5SvhVJcp5l0zr82nf22U6+Pzam0GXT0HXOeE9g65Ru6Sg6ZNwrCDpm+XTOvzad/bZVNUTFihdMPNnN2z08uptBl0t+Z5wmv5lm7pcv+D4VqX/ACeXTOvy3T5BlDHVEHOmqqYkrDEURbCsaqNgIjOIwR8hJJv5GXU2gy6W+c4TT43d0x8Hwrb5LLpnX5UzmMMvRWXjcKcKTqqOWqkZRFnVBN4ZLLFVY11OMMZwRS14T5rk1NoMulfneE0+NPd0x8HwrX5LLpnX5KkcKUD95E9c+yhJ75jXOrua+bNfbT7vsPMmptBl0t87wmnxu7pj4PhW3yWXTOvyakd9tD2yiYRyqYpKQrJ5kxeQy9gqpEsp7YYjgibLE4b5FTaDLpb5zhNPjN3THwfCtfk8umdfkzVx5L/jS1L4wJvQzSNtFCcEVCzDzJJmeoTzsSdm1UeuZRJG0obVnTafY9lNr9xlkVNoMum4umdcJ1F0yrd0pF1SXhWMXObZdM6/IfLeOz4tm8bpwxaQMGgrmWeHM/Tt52ZrmeornuTX0+l/ccBSCFVOZszl8w400r0vMiptBlyY+U14VKfTJN3Rp85Vwqs+c7y6Z1+RUivQx40Mz8md8K4Z+TI5A68KdZlVuPIqGkGviyDhX7XtTXjKFO3MciptBltFey64Vcp25Pu6JU5teFQKd2cZdM6/IqhT/u8fTtvybcJk38qXkfI2a3ks8t3Gbl82S8dvw9QkOqXcUI+2vkVNoMsv9bK95uK2V6We7ohXkvweq+Q8y6Z1+RUMfVMuNDpdun+MwS7D+lVe9T2U6j7TWUJd+aca0S7lPexKLqS99TaDMp9bvycVstzd7ukVu1OA8V7DQ/8AcumdfkTiLqmfGl4OiQcalh6J9QkfVTuVN4umU0vD1z/jUsHXIfYy/LP31NoMyi3HWxFRuPJnG7lzjxXwqlx2JPmUzr8iZHzmHGQlyknGry5VH6eRc5FlT34Sjy51Hxnpc5L7JfoPfU2gzKYmBMZlMnsMvZRxHHFvKemBP5bWEwJw7zKZ1+RMNfxkfwvGsv8A2T05+EypwXVKKO/FR8Z7+JL7GX4Z++ptBmqu13EO9QdLNjMziPMpnX5EyLk/409F1SPjVkXVUPp4XKRZTyDuNKVi6Kg41JF0SH2IF0o++ptB/ZpnX5E3LpmXGkVO5TvGfqd2d0FB007lsP8Awqg41kr2qd4pQ9xXIqbQf2aZ1+RUEPTMuNArdyS8IoighXU7y9JJdmncupEzZ1EioSyPD1BX6JXxlSfdmORU2g/s0zr8ip0+Tjj6dueS3CoHXhyUS5DxmGX6hNe1OaVd+XIeHqE67kw402l1vciptB/ZpnX5FSpdTPjS77wJ3w9QX3bZSZr5k2zPURn3Zb6ezDgZlCU6fYlNONModLXIqbQf2aZ1+RMkPIY8f8FMzcptLY44U4KhmuLzT0/Z9+dZk3ZYjLJe8VlMwl79CZNazn0DNpxIuZskPFa5FTaDa/8AxnFtaZ1+TMW/iveMumbmVLzSq5jNkRQDDxZPm1rK8OnKDtw1EcZxxcZE08l7k1NoNr0/9GdDD1FtKZ1+TUrTnD7WDOOYPWyEDVvm1VJsZlZwnCfHlzEoY+C0yam0G1Ug/wCPzmsPNDaUzr8ldGFwi6bRtF/ZQEkNODPrSlj6+MjlJ88qptBtSIlJFnNCKCUbSmdflTiWecnHAcEXCmKbUnbhNOBFPYVLR7NZO2HPNlIEWx5dTaDayaHyGOc5Lx6d2lM6/LfSpB+I6YXI6foxFysggm2S2M6+Pzam0G1pxwTebzJobF7mIpRLq1RFCm72lM6/Np39tlOvj82ptBtYIjTjqdEnbfMpNmSj185N472lM6/Np39tlOvj82ptBtqbUgmUuct42q+VDAccUxIpFT21pnX5tO/tsp18fm1NoNtLnsUveVHLYJk0yqUlH5nsyxN/taZ1+bTv7bKdfH5tTaDb0pOewpUdPG1PIkEhjmalUzaBsjtqZ1+bTv7bKdfH5tTaDcU7UELqCdUn1molGjH7IYTiik9JxqidztKTt44zUi21M6/Np39tlOvj82ptBuP8Emqw0iXZsZwi6omEwrSEygCdIzKM21EmGcqYyqCcVbCmSikSkW3pnX5tO/tsp18fm1NoN00fuWMbWtF4ShrRjyOtGAc1tGYezV3MD3NM6/Np39tlOvj82ptB/ZpnX5tO/tsp18fm1NoP7NM6/Np39tlOvj82ptB/ZpnX5tO/tsp18fm1NoP7NM6/Np39tlOITil+bN2Kj9tbLsWy7FsuxbLsWy7FsuxbLsWy7FsuxbLsWy7FsuxbLsWy7FsuxbLsWy7FsuxbLsWy7FsuxbLsWy7FsuxbLsWy7FsuxbLsWy7FsuxbLsWy7FsuxbLsWy7FsuxbLsWy7FsuxbLsWy7FsuxbLsWy7FsuxbLsWy7FsuxbLsWy7FsuxbLsWy7FsuxbLsWy7FsuxKJQvL3ObTsOzWT7qR/g/qkkS7bHZzNPtPvqZfkIJ9pHZ1AlyW+py5PvPdpPEutl9Tp9LmvtHKXeb/U5El0M9q/R7Dv6j/ptUuy22s1Y+Wj9RkjDnuJ0w6Ivp8uZG9XhhKGHbxQEpDMGZsl/pqSUSyjNrCzQ3LxpC9RdM1WceYScZjx1QTRwPBcjDnQwx2MKdDCHQwdyMGcjBXAwRcYIsMDVGBqjA1BgUYwKIYFEMCMYEYwEYCMBGAjARgIwEYCMCGBGMCMYFEMCiGBRjA1BgaowNYYGuMEcDBXAwZyMIdDCXQwt2MNdDwHI8JwPFWIGioDhMs1JKNaOWS3wi3aiUC0D+TxocIYTjiTlDmMQyKIFI0gUmbEClbUgTBsQJqiQJKAv6vTCYNBIwbNuYOXNTBylqYikqBiKRQiORrEF2S7fiylyr02rNJnBvn8ogciOBVqqnN3MAhnsQKeJApy2MFNGpgn7YwTpEwSsB/1eqEga6RA3jcgcxakDmzUhFOkCEU9hEc8WMLvV3A/02El5iGEoC/gKJQKkrJmigVp4wrKHaQigigP2kpGQ8hUE7cDznIxF0MTdjFXQxd0MYcjGXIxpwMbXGNrDHFRjioxxQY7GMdiGOxDHTGOmMeGPDHhjwx4Y8MeGPDHRjpjHTGOxDHYhjsYxxQY4qMcWGOLjG3AxpwMZcjF3QxZ0MUdjEnQ89yPNcDyljBrKA4jP3f6Epa6WCVPqmEpE2gCTVFD+PFDDGSspaKhSnoRbpi3TFumLdMW6Yt0xbpi3TFumLdMW6Yt0xbpi3TFumLdMW6Yt0xbpi3TFumLdMW6Yt0xbpi3TFumLdMW6Yt0xbpi3TFumLdMW6Yt0xbpi3TFumLdMW6Yt0xbpi3TFumLdMW6Yt0xbpi3TFumLdMW6Yt0xbpi3TFumIae/KUlaphNFNH/86f8A/8QANBEAAAQCBwYEBQUAAAAAAAAAAQIDBAAFERITITBQcRAxNEFRYSAzgbEGFCIjwTJwkKCh/9oACAEDAQE/Af6Nb1b5duY4RJXZ1gMRQcYboZzFQ76gw3Dy9slnp6rcC9RiSnquw7hjPT2bY49oROJFQOHIQgMk+IDfoDWJcaq7JrjTc1DM0BcMIDWSKPYMkn/nF0/MNOIJqGNO+E9Q2MuGJpkk/wDPLpDXzyah74084X12MOFJpkk/88ukNb1yah74084X12MeFJpknxAH3CDDIKXJNQxp0FLMdQ2NAqtyB2DJJ+X6SG1iVlrPCdsaaErMzwW8QhMtVMAyScpidrSHIaYkSdZwJ+gYy5LVIxOoQ0StHJSd8lVTBUgkHcMMWRWRBAL6cdGWkRcivT+/xRvEPGcdwZcYbNYB63eOtXXo6e45c4SFVOgN/LWGy4Lp08+fhXWKgmJxhqmYidJ943jl7lNRsp8wiGode8N3STktJB2rOE25axxohuVR6pbq3FDcH5zFxLCmNaIDVNFabI3UAaLSbK3AUAhCWfVaOBrD/n8z3//EACYRAAECBgICAQUAAAAAAAAAAAEAAgMRITAxUBAyIkESIFGAkKD/2gAIAQIBAT8B/hraJlRGgYvuYA3SwuyiYvNqUagjSwvafVpvM7Dg50kLBTupvQ88OzpIXUp2DehduDnSQupTsG9C7cHOkhGhCfRpvQ+3BzpIWU/qbzDJw496SGZOUXEr05ImTdL7TnF1/wCZLZfgLLXetqDIoiR+kCZkjU68VEiiCM8gEokAS2IfSq8CvAIv+37nv//EAE0QAAECAQUIDggEBgEDBQAAAAECAwAEETAzkRIhNEBzkrHRECAiMTJBQlFScYGCocEFEyNQYGGishRiY3IkQ1N04fDxFVTCZIOQoOL/2gAIAQEABj8C/wDio/jJQkL6Cb6rIm9HyO90nleQjcONNftaHnF+Wg/+yjVHt0MPj9s0BMuaXJFdLhJgOSV1LyDxpM/xCp19QQ2kTqUeKFMeh52WuN7lK6uaCpZKieM7b1sieU0rwPXCWJTMxLObiX1fD5Us3KRfJgsSdVzIUG8OmecwlmStl1xW8kCAr0pKLj9NrXG6k63P3Oq8o9mh1g/lc1wXJCv8W2OLeVBCrxGyFJMxHGI/CS1X8Y2Lx/qDX8PJ9HMGZbounf280NsMJunHDMkQENgKeI9o5NwtquWyJE0qQJ1gcsa9o2/J1XLjZnSYZlTXLF8cx5vhwlV4CJTKlHhr3PVxRKZasVYuEdZ28pbQJkKN2nqO0lMgWbxHrUefw5L3E3j6ogdt7YlI5X4j/wARt25v+3TPadpISOUq4PaPhyXTfk+8bD0jcMwlAnT+4bac3gIlMoRfRPMj9o2no2b/ALlv7vhyXtpvn1RI7L+wlxpRStJnBEBt1QbliRukdL5jarkHo1d1PedcGgbWQgclV2ewfDhCr4MSmSqHAXueri2ApCilQ3iDATK0plaOdRmVbHtZLKUn8tyY/hpG6s/nITBQV+oZP8trbSmXrF4D1SPP4dT6RYE62hcu/t56NtiTpunHDMkQzJWuQL55zz/DpSsXSTeIgvydN1IVm8egeY0ISkTk8Qj8XLU/xjgvD+mNfw+pp9IW2oTKSeOFP+h53muNnlJ6ueClYKSOI7b1UiZU6rwHXCX5TM/LOfiR1fEX8ZJ0lfTTeVbE/o+WXui8nzEOyZ0pU40q5Vc72wJK26hpRBIKoCpc6uVq6PBTAbkrSWUDiSJviWVP/wBR1SrTsSBXO5cZ17z+Jn3f6baleGzJHeg8lXj8TekT/wClc+07IPwTOtQSPmYrbo/lvx7JkkfMzRg4z4wcZ8YOM+MHGfGDjPjBxnxg4z4wcZ8YOM+MHGfGDjPjBxnxg4z4wcZ8YOM+MHGfGDjPjBxnxg4z4wcZ8YOM+MHGfGDjPjBxnxg4z4wcZ8S5v1E11J1jhfl2mDjPjBxnxg4z4wcZ8YOM+MHGfGDjPjBxnxg4z4wcZ8YOM+MHGfGDjPjBxnxg4z4wcZ8YOM+MHGfGDjPjBxnxg4z4wcZ8YOM+MHGfGDjPjBxnxg4z43bF75LjdKLf7hHslpX1H3PO4tKOsxeWXD+UR7FkdajFbcD8t6J1qKj88dlWSVo9w80bh5Xbfj2rSV9V6N3dN9Yj2TqVdvuIoYmcd8BBW6q6UcV344QjhptisRbFam2KxNsVgisEVgjhxWeEcPwh1AXwkEb2ygfOOH4Rw/CKzwjhxWCKwRWJisTbFYjOisTnRw02xvjFpxegNyy/+fXE6TODx48VuqCUjjMFuTTob5+M7e+ZovuJtisEb5PZF5KjF5s2xVi2LyUxyRHC8IrIrFRWLzo4arY3zTkc2w3+6nvKNscNVsVirYrDHD8I3weyN5J7I4CYvt+MX0GN5QjhTdkVgi8tJ7aC9um+gYumjf408YxwrVfPEOeJ3Te4k8Q2N2oCOFP1RuET9cXgkRw5ovrUe3HnB859ifojHbxmi84qOFP2RukAxukqEXljti9sBbSihQ4xFw5uXU+ONFSzMkb5i63kC8gQVHijcbhMX7/uNDnZsFZ5R9x7hREXDg3XPsJW2ZlJvwlxPeHMcZ/DNHcjh9fNsztG5+UcCfqi/e9xFComUAE9KeAlN4D3FuEkxupkRevq59mc1Z4QgFN8HF7lB9qve+Xz226AMcCbqi8VCNy54ReuTHAi+2qyL4I98XkmyKtUcGbti+pIjdOeEX5z2xuW07f8M6b3IPli7yuK6mFNfSD2RVpsirEbxtjfUO2OGqKzwis8I4aY4SI5NsbwtjgeMcCKsxVqiqXZFWrNjgKsjgmyOCY3jG9Rb0cExwTHAVZHAVZFWvNirVZFWqKsxVxwPGN4WxybY4SY4Yit8IvrMcJUco9scCftirEXkJHZF4TU04vQ050k4q650U/Clz0FTYrc9NU3wo630kz4q030Uz/CjKvzTYq8fnNZ8Ktr6SZ8TWs8kTxOd/4VSOgbnE3ZvlppkuMhJJXc7qKtiw64q2LDrirYsOuKtiw64q2LDrirYsOuKtiw64q2LDrirYsOuKtiw64q2LDrirYsOuKtiw64q2LDrirYsOuKtiw64q2LDrirYsOuKtiw64q2LDrirYsOuKtiw64q2LDrirYsOuKtiw64q2LDrirYsOuKtiw64q2LDrirYsOuKtiw64q2LDrirYsOuKtiw64q2LDrirYsOuKtiw64q2LDrirYsOuKtiw64q2LDrirYsOuKtiw64q2LDrirYsOuKtiw64q2LDrirYsOuKtiw64q2LDrirYsOuKtiw64q2LDrirYsOuKtiw64q2LDrirYsOuFNvJbACLrcimfTxXsTd6xppm8qNB99OZI6RTSju+eJu9Y00zeVGg++nMkdIppR3fPE3esaaZvKjQffTmSOkU0o7vnibvWNNM3lRoPvpzJHSKaUd3zxN3rGmmbyo0H305kjpFNKO754m71jTTN5UaDSts8jhL6oUJIwhp5sTouE7/wAseEoljKHXHr4u0zzJj2ImYdF0j5fKlcyR0imlHd88Td6xppm8qNBpZTKTvk3A8/LYlLQvJC5x1G/jjTSd9xQSIShAmSkTAR63jZXP2G9qpXMkdIppR3fPE3esaaZvKjQaWT3piudRt2GnALzjXj/s2OMTicInV4bEqbmnJaM3XSuZI6RTSju+eJu9Y00zeVGg0smbPIaSPDYkjvRUpP8AtmOShziS1Naf8bLjZ30KIpHMkdIppR3fPE3esaaZvKjQaRtA31KA2QRyXQdOOSxfOpI07MsB/qqNI5kjpFNKO754m71jTTN5UaDSSMH+sjTsyru/cMcdP6x0DZlPd+0UjmSOkU0o7vnibvWNNM3lRoNJJB+efZlY/TnxxB6S1HZJ6TaTSOZI6RTSju+eJuSZTnrJT/TRfm64wY3P74uUquHOiqkbyo0Gkk3e+07MtyK9GOSXvfcdlrIDSaRzJHSKSd9c3MOMx7OTqUPmuaFtysmTFya5KuDbAKTODiJkPo9f8SR7RY5H+YJUZydi9H4eUn2nJPPRt5UaDSSbvfadmW5Bf245JOpX3HZZyA0mkcyR0ijn33VcBMFx5V0o7KJHLlXUjUZgT/L/AMROL4NO5KP5p3LQ51Qpx1RWtRnUTtApBmUN6EucsXlD50TeVGg0km7/ANp2ZZkF/bjkk6lfcdlnIDSaRzJHSKJS1mZKROYU6re5I5htTIJQqd5gbifjTT/hkH2Ul3Pe49t6pXAdvdtE3lRoNJJu/wDadmWZBf245JOpX3HZZyA+40jmSOkUSJOnfcvq6tsxKm+QrdDnHHCHGzOlYnBpZRKlbzSCqFuOX1LM52yVJ3xfht0cpM9C3lRoNJJu99p2ZbkF/bjkk733HZZyA0mkcyR0iidXyRuU7QyiVzpkiTNe31mFK9FJLL6ReSVEhUFKhMoXjCWlHdyZXq+zipW2E78oc8Bf1Q1J2BO44qYQlplAK5t24RfVCvSEhbCFIrkgb459qps77aqFvKjQaSSH803hsyw/pEY4yOipQ8dkDotCkcyR0ihed6KL20aYbvrcUEiGZMzeQ2mbYEobEzcpE/e44dkx4L7fiP8ATSsMDeZan7T/AKIlEuWKserR1nYUhwTpUJiIlEmP8pc3ZtHG+mihbyo0GkkeWTp2ZX1J+4Y4v5PHQNmUfIJ+0UjmSOkUKUf1F7QOETpYQV9u9srcA3UnWF+USF7iS6J+o3qWXq6LlxZeiTdJ32h7f8TbLT4/nN+I/wBG0k551TW0LeVGg0jLnQWDsqHTcSnz8sclTfRWDb/xsys8zlzZepHMkdIoWG+ZM+0lso6S0os/52ZUxNP6xpQ8InG+Ik739RtKrRSPrF8uOqNphlobzaAmzZkzw/luzWj/ABtG19FQNC3lRoNK0500BWxJ2uk5PZ/zjkqa6SAqz/nZfd6bhVSOZI6RQqHRSBtGlf1FqV4zeW0lTXQdUnxj0er9K5svUby+ignwiRN9J9A8dpKT0ClX1bVCudIoG8qNBpZIrmRc2XtiTNdFu6tP+McQn+ohSfPy2H3eg2pXhSuZI6RQyj920kA/TntO0l4/VJthkdBax40cvVzSdz7YkA/Un2kvH6U+1k5/STooG8qNBpXmTvtrnt/42JSRwUm4HZjkne4kLBOw6ON0hA/3spXMkdIoZTlFbT0d/bo0bSXdaftEL+UoUPAUfpL+1c+0xIu99h2npH+2c+3ayXJJ0UDeVGg0qfWGZt3cK+UOvr5I3PzVxQVG+Scdav8AtWtwuESVszpZ4X7qVzJHSKGVZVWnaejv7Zv7RtJb3PsEP/3SvtTRy8c8mc+2JF3/ALDtPSP9s59p2snH6SdFA3lRoNMlD7zjiU8EKVPNjxMmdW0T0FTROTOaVzJHSKGVZVW09H5BI2kuP5gPpEOfOUK0CjlCOk2oeESA/nm8NpLz+iRtWxzJFA3lRoPvpzJHSKGUfu2ki+QIOcdp6QUP66h4w2ek4o+NJJxveqlYBztpKudVyn6htEJ51TULeVGg++nMkdIoVnpJB2im+Nt4jz2SpV4CHXOmoqiQDnRdWmekltzemeux234bcTvLSFbLDXG49oG0k4/PPZQt5UaD76cyR0ihZX0kTbSWyY8pIWP97dmWu7x9UQOs3tiSs73q2kp8KRt7ieaFovaokap76E+rPd2ZNJgapuc9Z/42il9BFC3lRoPvpzJHSKFC+gvaSVxRmQo3Cuo7LEkSd06u6V1CJGx03Uz9VKxKgL7Dkx6lf6IlMhWf1EeewSq8BEqlPJWvc/t4to4701TWULeVGg++nMkdIoX0cdzONq2pR9u2Ll0fPngrWblKROTDr4qhuW/2wp88GTtk9pva6WVSU/zEGbr4oafbvLaVfGkQiUSVV0hXhCpFJl/xDwmVNyU7SYb8NNdFN+hbyo0H3KcVcyR0iieb4p5x1bT10icuFcfMY9S+pDbR4SWxNPsKlCxu5Sufuj/TTLWgTNSn2ievjg/hn3WZ9+4WUwVLJUTxk7RKjwGt0aJvKjQcWCuczU6vyifFXMkdIokSlI4O5VtmJM1wnVXMNMNCZDaQlNMpDY/iGt21qggiYjaXoAVWLvrom8qNBxZhXO84PBFPLT0WgfrTirmSOkUS2nOCoTQtpzfTtVek30317lnq4ziC/SXo9E4N95sfdtBKZSP2JOmjbyo0HFldJqU+Ck//AJp/SDh5RbbTbP8A+OKuZI6RR3bdcne+cFKxMob42Qt0FMjQd2rn+QhLbYCUJEyQMRclck/hnZ74A3KorWpu2At4+uWLKRvKjQcW9KSbjUyHR3DTyNHHKH1O2XsVcyR0iknWLhzppj2brSh85xC1ekHStLc24RxwlphAbbTeCQMSd6xppm8qNBxZi64Lh9We2H2DyF3uripUNtidSzMIYkjZ3MlZSjt/2bFXMkdIppR3fPE3esaaZvKjQcWCkmYpM88ST0oyLzqAlfXSrlT15mSpuifnDz6v5iicVcyR0imlHd88Td6xppm8qNBxeVei5QeK6R/vXC2XhMtBmNGEpE5MIkicIlHD89WLOZI6RTSju+eJu9Y00zeVGg4u1KEcg3xziEekpDujcTq/Mmj/AOoSq82irn0wtxNUnct9WLOZI6RTSju+eJu9Y00zeVGg4x+BlB9ks+zJ4jzQqVyFPsDw0Dkf4oQ6+CmSp3z0/lA9HSOZJmmXc8lPNi7mSOkU0o7vnibvWNNM3lRoOMiSS5Xtt5KlcuC96LEx42tUFDqShY3wRtZkicmA76Tnbb4m+M9fNH4eSXPr5pkpG8gQVLJUpRnJxdzJHSKaUd3zxN3rGmmbyo0HGks+k51J4nePtgKcQ2+nkrSfOCZFKZuZLg843Abd/avXG6Qhv9yx5RPLJSOpsecXbTaUTb7i9+2Cz6M3auN3iHVBUslSjvk4w5kjpFNKO754m71jTTN5UaDjd1JXlNn5RNK5Oh35pNzG6alAP7Rri83KM0a4IkkmSn5rM8fxbylDo8VmNOZI6RTSju+eJu9Y00zeVGg++nMkdIppR3fPE3esaaZvKjQffTmSOkU0o7vnibvWNNM3lRoPvpzJHSKaUd3zxN3rGmmbyo0H305kjpFNKO754m7N8tNMltkpBC7rdRWMWnVFYxadUVjFp1RWMWnVFYxadUVjFp1RWMWnVFYxadUVjFp1RWMWnVFYxadUVjFp1RWMWnVFYxadUVjFp1RWMWnVFYxadUVjFp1RWMWnVFYxadUVjFp1RWMWnVFYxadUVjFp1RWMWnVFYxadUVjFp1RWMWnVFYxadUVjFp1RWMWnVFYxadUVjFp1RWMWnVFYxadUVjFp1RWMWnVFYxadUVjFp1RWMWnVFYxadUVjFp1RWMWnVFYxadUVjFp1RWMWnVFYxadUVjFp1RWMWnVFYxadUVjFp1RWMWnVFYxadUVjFp1RWMWnVFYxadUVjFp1Qpx5TZBRc7k0z6uK9ia0HlCaJjv/AAqk9M3WKPD5z2/CraOimbFGnOkmb4UZT+afFbroKn+FHXOimbFXW+kn4UuumqfFnk8V1OPhKYX4ab6KcWukD2qN75/L4S/Eui9yB54x+JaG5PD6+f4QmNWOEYATeAxgpWJ0nfEXO+g30H4OShsTqVehLae8ec40UKvHiPNEzovcSuI0vANkXml5sVDmbFSuyKlUVXiIqvqEcAZ0byc6ORbHCbtjhtWmOG3FYiK1MVqbIrhZFcM2K4ZsV/0RX/RFf9EV/wBEV/0RX/RFf9EV/wBEV/0RX/RFf9EV/wBEVwzYrhmxXDNitTZFamK1EViI4bfjHCbtjkWxyLY4Kc6KsZwiq+oRUmKlUVK82KlzMMVarI3jShDSStR4hF25unVeGOFDqQpJ4jBck062+bjGwAkTk8UXwEdZjdvDsEbpxZjlHvRVeJipRZF5lA7kXkJHZ71vgGL7aD3YqW82KkReQR3ovKWO2Ny8R1pjcLQrwid1Ew59m9uW+mYuWhf41cZx8rYmbd8DEywW3ExfIX1iN2yOwxum1iOUO7Fb4GK5FsXnkHvxeWk9vvW+QIvuIHeiubzorhF5ZPdi8lZ7I3LJPWqNwhCfGJnVzjmiYX4Dksvfk1xMkTAcXuGZxCV9Yi8gtn8pj2Lw6lCKq7H5b8TLSUn57bhm2Lzq86K9zOiuXbFcqK3wEVv0iOGM2N9ObHIsjgt2RwGrDHAbirRFUmKpNsVItipGdFSM6Kj64qPrio+uKj64qPrio+uKj64qPrio+uKj64qPrio+uKkZ0VIzoqRnRVJtiqTFUiKtEcBvxjgt2RyLI5FkcJObFYM0RW/SIrjFcqK5edFc5nmKxVsb523PG4ZV23o9q6lHVfjd3TnWY9k0lPZ7nmWkKHzEVVyfy3o9k8QPmJ4wgZkYQMyMIGZGEDMjCBmRhAzIwgZkYQMyMIGZGEDMjCBmRhAzIwgZkYQMyMIGZGEDMjCBmRhAzIwgZkYQMyMIGZGEDMjCBmRhAzIwgZkYQMyMIGZGEDMjCBmRhAzIwgZkYQMyMIGZGEDMjCBmRhAzIwgZkYQMyMIGZGEDMjCBmRhAzIwgZkYQMyMIGZGEDMjCBmRhAzIwgZkYQMyMIGZGEDMjCBmRhAzIwgZkYQMyMIGZG7fvfJEbpJc/cY9khKOof/XT/8QALRAAAQICCAYDAQEBAQAAAAAAAQARITFBUXGBkaHR8BAgQGGxwTBQYPHhkKD/2gAIAQEAAT8h/wCVEpahGrkr0yT2hMbK0WuQz2QDgFRRLXtM8QfSMELQnXRyUmvTZ+hcE6FgCN/Ik/gZoxEnJHJNvMGQwcA3ISKYXQn/ANvbz+fG8BJFACPggVRbgFXoaJOnEHACbzhgEzO4AHMESiiBMcnIU6OIhsWSN2CEUSGINHEkI4EEYhFEFcFpsU4/njxvJFFG8fHdNTn7xD7OpxVdhyjcGgVtCpXyH2DRK03sBDzb4vzhGgASSaE4QBj2DAMAEDgSPtTDgGv52/yDFEXIuLuQ0i8kyIYeQw/OFLmT3eB54GgSE9kHwec0E4vHJkKYH7wMPJH5y4WDgg4hHTBkwvBOA5iIoAJJJaAiTHtShmBLlgHJ7+R2zQP+cKHOju8DxwAodNgVNsUGvOYos5CWiSwEy9FaCtKP4W3k8oCnB+0DHyB+cA0ACCDSmCAMO44lgRwIWVywINqCUUPAk7wrCSY4uPCLaqtmToP/ALYBHczPMaZeSJksfAY/nTwvJFNG4fPb4z7Bolab2Ih4t8X50bwEkUgo+CBVNuB+EkI4AAclFEFeFotU4fn2BOhcAhfzJP4GaMRJiBiDZzBkMHIF6UgnF0Jv9vfx+ilLUIVcnenSa0JDZUnz8AyXCbE8HJz1l2ohuCMALQnXRzUmvTZ+lfzt/dPvger/AAD+mm90Ej64mCzwoT+mY6YLxCDJg/ie+YWAnAEKofKSDNvh5IraNFtGi2jRbRoto0W0aLaNFtGi2jRbRoto0W0aLaNFtGi2jRbRoto0W0aLaNFtGi2jRbRoto0W0aLaNFtGiYAF7jZyFXfk2jRbRoto0W0aLaNFtGi2jRbRoto0W0aLaNFtGi2jRbRoto0W0aLaNFtGi2jRbRoto0W0aLaNFtGi2jRbRoto0Ula4nj2mZyq9ocIc9jZ+nZyK206gAoOcywUiJU6yGqgJcUCGXzzTynmTJOJj1oyt58WfrgXOC4SILNepkQKD8TLJMdtG/N0wAT1uDJMTmaBFh9FBkJny12I7aeJouk3aXSWpuYC9k3Md4Crx3EzPCpmeDKanhiv6/Bf4BXa4HRbRaLt8adskHHMg9u/FzIAiFvnot8l2GLRdrgdE/oFP+0lOyxk5JZyWECfkW4nZEsDVOSPegBkXvHSglwcDCiIp7I7yQMANFjd6BRhIAYHrpwBCJ0EUC/+PPJC0QpCbnhTYlgJ8IN22laA8EB7RHNWs1RohWmUXJ2gn2iSVwD7RJIRYKJJlcBoiSeMiaeMRLMlpp6ZrSSnJnH5iGZkRwZfYcPmYkSL2TMigFId9Acsd7QDLHfygOvc0QHO7PSA2cLuQ8FUklhIRdFvpESd4KLmV3A9FGMCZGs1JL8ssjgE4Mqedom/MmJFRyVuGIWg6wcbkBmJqWKMDI4AHAtSQFDwRiqTmYZoGaXc2SJhdpPmCe3PsAA8RVOZ3HJEuSSXJrj1veDMjwten1762Z9gkJuF4JORTGCDKw9MgIWcSH8ojGQx/wBUEGesQc0CDEnsL8JKICNdUe4kgkCAnLSGsdUK4KSShFlJ9hXaf8VDACS0ZImxxqJm/RGXMkay+Z+jgykP7GjgbswsG8voy72KfIkUCRgFgFQqs4E6FMM4/wAxDqDGZYoOpfItiFIHa2zgQCCDEEVUIoX8maWMwoySACcf+5IhMDqXDfRQdHEDURTvuiBeDYJqCoGAs+iJRM1AlREQGklzgP8AFHxcET3DiEOEreI2oiTJwRV09DAukJdyYkkuTF+/LD7UD+VMxtG8QRPnQf8Ac0egNpDMId3AoYkKcmR2IKlLFvyFQedtft5yipj7CPhMLRqwynQWgRuWF0LMNbM8plY3XoUiBFJD5mKAAAADCxm5nYcEY213TuKXciUAsNcfl7FOES7CphhwckRPEI8IuQr3tEztch9IlkC1kaMxaJ9hGiE39UaA1xRBIl5HpEEnWEjRnuohomwdU1M8Rqm54IKa9YJTM8SU3PFJuePTE8cmJ3oKbnhFVxYJjVkmIoVx4sm7JjQMlUA4FPUsFV4Cf0SnpIPU99AksYn5Y9OSwmT8sQBAssw1QLMBc1QLMNxA0yN70EDzHeT6QpB2AoHTg/2hSOwAINnLYRogphAGJc7lqg9N/Ky9hdSQsAD5gS4OBhREU9lTQQk209L3oCLaFGbx/JuJmJ7hj7PSv1MVwR9flHNg0NoMs8ula2RDasn/AD8o+0i5fDpWZkG8nl/yhEgQWIkaiKUzMhYx0YJeOdyImiEY93p/K1inLyMiOjrRsN4fMJawgJkxNFn3UaNGjRo0aNGjRo0aNGjRo0aNGjRo0aNGjRo0aNGjRo0aNGjRo0aNGjRo0aNGjRo0aNGON4DwiCBMnufmJOgeM9Oj2mp+Wl28h0ZtNT8tLt5Dozaan5aXbyHRm01Py0u3kOjNpqdZLb7q3kOjNpqdXLed6aKBnpenJE5gtE1bgd45lwWPWwEALGiYGudhCc0ADPtWOrt5DozaanVywgIIR6gIhnwNyBAIogMiOsgJvRWSyZPLVAEEYgEZ1URnk6u3kOjNpqdXLj+8s8BwA4Q9AHNYEjx1inovs0BxbhROK7A4zCMCeqt5DozaanVSwIi1HGGJG1j5qlGESIXgN5dYRnfEQakUQDAhwZqcuG0Fuqt5DozaanVS5bILSVJgOBY6Buxg8nq6UUjIXcNQ4lHmJAsJceUOpt5DozaanVS6Fhew8QvqNjHqxNd8OPhFEHfj1RbyHRm01OqluRFsiPrj2PLCQfSPVFVl2zR64sbuB66q3kOjHyc1IYRYCkbZpb2n1qCv7UHcOolhF9/EFluejPq2D1u4jHf6g7bRxmTG49yQLaEnxGKZsViXB4MlPsEAoE4Ii/Q1hyEpoGzIrSKJNPAhAkxEiisdiI9Wgmvp5eW4za6yPVDq0Zu3KsQxJ99zkjeJ8niRGELO8oMFADgg/O+IGJbjW5OHDVEmk8huhrkKCpK6BQDbi3ppeR4rZaymPVDqudO26UIhgwEXRNCCg5YDlNGsjKNXc4uI+cxX4oHmc3q7mO4MHQ336aXleK2+sjP7RGZtuxbDEs/HMUYwiClkwTADa8DEfLRCsrIEBiyIQ+nrJLnmOAxwB7hUbsVpmN1dLLJrPjId3EjPqgjey4k37HTHbbouS4EP9v5HBrYC6BUBSU+Gh2F4uz4I8olg0FRqnzPlLXfKUyYMHHZowwofv2j8+EQNbRYgaDYwclFDU48tIJtYY+X6WW5lJYiHHu5ioIz6vegf649uj5PvpbbdTJeMBmU7z4gBY33JYIPABiaSQIm8xtPAUV2sJDDFA3opZFkC/GR+VQ6JWscggQAQImMcPPB1Z51IILjAkKPu4JrmBwbkfjt2j/H6WWU92n4eL6diQdWBNol2dnHmqAKKOkttiYgwAPtuTQvIPOXELyiB7EuGBe5RBYHaHZE/KZ4eAuj0Q3oYB7z4ZOKjsN8HxyDSyJuN76WX/LzL8KFtWH6w/n5iOLukbFnS23K8Yz/nIIgIhDYc+PEBiBNpJr3iiiIQRNiXy0PyQ02e5IfaDJQ7jeuLXnJTs1g5P4Eh6WXKPdf0/hw77WF1n+zkbhCbKWNF+lt7o4P75KMMu5BC5odYYXaQMU+nxsGWy9HXkYsbyMYHI/APB5e9ExAPSy3Lm5vsyA4VEmvE0dYWgTGHsHA46YC0QInLpbbxqZgAOSi180PvkZqD+a9rd6v9/G1FMzLs5kAn1yPFQeEv65SeJnMA9LLdsSzvUP8ArHg7Is7ixzBPWOSSGcpDxyTvKME3JIay1zlm6a28e1nyNzv4jryNzu4nRB/7X7+Qc0zQTwLyMJqTAjy7HV6SXJAwI7hwHEDNEyALAm4a9gUQUuBJp6wQRiLgNUuIA3j2mDZMNaeAGZ6a3sdfkJ9m3ITPf5H7rzAxJG77hyJOK8zU5RdqMkOmlzaJKFgdcCTrEkMi5GBxDEk9NbYXcz5H/wDxBvXIxlGEB6T5rWX6+NrJ46QXdQ8RD3yd0sVD3y9nVgBp+Ll223bxD8gTHc3eB45AGDhtYCHpbK9nr4yHnEKPILDBhy5GjSivcyHJ2zsRUJAQ/Fy7dH3im9cgXbJRADMnDiQRiSTUBTgjmaUvLqErOY/2+QDg4uE91JSpYQ488W9MATYR8yOR86A83r8ZLt94x1h/3kdB4PA+HEDkxgSvcumeSgb4OI+RqZ8T3SWSCIOP7JIgZAG/jFCBxVF0DHkeSRsTDw/4yXbaueQQfYHIKOT5sXuLG7iCXisPEnJGnQCvHOT/ACt9FzdrUIATUkDechDYBwO0yJJeQFPYMFHByLqGQDkckRGB7f6P4yXbYmJHaCI8NyAknECEDr30Z7aoCsoWWAAiTYjGpkdQU3xN6bg4KbtkflDjgjdoxzAIMRi/BxIlsQgowA4cEnSCKCEF4YxuTzvIgOQgguUkEOJVomJOJ6+X7/PI6qHXW+xE0ZsIE7VEcgCZLAxDURSFrGseXfgVgGXAGfzIJiLEhQ4xvR21tFrIkEnLgnkIEuxbUZ+PoJZMESIFza/OUkVjED319trqp1GRxPMOOFDsKTcE2iddgG+aPy53DTeHpGLFMQaOQETREpg8rtVC76CWAU3ANb5wmKEw/fX2wCOUV4nbSO6EWxsRQeVoOIjI2aLj0DmUCsjUHkX8kB8CIk9pfQy20DhkmrUfNKCCxMLSPw+gthCFhmxq37RNJjEEjxC59R72CGjUKgBV0BDhizFSIsX5wh4UXLye+j2qPvnEJspxuUpSEvoZbJzAalxrwSjP5nc7KoFozOP0NuWREJhtEjuKxKmYMULMhSg95mbWMg79ZQAHRbTU+kl054GgiEDFk9cxg6mkvDfKwAUYpJRAh85PeMn0dvIdGbTU+kllnBACt1AOYiQZ/Rd8s1IJKAtgATcoVxZXkDRh9HbyHRm01PpJYVM0dlz6YbynLGjTR+I2o9gBF0dNjxgxr9byf6O3kOjNpqfSy42JtAmME0k0bEaA2iRs7JvhCCWYANGHE7vmxEPjIiKO3+kt5Dozaan00sLDiiv5juafImekKwjR5m4HIPUEqnsohbTJVGv6W3kOjNpqfTS3LuENcAD87KiTT5tmEHEJJ4b9kZzLMxHKDGFMAA6YdMSd5bYhYcmw7o96hfa9+IDEn6W3kOjNpqfTywSTiBoTQbgEONinyjPGKUweEaKd5ZNEVyY9E1B9ZXsn4DAGL9xaZsCj8oFz3BqXQFzI2oLAowFKI3FyHJP01vIdGbTU+olkqKkogoG0SKtVDHfMeEeFYgC5sQAizUVwBFr8NgZsU+3G4CA+H1FvIdGbTU/LS7eQ6M2mp+Wl28h0ZtNT8tLt5Dozaan5aXbyHRlSNxuD5hLWETMmIot+6jRo0aNGjRo0aNGjRo0aNGjRo0aNGjRo0aNGjRo0aNGjRo0aNGjRo0aNGjRo0aNGjRoxxvAeMSQZEdj8xJUTRnr0YJeOd6AmgAY9mo/K1inLwMgOkZmRbzeX/KASAAcmQrJoTMyFhHSNbIhtWD/v5R9pBy6PSv1MVww9/lHNi0NpM8s+l70AFtCjJo/k3ExE9wQ9HpnFDOQKCXGmP5IAsDiYUxNHdUUEINtPTUMC6QhnBgQS4MG7fkXYYAY213UPkWwCgjtbb+QCHAV/ELUBJkwAq6gVwUglKLKT7Cq0f7+OJ0KYJR/mAdRYzPFD1R42IjETU8UYGR8gBMg9zqQFvFAszYSKlenogaQ8HlAkrwgeSnpHf7CgebLfQUCzDc9J+Ydqk9Nt/RPzBaeiFOC89KvFedEP6+iFJglV2OVZi1W4rVVmN1VeGLVVwYtU6ndetv8AS2/0tv8Aa2/2tv8AasdrVt/pPoHa1VQ4tVV43VVGM1VTjtVU41VWCVUYBVRikelUYoekxIt/RMyJ2HoiGQLetEUiXERyJupKIp5z2mZ4oPtEc8NEM7sj4RmgbKkBMN9TYVo+WSiAD31DuZIJCgJi0hqHWTgCATIIolv9eB450ADkmpgggI824FgcoiIF/m/pCNdgA1UwFtoUjce5vbJqa+d5THdQD0sgAUABKFkPtDnGAKzBAPlOpN0I8Ke3JI8FP0UqL2nZ7sH0iLsieCoheBdu1ASW7LEOe4fPi8RbmDECs5K3DEbQ9fFkJjy1WpxiQ0ZXjzIoIAPFuRaGKAgRd5N7RjXYQdFMDbaFI2HuL0yamvmeUx3UB9rIAFAgyjZH7Q5xiAswQB5TqDdCfCntyCfAT9BKi9p2e7A9oC7IHgKAXAWbsQEluywDjsGzQBYHEwpiaO6O0kBEDTa3cgUYSACA+hZyKn06kgpOMi4UyZUyzGiiJYUmHXTyTSnmBIOBjygkSLXspAG8EAyNhIKV6eqApHxeUASvAD5Cakd/sCA5ut9AQDMtz0m5l2qTU339U3Mlp6oU5Lj2q81x1Q/r6oUmKVXY5VmLVbitFWY3RV4YtFXBi0Tqd1y2/wALb/C2/wArb/K2/wAqx2sW3+E+gdrFVDi0VXjdFUYzRVOO0VTjVVYpVRiFVGCT7VRgl7Tkg39U7IDYeqJZEN60TSBcRPIG6kImnlPSdnggekTzx0SzuyHhGaJsrREy31NjWnmAcwDjIAO9ykRBpHzM80x2UL82TATPUwMkxOYpEWP0/bMLgTgSFcfhJFmzw80FtGq2jVbRqto1W0araNVtGq2jVbRqto1W0araNVtGq2jVbRqto1W0araNVtGq2jVbRqto1W0araNVtGq2jVbRqto1W0araNVtGq2jVbRqto1W0araNVtGq2jVbRqto1W0araNVtGq2jVbRqto1W0araNVtGq2jVbRqto1W0araNVtGq2jVbRqpqxxPPpMzlX6QwQ5rGx/50//2gAMAwEAAgADAAAAEAAAAAAAAAAAAAAAAAAAAAAAAAAAAAAAAAAAAAAAAAAAAAAAAAAAAAAAAAAAAAAAAAAAAAAAAAAAAAAAAAAAAAAAAAAAAAAAAAAAAAAAAAAAAAAAAAAAAAAAAAAAAAAAAAAAAAAAAAAAAAAAAAAAAAAAAAAAAAAAAAAAAAAAAAAAAAAAAAAAAAAADOEALAAAAAAAAAAAAAAAAAAAAAAAAAAAAAAAAAAAAAAAAAAAAAAABDEICABAAAAAAAAAAAAAAAAAAAAAAAAAAAAAAAAAAAAAAAAAAAAAAIAAABAAAAAAAAAAAAAAAAAAAAAAAAAAAAAAAAAAAAAAAAAAAAAAAAADABOAAAAAAAAAAAAAAAAAAAAAAAAAAAAAAAAAAAAAAAAAAAAAAAAJAMMAABAAAAAAAAAAAAAAAAAAAAAAAAAAAAAAAAAAAAAAAAAAAAAAADCAADAAAAAAAAAAAAAAAAAAAAAAAAAAAAAAAAAAAAAAAAAAAAAAAAAMKAIAAAAAAAAAAAAAAAAAAAAAAAAAAAAAAAAAAAAAAAAAAAAAAAAABIKAAAAAAAAAAAAAAAAAAAAAAAAAAAAAAAAAAABIIAAAAAAAAAAAAAAAAAAAAAAAAAAAAIBBAAAAAAAAAAAAAAAABGAAAAACCBDDKEEAIEIAMMIIEAMAACBBBDBAAEAAAAAAAAAAAAAABEEIAAAAAAAAAAAAAAAACCAAAAAAAAAAAAAAEANAAAAAAAAAAAAAAAEMJDCDAAAAAAAAAAAAAEIAAAAAAAAAAAAACCBGAECAAAAAAAAAAAKAAAAAEIEEIAAMAAMMIIAAAIEAEEMMMAIIAAAAAAABAAAAAAAAAABAAAAAAAAAAAAAAAAAAAAAAAAAAAAAAAAAAAAAAAAABAAAAAAAAAACAAAAAAAAAAAAAAAAAAAAAAAAAAAAAAAAAAAAAAAAAAIAAAAAAAAAIAAAAAAOMMMMMMMMMMMMMMMMMMMMMMMMMMMMCAAAAAAAAAAAAAAAAAAAAAAAKAAAAAAAAAAAAAAAAAAAAAAAAAAAAKAAAAAAAAAAAAAAAAAAAAAAAKAAAAAACAAAAAAAAAAAAAACAAAAAAKAAAAAAAAAAAAAAAAAAAAAAAKAAAAAIgQAAAAAAAAAAAAGYwAAAAAKAAAAAAAAAAAAAAAAAAAAAAAKAAAAALawAAAAAAAAAAAAJ8WQAAAAKAAAAAAAAAAAAAAAAAAAAAAAKAAAAADVQAAAAAAAAAAAAEgKQAAAAKAAAAAAAAAAAAAAAADCAAAAAKAAAAAHnqAAAAAAAAAAAAOQOgAAAAKAAAAAADAAAAAAAAAAFAAAAAKAAAAAK6iAAAAAAAAAAAAHAMwAAAAKAAAAHIAKAAAAAAAKAAKAAAAKAAAAAC6qAAAAAAAAAAAAOAGgAAAAKAAAAIACEAAAAAABEAAEAAAAKAAAAAKnKAAAAAAAAAAAANQDwAAAAKAAAFIEILAAAAAAFKFAAAAAAKAAAAAJIgAAAAAAAAAAAAFgewAAAAKAAABAEAAIAAAAAFABAAIAAAKAAAAANsgAAAAAAAAAAAAExIAAAAAKAAAEABABKAAAAACAAAACAAAKAAAAADmQAAAAAAAAAAAAALQAAAAAKAAAEAEAFCAAAAAEABAAKAAAKAAAAAAAAAAAAAAAAAAAAAAAAAAAAKAAABAEAHIAAAAAFIFABAAAAKAAAAAAAAAAAAAAAAAAAAAAAAAAAAKAAAFAAANIAAAAAFCGAAAAAAKAAAAAAAAAACAAAAAAAAAAAAAAAAAKAAABAEHNAAAAAAAPIBAAAAAKAAAAAAAAAAIQAAAAABQAAAAAAAAAKAAAABAAMAAAAAAAEDHAAAAAKAAAAAAAAAADwAAAAALwAAAAAAAAAKAAAAACHAAAAAAAAAAAAAAAAKAAAAAAAAAAHQAAAAAPwAAAAAAAAAKAAAAAAAAAAAAAAAAAAAAAAAKAAAAAAAAAANXwAAALAQAAAAAAAAAKAAAAAAAAAAAAAAAAAAAAAAAKAAAAAAAAAAAP3QAPCYAAAAAAAAAAKAAAAAAAAAAAAAAAAAAAAAAAKAAAAAAAAAAAAKdFIgQAAAAAAAAAAKAAAAAAAAAAAAAAAAAAAAAAAKAAAAAAAAAAAAAAAAAAAAAAAAAAAAKAAAAAAAAAAAAAAAAAAAAAAAKAAAAAAAAAAAAAAAAAAAAAAAAAAAAKAAAAAAAAAAAAAAAAKAAAAAAMMMMMMMMMMMMMMMMMMMMMMMMMMMMMAAAAAAAAAAAAAAAAABAAAAAAAAAAAAAAAAAAAAAAAAAAAAAAAAAAAAAAAAABIAAAAAAAAAACAAAAAAAAAAAAAAAAAAAAAAAAAAAAAAAAAAAAAAAABAAAAAAAAAAAIAAAAAAAAAAAAAAAAAAAAAAAAAAAAAAAAAAAAAAAACAAAAAAAAAAABAAAAAAAAAAAAAAAAAAAAAAAAAAAAAAAAAAAAAAAEAAAAAAAAAAAAAFCBAABFMAEMEIMMIEIAAAEMMIIEAIAEIICACBAAAAAAAAAAAAAAAAAEEBAEFDABDBCDDCBCAAABDDCCBACABCCIAJFEAAAAAAAAAAAAAAAAAAAIIAAAAAAAAAAAAAAAAAAAAAAAAAAAAIAAAAAAAAAAAAAAAAAAAAAAAAAAAAAAAAAAAAAAAAAAAAAAAAAAAAAAAAAAAAAAAAAAAAAAAAAAAAAAAAAAAAAAAAAAAAAAAAAAAAAAAAAAAAAAAAAAAAAAAAAAAAAAAAAAAAAAAAAAAAAAAAAAAAAAAAAAAAAAAAAAAAAAAAAAAAAAAAAAAAAAAAAAAAAAAAAAAAAAAAAAAAAAAAAAAAAAAAAAAAAAAAAAAAAAAAAAAAAAAAAAAAAAAAAAAAAAAAAAAAAAAAAAAAAAAAAAAAAAAAAAAAAAAAAAAAAAAAAAAAAAAAAAAAAAAAAAAAAAAAAAAAAAAAAAAAAAAAAAAAAAAAAAAAAAAAAAAAAAAAAAAAAAAAAAAAAAAAAAAAAAP/xAAqEQABAQUIAQQDAAAAAAAAAAABEQAwMVBxECAhQVFhgfDBcJGx4ZCgof/aAAgBAwEBPxD9Gs8XZVZeYRiHxIUsT5Dkp3IRk5qB9UFZKAlAMkxO6DLN8qVPljYX/P4JIWCwaPsNLAS0Uk625fkQ6PNn8KSdbcv7A4aPNmGiknC2R74VmknMDhOPiFYETbVgSTTFPxFvsMWTOMw6Sn4JooDRfUkFb5KS6l76W4fuXLtAfcIeb8DgPTiXGEFjQbIUMA0N3jR3LfYjJfjLDsbt7T2YuTwCB0RTHjdoNG971GPJr1bH8AgQfmd//8QAIhEAAQQCAQQDAAAAAAAAAAAAAQARIVAwMRAgQEGAgZCg/9oACAECAQE/EPw1waaDaAggvmwQgpQ82cJ8AStRPbazG+1iN9KAswPhvpCkjbsABpUE2aDjqYpQWd2An0FCK5vrMwtYyBCCvMdFa1qaWxbZNfEmV4/ue//EAC4QAAECAgcJAQEBAQEBAAAAAAEAESExEEFRYXGB8SAwQGCRobHB8NFQ4YCQoP/aAAgBAQABPxD/AMqDsRW9puJgTDYHSKcEPYALB7gN7OQqK59LskbfCDB60Qb1oFS4b2ZcwnQuYKVkojGhoaPGOxneknlTv28SidoSokn4AaJgp8yhpktIyvcuXxxlSsJ4m5gjArg1vAOgIzR4XM9FfYBeUZMZwZxiPIGKeV7cOm7I8yiSd6YlE/Na1nQ2NwdiQqNLoHTAEiCJFRmgnn8IrzcvR86vF5ptU5uQZo8pAlbcJoj5AmCnk1DZaSZQbmuGaR2KoatAejIprZ0QYgbDlxIqvcAmUV4LhJqywUIBdTexZWbtiTy8wEIu2CQqBJIoMVRd5cXNGx9pRaAe8fyNtlO+2++CNg3Aeboeo5cvjH6vs9DXZrgXUOKHam9+ngiCwgOU57QjPbAvVFw9Z+XL2jY+0onbLYwciEB91xiV65cbAISkAPg+CiArrFgMNk3A+b4eg5ckVXuAzCK8Nwg1ZY0S81Ug4BEFT2/gzhEZg3p92AeoLQlR+8VhMrLkKgfztdtQqBJIosVQZ5dQ86vF55Ncxu3ZXDVoL0JlNbOgDkTY8uhjKlcTwNzFGBXIr+AdQQnuXQOmAZAATKhNBPP4RVm5fOhc4UqIQGNDw8eMdrK9NPKnfs4lEbRlRINwC0TBTZlDzJYBne5cxDswW9puBwTDZHSKVWo/coADCUqqBLhoEAuQExZzmTb4SYvWgT+lAqXDezPmUrZeiRhrkZ5mQU6AKCT20QhQ/wCqrmY/rSKaW4yOSS4PVTqFN42vvyeyYdo09CakXUi6kXUi6kXUi6kXUi6kXUi6kXUi6kXUi6kXUi6kXUi6kXUi6kXUi6kXUi6kXUinixTrNMzYakXUi6kXUi6kXUi6kXUi6kXUi6kXUi6kXUi6kXUi6kXUi6kXUi6kXUi6kXUi6kXUi6kV0SReAZFhRqF9bmkZPJk9Rb+PYx8LzXzFBDuIp102ciUqgf8AGpFQIQTEVKHABXxxxnxSAMNyUYJGQItOJIQMh/8AXuPZMyXQ/wC38J4jgHXPeE1zNf529bhAFpoVCCo0IUmUjmmGASR15Ggh4bCt9X6Q+VijKkBEJXUK6rXH7uQS4UutGwEAHqCgkUFGQgCBJMueFA8U7EJKhaV7IzYDzPuThhz0A3jjhISkA1Rkk3Zn5btNsLRQno9wRA6KRRTrm2lQkhEwkBKN208SKdluEUIQkRHfBGxLlQcGI9HF63wXYHntXb8X58qeeKEtzlu/AoYoMQUBUPFJ2TqIOkEaRhGTMoASNtg80x4QUAIwYRriz2cY8SkOE+Efz8++N5jQfxiLDSOIARkzIGlQNsJND2YFBjFiDjcDt9X0FFIOo8aEX2LjDIGOwo9D4CUTKUVFINaBbQPZxOCoQZG1ibsipxxUCFloAVlHe9wFQC5evQRH9xigrr/Rn8MIBcMJI9j9KAnREM/7J/hu0ciARNwn1pQflOSiyKCDQB5x2/jDiSfVbYgKBphgREMQuCJdcRHe6h/CEIhbCAMA2EAIa60vCA18UW/wm+lMLBAkCOZspIwYMEJjwJoG8UegSi/DhLFYNON+L0YyzsoAEMFYKi2VRETqBG4EsDaaIfSuzOCjqMC/rheFStolDa2dZtzUUYHahivZsKQICQbQHX4lJH1rzCzhzlG7VvsBm7FEeQ8CkHY1U6SKmOglIeZSnnxQcWfEFih6AsDFB4+M0DMIQrGGjMQvcKjTkgKY29LQ2Q5LcQKYJajoiWVfsFCWo2RAsYICCzE8fu2lBbmu4Io7Z1AflVKhfEKJxd3JYqENJ81DsuLfnoB4p2ISVC0niLp8Ps/CxlY4eA+TKZ3KZJ0kMn34UYwsb2xPX15UcizsBMj4U4ToATHIevKj4myuL368K798vgPFyoL2i0AFtZKicHX52XHR9S7FyqHaL4WPwciAbF+uCP5nvjOOwQCfRCsa/wC1Vq1atWrVq1atWrVq1atWrVq1atWrVq1atWrVq1atWrVq1atWrVq1atWrVq1atWrVq1TGnwu1g5DNvqJ3Ma+F+z/tMGsGWA1gywGsGWA1gywGsdxzckjLAawl36o4OLDed6oYkOMIGT0zE6w7qQCpgPGBDCGxLygPWIAZbTZE7P3FjhyRDLAawAkhVqeXgdZ2lCaECxvhBPFpkToVLjMPKEoFXV2A8K073sGZlyRDLAax3Xl3ClWpZkJf7iyrqpKdid3qmrFAzxX8XELK9CY5GGWA1jwkyQicJAMQQvO+N4sf6oVTHcQHZUwxT6FAAu5ze/TkcZYDWdjusBQqBGS+uDK2PFiKd+aAw02dYFPtAoC/IwywGsCJOHwJFVBSByJjpcWBswQ2CI3SkGywOqkYDkYZYDWCDGdrKhViqkI0ilMeLDLDyxThAJzkCs/n8wZY9UMKHKLrESMVe2v0hUuyDE/JbxBYzKnYWZhWLFi6JncUV9Vv8qQm21FXDjPyf2JBtgSQ/hahmSioiCuCYQBno+wDIi7gQYAZHFfJ3CjkHf3JmJJNBehwICzJh2LuUPgnxCz/AFqo0IZzxUmz2ZmrLhhjZNh1A7AEFgQ5dVgsFJdchigHtjmKkF+B3Ai0b88YlKe8lgiVyGxjcBcSbAlGYWRVoZGgjIvBhw4WCa1UaFPdcVINlNTsy4UYE2tMAQ8FkOpidklUaORLYiYPQ35UxMggZFq0QztqoHA8AOscOWSa0ZGhDO4oVbPZiauFGEK5UG3gz2hk0OCzFa16BUGdV3Oh3rQP12TsZokW8PY6nauOUkRwU2mwhZ/ocKWZSV1qoo3iGdxUmawkGmaFgUZcKM+4xNfHYKvf7AzIkQbV+JekVQvEjtNh2IyxHVFfzO6upvcoVkZmg8x+iGa4ByuCDf6EE5msE7AUXIY46yoF2NkY1JAXIfhVZ8gKu9Olqf0pnFFfEERpAGn9FYS4QY/T6cXCJE8RpMjCUHcbyK/tixDe5QHZlyxjF+ZIseIat3tXcExorpTHlGKoLivDRRHPq+zEBHffNaJlsPwgQ4t/LhawDmGSuITQUYNmAcR7I8UDgo0DHXHPZpIFEBXRvJKHCBknwzjh2AYKP71E3lmkIFXHeJlDxEV+9jjJbwIedNDWkLhBgMMhmZ/fsH3sx5zhZY4H4v6I2IBuMDAatizU/DlCRLhBhxxgfGVscGHnDcM6WDiiu5mQj3hANhQpkBt/V3obYkVfdN3TO0kVYa/ZbEYG7GnhVkNgBAHwAXLPtFArMX0+LW4oP+xLTAScbP8AZEQGHCDIz+w2G5YrPXsP2RXfkIBAvu5fHoO1jx9IgQ+Ih3tsdkhIV3dn9mPhEWCaKyYYsdQmgyOJNuJAD24uKkGOWDVAtVuZlHuTgv4UYxNR9yzceF9v3pRT/H9Zu9zHpSp99y/XCqt4nCIsaeaELDikDUAZ0IZeBs1MNXHOOLdCryi4Rb3IADkAixQi80/HGHDBhNGhjYv9607C8n6paiJMku3aZsMqqqfOFmwM3sqTovCqsHnDNQIkHpzAodTUnMGLNAdm4jEjXxhOBQMgMsuxxcEvagpB8RQMtewzBwwyubCuH4D2DcSxS6JLdl/n6WnckeqHsXPLZaz4Oj4RYYoFi6hiHxKwsFFxxpGMbOyLpJ1xJyJNp4YYc5/oM7AANWyO6FB7av3aTQIERI5UT0aZO0WDL0+ye2wKOAM1+Gw+AStoajpw3dNgQAIuz7ofzNhgvKb7jYrR7WBDksCwYUIOo4djEuJwpcIVFKwJwOfP23rZx5fjm1UVpSldSA0OrdjzaE4IcmJYMa4QvdH2IxPB9bmadaLIc5SiBE0RQWjBF/q94YZTyAIgfDOkFQJjqd5P1+wOFREYo5MKwYWR0DcMOwAYKrwTqlgKTyugHgyoljJ3EvTvTzJK0GH2rR+NI7pDEaAkTbwRjkBxpAzi7bDxjv7F2nJiwY14bBHgaKSnBFSLxAm1KGEWL30O10owOxm5hUWPMkmJyUVfGLN6PIOvjMeSsULtHwiIPs2AhWB3v71IIllhzsHwGgAKyowAH6g5x6wsxpu9b9lo7jjjhlUggU/AHJFthu4W5DxgXA7hjiIXO1BEBl8Nq5nvpHvMASZP01FggDQ5xQ6cxuUfaSZ7DbvuZRQ+X8AsEh2kF67+RVx6QMiOswnNmDPafTHxp3ZcOSDiHCANM3zBh5dYx6bFGkePYkJg7AuInMAIujBIYqH5Xk/wFlYrmY32tTwsUceAz5z+RcQIcYQfocbJVRtKD+8zfZwA5CkUGtvXwfYxyfpa+W/wVh/bThVz4MJt6TjMpxWuibN/gAwfB/c16QO2pGyNJuLTRdFZaayjQtoAcAHACaCmC1HJIxeKGK3ibFyl5i29IUPaiRbCs9yLgSP4JYwCFJ0DnAkDMv3oEQmwzjAQL3h/BDB5KYMhagk2In2J5EJGyC+rOwHkQrVwp0BD+sDWPCNkNCZc88lFbjzz81LPensVzpsAmBjQ1tdjI7loMsBrDDWEYgICED8DeghuErD0+9LECAGE4j/RinyAKbnkMrBly0MsBrHPBDrAvBiRBEf76jqzQ2isXJsD17lzFy8ULjUO4zIAWoa3AsDIAynINOfLQywGsYgwvTwbq4wgD4kQhnggJRk49Y2AjORLcgXLCLIaNkGInb1RtmS5SAjkWtJJzXJuXBlgNYCBpEBL2riRnLBrk0wfBgiRKIdVhyW2ZEHBsVnWbB91GKOmDiYIBtrR0QrR5dGWA1gFWFDeHI/PKBAoFADiqx5WJ+PhB9hB2Y4uDBNjI7DcKfzF168smShOL4RISqB0FxJJ5fGWA1g2cgmCL2DfQNVhvsVqpmODhHgmaqlXr9Bbo3GQJ3Gp9KMUSYCVKIESzGAnYrddF3mGKIZYdnpkk1oR5gGWA1jBcOTaU/dAMr7fuBDTJ7kkI2ACESrJPwsRobBh3R6sGD8tTzMmKVM1tAM6M5ozhQHH/bgywGsGWA1gywGsGWA1gywAC5brij+5b4TjsEEG0BrGr+1Vq1atWrVq1atWrVq1atWrVq1atWrVq1atWrVq1atWrVq1atWrVq1atWrVq1atWrVq1RGnwu1ixDNvqJ2Oa+Nuzg6/Oy4yHqWYOVQ7QbCx+Ekz9svgPNyoL2g0AFtZqgcIwTqATnIenKjYnyuL36cKxgc3tievpyoxFnYCZHwqErnHwHyZTO5TJOkjk+/DByjfq5SwDxTMAmqFpPEGT4fZ+GCWKxaMb8XoxhnlFADr8Ckz61ZjZxBPqtsQPKAIMGCMh5EkDeKHQAQbiIkLLQBqKO97wPJ0P2nJRZFFBoAcoz/xhxTxKR4D5R/Lz743GO8OsZDst0S1NTxF31KJYACLZLigTCQSYE8RBRiahoW2rdBJ4ohxgtAUSESFsipFus7W7u63WVlISkkoQK0DREQitRWUqaFC0pJyoydgKmxCgSfmSQ+KFnj1R1g73SXdd30cns4nBUIOjawP3RU54wSEpgNUZBN2d+W/Whpd6igB+jAQxtLHjlfwXBouBdGtRRDhD4R/WEwB0A3E9ABshlBUHwe85BhQKA8HktEJr1LgB5pjQgIARiwhXFvo49ojgWWPcE1zNP8AHEg3hUUA/RgIY2ljxyv4Lg0XAuj2oohwh8Y/rCYA6AbgegA2QygqD4PecgwoFAeLyWiM15OAPFMwCaoWleyM2A8T7EwYc1AFw/g2MfC818xQQ7CCddNnIlKoH+ykVA65kOy3RLU1PEXfUolgAItkuKBMJBJgSxEFGJqGhbat0EniiHGC0BRIRIWyKkW6ztbu7rdZWUhKSShArQNERCK1FZSpoULSknKjJ2AqbEKBJ+ZJD4oWePVHWDvdJd13bjkOM+CQBhuSjFI6BFpwJCBgP/j2HunZLof9v45cXqp0Cn8bX25PROO0aehNSLqRdSLqRdSLqRdSLqRdSLqRdSLqRdSLqRdSLqRdSLqRdSLqRdSLqRdSLqRdSLqRdSLqRdSLqRdSLqRdSLqRdSLqRdSLqRdSLqRdSLqRdSLqRdSLqRdSLqRdSLqRdSLqRdSLqRdSLqRdSKyJJuAsywI9A+tzSMnkiOot/wDOn//Z;" vertex="1" parent="1">
          <mxGeometry x="438.1" y="210" width="116.25" height="125" as="geometry" />
        </mxCell>
        <mxCell id="hJNaefQTGlpcFomLB34I-5" value="" style="shape=image;verticalLabelPosition=bottom;labelBackgroundColor=default;verticalAlign=top;aspect=fixed;imageAspect=0;image=data:image/jpeg,/9j/4AAQSkZJRgABAQEASABIAAD/4gIoSUNDX1BST0ZJTEUAAQEAAAIYAAAAAAIQAABtbnRyUkdCIFhZWiAAAAAAAAAAAAAAAABhY3NwAAAAAAAAAAAAAAAAAAAAAAAAAAAAAAAAAAAAAQAA9tYAAQAAAADTLQAAAAAAAAAAAAAAAAAAAAAAAAAAAAAAAAAAAAAAAAAAAAAAAAAAAAAAAAAAAAAAAAAAAAlkZXNjAAAA8AAAAHRyWFlaAAABZAAAABRnWFlaAAABeAAAABRiWFlaAAABjAAAABRyVFJDAAABoAAAAChnVFJDAAABoAAAAChiVFJDAAABoAAAACh3dHB0AAAByAAAABRjcHJ0AAAB3AAAADxtbHVjAAAAAAAAAAEAAAAMZW5VUwAAAFgAAAAcAHMAUgBHAEIAAAAAAAAAAAAAAAAAAAAAAAAAAAAAAAAAAAAAAAAAAAAAAAAAAAAAAAAAAAAAAAAAAAAAAAAAAAAAAAAAAAAAAAAAAAAAAAAAAAAAAAAAAFhZWiAAAAAAAABvogAAOPUAAAOQWFlaIAAAAAAAAGKZAAC3hQAAGNpYWVogAAAAAAAAJKAAAA+EAAC2z3BhcmEAAAAAAAQAAAACZmYAAPKnAAANWQAAE9AAAApbAAAAAAAAAABYWVogAAAAAAAA9tYAAQAAAADTLW1sdWMAAAAAAAAAAQAAAAxlblVTAAAAIAAAABwARwBvAG8AZwBsAGUAIABJAG4AYwAuACAAMgAwADEANv/bAEMABAMDBAMDBAQDBAUEBAUGCgcGBgYGDQkKCAoPDRAQDw0PDhETGBQREhcSDg8VHBUXGRkbGxsQFB0fHRofGBobGv/bAEMBBAUFBgUGDAcHDBoRDxEaGhoaGhoaGhoaGhoaGhoaGhoaGhoaGhoaGhoaGhoaGhoaGhoaGhoaGhoaGhoaGhoaGv/CABEIAtAFAAMBIgACEQEDEQH/xAAcAAEAAgMBAQEAAAAAAAAAAAAABggBBQcEAwL/xAAaAQEAAwEBAQAAAAAAAAAAAAAAAwQFAgEG/9oADAMBAAIQAxAAAAHvwAAAAAAAAAAAAAAAAAAAAAAAAAAAAAAAAAAAAAAAAAAAAAAAAAAAAAAAAAAAAAAAAAAAAAAAAAAAAAAAAAAAAAAAAAAAAAAAAAAAAAAAAAAAAAAAAAAAAAAAAAAAAAAAAAAAAAAAAAAAAAAAAAAAAAAAAAAAAAAAAAAAAAAAAAAAAAAAAAAAAAAAAAAAAAAAAAAAAAAAAAAAAAAAAAAAAAAAAAAAAAAAAAAAAAAAAAAAAAAAAAAAAAAAAAAAAAAAAAAAAAAAAAAAAAAAAAAAAAAAAAAAAAAAAAAAAAAAAAAAAAAAAAAAAAAAAAAAAAAAAAAAAAAAAAAAAAAAAAAAAAAAAAAAAAAAAAAAAAAAAAAAAAAAAAAAAAAAAAAAAAAAAAAAAAAAAAAAAAAAAAAAAAAAAAAAAAAAAAAAAAAAAAAAAAAAAAAAAAAAAAAAAAAAAAAAAAAAAAAAAAAAAAAAAAAAAAAAAAAAAAAAAAAAAAAAAAAAAAAAAAAAAAAAAAAAAAAAAAAAAAAAAAAAAAAAAAAAAAAAAAAAAAAAAAAAAAAAAAAAAAAAAAAAAAAAAAAAAAAAAAAAAAAAAAAAAAAAAAAAAAAAAAAAAAAAAAAAAAAAAAAAAAAAAAAAAAAAAAAAAAAAAAAAAAAAAAAAAAAAAAAAAAAAAAAAAAAAAAAAAAAAAAAAAAAAAAAAAAAAAAAAAAAAAAAAAAAAAAAAAAAAAAAAAAAAAAAAAAAAAAAAAAAAAAAAAAAAAAAAAAAAAAAAAAAAAAAAAAAAAAAAAAAAAAAAAAAAAAAAAAAAAAAAAAAAAAAAAAAAAAAAAAAAAAAAAAAAAAAAAAAAAAAAAAAAAAAAAAAAAAAAAAAAAAAAAAAAAAAAAAAAAAAAAAAAAAAAAAAAAAAAAAAAAAAAAAAAAAAAAAAAAAAAAAAAAAAAAAAAAAAAAAAAAAAAAAAAAAAAAAAAAAAAAAAAAAAAAAAAAAAAAAAAAAAAAAAAAAAAAAAAAAAAAAAAAAAAAAAAAAAAAAAAAAAAAAAAAAAAAAAAAAAAAAAAAAAAAAAAAAAAAAAAAAAAAAAAAAAAAAAAAAAAAAAAAAAAAAAAAAAAAAAAAAAAAAAAAAAAAAAAAAAAAAAAAAAAAAAAAAAAAAAAAAAAAAAAAAAAAAAAAAAAAAAAAAAAAAAAAAAAAAAAAAAAAAAAAAAAAAABgywMsDLAywMsDLAywMsDLAywMsDLAywMsDLAywMsDLAywMsDLAywMsDLAywMsDLAywMsDLAywMsDLAywMsDLAywMsDLAywMsDLAywMsDLAywMsDLAywMsZAAAAAAADAywMsDLAywMsDLAywMsDLAywMsDLAywMgAAAAAAReQ0+PxDvzKSLJYImlgiaWCJpYImlgiaWCJpYImlgiaWCJpYImlgiaWCJpYImlgiaWCJpYImlgiaWCJpYImlgiaWCJpYImlgiaWCJpYImlgiaWCJpYImlgiaWCJpYImlgiaWCJpYImlgiaWCJpYImlgiaWCJpYImlgiaWCJpYImlgiaWCJpYImlgiaWCJpYIn9ZP5iQWkox2Es6xkAAAGlNVV/X6E/X5lP65jiiVPPIqlQiqVCKpUIqlQiqVCKpUIqlQiqVCKpUIqlQiqVCK5lL3352TqX9OpL6Od9DMgAAAGoOR112H4J1Y3VbYAAAAAAAAAAAAAAAAAAAAAAAAAAAAAAAAAAAAAAAAAAAAAAAAAfH7CpGmsBXoupKax2cAABg+VSeh17M9gjFh6OT+mWXg4yPAAAAAAAAAAAGMiB1+t5zXQ1+K3CpbJtLeuw1+wAAAFde70iPF2/kVuD1gAAAAAAAAAAAAAAAAAAAAAAAAAAAAAAAAAAAAAAAAAAAAAAAAAA+VR7e8WOOXfovZE7YABFpTUw5969X32KtNtiYfyoecgAAAAAAAAAAAAA94hyq3tZtb6GeWcoHbq5p9DAAMHEq3zWHHZu2abcgAAAAAAAAAAAAAAAAAAAAAAAAAAAAAAAAAAAAAAAAAAAAAAAAAADR7zBSyea+Ll+Gs2YBBad9S5cSuzEIm+P81kVc8AAAAAAAAAAAAAABEZc6kp5MPbAd366/X75p0vvsBod9yErDNIT3c6+AAAA0HEyxYAAAAAAAADje9OjgAAAAAAAAAAAAAAAAAAAAAAAAAAAAAAAAAAAAA4lxazlZC2HTa72IGm3PGit27jvaoq/WcmF8kAAAAAAAAAAAAAA/f42Mk3l+Evh8tjIrUYjWq4VXdLdltr6FXm0Nj3gVls1TUhlqat3KPsAAAac57x+ec8LgZ5/Nj1HwPu5poDtTlnRD3n5P0gW0JSA+UEOgI/qCuXdeDdSO7IrKgAfM+jn8zPa5joztSAz4I5z47I5D0k2oBoDfuQeY7Qgs5MgAAAAAAAAAAAAAAAAAAAAAAAAA11OrrU9JhbqkF3hVS1dHDT2lrjavPxsjNwwD67SWxpm/+Uk+lfb4V6WR5yenZz2tG33j671or0jGz6l1r6bHrrVN98JJ9QzivRANp6572g2X1+fXe9h8wh8s4UMdxftEIsXK5W0qX3ra+psGBRC8VDyQW1q7aIAAAQibip+j7lx8knftvk8NYJzzw+s/7T6isMdt/XQ7bv602VOG8ruDVosnuK19gIHyzxWRJRxSwQphItR3U1fYwAeL2+IpvMId2A1nr78KX9Q8cENzOuybAqp5LJVOLofWKSMgtdPX1Yju27wKgTfuNTS4/wCufdBAAAAAAAAAAAAAAAAAAAAAAAAAFVLV1iIVfagt6j4UduDT4ndieIdvyPnAqZr9/j2dyyPxbKGae7tfbG80syYxLbayax8Njr5fHD+9T8dRPa3G1iX7hryCOTOMyTeGaQyaHm8X50fXW328R2EcO2jE2hfvX5kmmlnvXm1Ov+HEW/2UOkM1n3w+YQ/iIM/Hanbfn3unvS+cyv6H7G5mcZe6ajd5KNE8s1WWzQAAAByXj/YOPluc4yVMlvPvaWOcBHfoTzcR25VV7QnpjckFMvrLIKdh7rEpaAU77rwrup08ADxe3xFNrM1mtATYHAozJo2WhYya2nlw6dloDWlcbJVtlh35wEd+4H+RMO9cQ7cZAAAAAAAAAAAAAAAAAAAAAAAAArPZishBLx0cvOQuptsKnnZOwcg6/jfMhWoP3+Hvsx/EW22pv/rwbz1+9wrExjNPLxLopK7eloPn7ccx+PHtc+e3V/bwd96+aQuaRxRzXbDX1c56vL6uOJZDJpDL+ts9vqtlJPFGM5PzjYa/2y2JHD5hD7WgFDHAqf6/L6foftLvj33y0Mv7RY3tpKjW4MgAAA5Lx/sXGi3mQqR03WwUts8fsHw+1fjvn2qZbIc1mVUj4TSbdTKwWoqN0o7sCnfdeGduOqAAeL2+IptaCr9oCbA4FG5JGy0GcZNbTu4lOy0H4/crKa2+qh1k7axkeP4VNLiZ5B14yAAAAAAAAAAAAAAAAAAAAAAAABVi09QjUX1pDeQ51Ui6NLjr/ZeCd7x/mwq5z9/j3dzfPyzSJ2bnn/f4zUoSvyevX630WpmMIlMFTQeWSxyCn+cZ9sFX8fCZRa5o+OaQuadSRvX7DX1c96vL6eOJdDJlDL+v75BEJf17DW31FDIbPXyia19YfMIdJPkUMdjPg96qnI4n0T6D7K3GcZ99U7uJW04vcmmdoyZAAAA5/Wq6nMjlneue9NPXWG1/nKpdBlWgInCe4dCI/Nv34St/l7TJja/QOc1yunBhOYjLiquts7zg8HdOYdQAHi9vyKXWg8swNgDgUb755CX5xk1tO7oQU9U21+wOb15udoDhu83HiOY7Lr/Qj5eoAAAAAAAAAAAAAAAAAAAAAAAAAPHTe0FXie3ArhY881Er606PDZqoVtM3D9Qz8YHu/wBpDPpe1ZT9Iv8AiSWQxv8ACpn4+3yQ1pT6Id99DXkv3ivxd7TT5UsnEyhySf3+AirvT5nnMzh/4WLePd4lerMfxEvRf15P4dD8+Y5bEcoKgV6aJyzl01nhfauLWe3PrOvgcr6pqSi/buLSgtSAAAAAAAAAAAAAAAAAAAAAAAAAAAAAAAAAAAAAAAAAAAAAAAAAAAAYOM8QmMSLT9T0+4FeLDwMp/YevHQq9OwIxflgAAAAAAAAAAAAAAAAFe++1Qv6/hutUm7mnvZAxkVBgFm6yFs5Fwju4AAAAAAAAAAAAAAAAAAAAAAAAAAAAAAAAAAAAAAAAAAAAAAAAAAA0m74mcXnMEsmdqyD8/oUm0Nh65FsNpxTtWH8pkQ1QAAAAAAAAAAAAAAAIDXmdQXa+p7bZCDzixcAA8VIr08DOF24p12I7oAAAAAAAAAAAAAAAAAAAAAAAAAAAAAAAAAAAAAAAAAAAAAAAAAADz1F7LwY9t3uAWSAAPDSi8vGSuFo6qT2rQsOxnH+aB4AAAAAAAAAAAAABjQ7/g1i5zeWw+z219T18AADXbEUa11lqxFtt/Tf1FvVQhb1UIW9VCFvVQhb1UIW9VCFvVQhb1UIW9VCFvVQhb1UIW9VCFvVQhb1UIW9VCFvVQhb1UIW9VCFvVQhb1UIW9VCFvVQhb1UIW9VCFvVQhb1UIW9VCFvVQhb1UIW9VCFvVQhb1UIW9VCFvVQhb1UIW9VCFvVQhb1UIW9VCFvVQhb1UIW9VCFvVQhb1UIW9VCFvVQhb1UIW9VCFvVQhb3xVP+Jnz+XvJ2bfYyAAPl9RTuDXVpudv6RULYUcm1qqSOG1qqQtaqkLWqpC1qqQtaqkLWqpC1qqQtaqkLWqpC1qqQtaqkLWqpC1qqQtaqkLG1h9Hit6Miuny3rM9sAAADFfbBik3lvFko4vGKOLxiji8Yo4vGKOLxiji8Yo4vGKOLxiji8Yo4vGKOLxiji8Yo4vGKOLxiji8Yo4vGKOLxiji8Yo4vGKOLxiji8Yo4vGKOLxiji8Yo4vGKOLxiji8Yo4vGKOLxiji8Yo4vGKOLxiji8Yo4vGKOLxiji8Yo4vGKOLxiji8Yo4vGKOLxiji8Yo4vGKOLxiji8Yo4vGKOLxiji8Yo4vGKOfa7uCsNlfUAAAAHMumimWpvFko4vGKOLxiji8Yo4vGKOLxiji8Yo4vGKOLxiji8Yo4vGKOLxiji8Yo4vGKOLxiji8YpN1iwGTGQAAAAAAAAAAAAAAAAAAAAAAAAAAAAAAAAAAAAAAAAAAAAAAAAAAAAAAAAAAAAAAAAAAAAAAAAAAAAAAAAAAAAAAAAAAAAAAAAAAAAAAAAAAAAAAAAAAAAAAAAAAAAAAAAAAAAAAAAAAAAAAAAAAAAAAAAAAAAAAAAAAAAAAAAAAAAAAAAAAAAAAAAAAAAAAAAAAAAAAAAAAAAAAAAAAAAAAAAAAAAAAAAAAAAAAAAAAAAAAAAAAAAAAAAAAAAAAAAAAAAAAAAAAAAAAAAAAAAAAAAAAAAAAAAAAAAAAAAAAAAAAAAAAAAAAAAAAAAAAAAAAAAAAAAAAAAAAAAAAAAAAAAAAAAAAAAAAAAAAAAAAAAAAAAAAAAAAAAAAAAAAAAAAAAAAAAAAAAAAAAAAAAAAAAAAAAAAAAAAAAAAAAAAAAAAAAAAAAAAAAAAAAAAAAAAAAAAAAAAAAAAAAAAAAAAAAAAAAAAAAAAAAAAAAAAAAAAAAAAAAAAAAAAAAAAAAAAAAAAAAAAAAAAAAAAAAAAAAAAAAAAAAAAAAAAAAAAAAAAAAAAAAAAAAAAAAAAAAAAAAAAAAAAAAAAAAAAAAAAAAAAAAAAAAAAAAAAAAAAAAAAAAAAAAAAAAAAAAAAAAAAAAAAAAAAAAAAAAAAAAAAAAAAAAAAAAAAAAAAAAAAAAAAAAAAAAAAAAAAAAAAAAAAAAAAAAAAAAAAAAAAAAAAAAAAAAAAAAAAAAAAAAAAAAAAAAAAAAAAAAAAAAAAAAAAAAAAAAAAAAAAAAAAAAAAAAAAAAAAAAAAAAAAAAAAAAAAAAAAAAAAAAAAAAAAAAAAAAAAAAAAAAAAAAAAAAAAAAAAAAAAAAAAAAAAAAAAAAAAAAAAAAAAAAAAAAAAAAAAAAAAAAAAAAAAAAAAAAAAAAAAAAAAAAAAAAAAAAAAAAAAAAAAAAAAAAAAAAAAAAAAAAAAAAAAAAAAAAAAAAAAAAAAAAAAAAAAAAAAAAAAAAAAAAAAAAAAAAAAAAAAAAAAAAAAAAAAAAAAAAAAAAAAAAAAAAAAAAAAAAAAAAAAAAAAAAAAAAAAAAAAAAAAAAAAAAAAAAAAAAAAAAAAAAAAAAAAAAAAAAAA//xAAzEAAABQMBBQcFAQACAwAAAAAAAgMEBQEGFRYQEhMUIAcRMDM0NVAhMTJAYCI2wBcjJf/aAAgBAQABBQL/AKgLOTKUIxkLok5A9a71f6MhzJmirwkY5aOkEZNp4U9PIQTWQuaTkT/f9xlPyUca3LpQnE/EUUKkS5Zs03IAtuyhy6alhpqWGmpYaalhpqWGmpYaalhpqWGmpYaalhpqWGmpYaalhpqWGmpYaalhpqWGmpYaalhpqWGmpYaalhpqWGmpYaalhpqWGmpYaalhpqWGmpYaalhpqWGmpYaalhpqWGmpYaalhpqWGmpYaalhpqWGmpYaalhpqWGmpYaalhpqWGmpYaalhpqWGmpYaalhpqWGmpYaalhpqWGmpYaalhpqWGmpYaalhpqWGmpYaalhpqWGmpYaalhpqWGmpYaalhpqWGmpYaalhpqWGmpYaalhpqWGmpYaalhpqWGmpYaalhpqWGmpYaalhpqWGmpYaalhpqWGmpYaalhpqWGmpYaalhpqWGmpYaalhpqWGmpYLwUi1SFhzXKPfBk5JGKaSsovMPBS3pM1NOSg05JjTkmNOSY05JjTkmNOSY05JjTkmNOSY05JjTkmNOSY05JjTkmNOSY05JjTkmNOSY05JjTkmNOSY05JjTkmNOSY05KDTkmFEzJHQXUbK2xcqc2h4d/TvBSFpwuRd/0iqRVk5iONFvyHMma35SkvF9ZzlTLddwVm3otaB7/3bggCySaiZkjtHarFxAzSU4x8GSfpxjJ67UfumjdR24jWBI1n/S3pGcyyHZ/KctIdd93DuFFuQuTc0pQtP3bmgaOyCEmFYV8zdpPm3gdoMxxFxZET3F/plEyqpybKsc/brnarxzwkgx6Z+WLCxqyx3CzFmo/csWace2/fuqD5cwse4ORc9b94SPZu3J3jlgzO/dtkCNUP6e+o/wCg7O5HjMum85msnKC04nlGnwCqRF05qMNFvRaM3mI3q7Q5PhNBY0b/AFMuyyEdWndWzn3JT3RdctiYgQEbkpD7fBXDF5NgLalsPK0r39V1P8hOFLU5oplSPj/6m5WnJzJDmTOwdUfMtt9SfPS4teP5KN+DuqO5KQFkyeQhuiae4+L7+8Wqz5yZ/qr9afUWK75iB2Sj2kdHqKGVUhWWQkf3ylqetUFKU23Gx56LFiyHJzXR2hO+DDiw2m638CXlkYdsW4nctL/pTl48I1mLqOY7+Mu5vx4Qdm7vdX2doj7gxosllupfvsfOW8rommfIySKxm6zNyV4129orviygtpvy0J4F++ghvdv0pD19i+0/xj9DmmQslfgXDsv13zE6IZrycZ++x85fyui9mncoLGdczAbbrX5i4EyVVUSTokn1yMkhFo3VOs5ZrHLEbP8AWUUGzgjpALLJt03d7MEK/wDkANb6Zq1avEHyYrXuoa8IstY+4GEotsUUKknrKKEbMtpYL3XGNlnahVXVrz7KLYR9wsZNfoOehCayigV0kZs8vdkhWl/iOu5g/OJKbZxVFL/ToZC/UDmYyLaSS2yEwzjKLX6gWpb/AC1qxuyNe1+WkUuBIQi3Al9ks652TjG/NyHSRMylSsByBQZgFEjJ9Cbc6gowoOQKDszl6KMlK0MStDkYmqOQKDsa0BqVLXZ9wmyMYcgUHY1oGZalXX8routDjQ47NnXcfa9W5h5BJ8WY8C6I1xKMJKCeRSbdE7lbRsqIpudrHO3abFtMza8wvGQjyVqWwVt2Std/GlYSLiNXiJROWZi8oPhmaOVGTiMkE5NmLynN4zFkrIOo2PTjGkjakk5fqp1SUjoB7KI2zbz6Mkeh36USUytIIsbKeuSurFdJJqJmROwu47SHZRj+dXLYK27LwLqHrESSkU9TOVVMXNcGKSUUUcKsbMfuiq2E4KV9GuY1W27lOwUp9flbkJuThTVIcpt4su45SLFpJcWY6Cl3jJJ0SKq8oSvPnCTyh6qEocqhOGcNW/Er9CUO/wC4UfmCS5VaOW+/TYT8KJFTMo+LQUfmCS1FaO0eITY1b7lFVipUq/MEntDV3C7y/ldEmlxo8WItwrg2O1OE1Fql353wb99BDe7bL4kqnXh46so/bt02qOy74gsc6tF+ZnLBVIiyc7EGiHtqzONe3HNUiGdamVPa8Hi2uyQ9fYvtPS79KLIjCrKbL2b0Rl2jYztyzZpMGwnmxXUQLaUqpCLKlbpSDw8g8suGKamyRj0pNq5bmauLQf1exXyl3F7p0Rxt+PvFXhW6LIT73fQ18+v41p3V2Uf9xVlOKb7hIm4R6r3m2EPUhi136OibiwJ+D5Tu2szbq1ftX6Vbk31fsFlOIfYyV3iL+V0VChKkPaynDuDZLfSKFne++DfvoIb3bZOrcxL2c8ZMFdSxI1LEjUsSLqlo6Qi26tW69K99BNxRJdkuidsq4drOzWfBcU+2Q9fYvtPS79KLOT3IPZfvr7VLvTuyQ9ALT9iuxfgwYipuKZxupYkaliRqWJFyLN3EvYa269+UvL30Q/tN+f8AHRYv26Cm3TJqFUoogRQHYUBmihRWlS7G9O9YKM1Dn5BQcgoOQUCBKppyFPqCfg987Y38+v2P+bCn+169yO1lXuXX8rpkadz+Dr3TOyWpvRYs+vdO+DfvoIb3bY87+cZxL2QT01LDTUsNNSw01LDTUqG9K0Q2XU8Qeyot2RSkY3bIevsX2npd+lFp+xbL99fafvuyQ9ALT9ivbvww01KjTUsNNSw01LDTUsLTh37CT+Uu+vfOiLLuRl+f8eFjfj0kUMnUj8FdJmHf3g6RVKLo8IzTzxV8WlcgQZAg58g58gcuKLbCfg98/Y38+v2P+cf93XkbWnnr+V0yXuMJ7zscJ8VAWsbcnfBv30EN7tsmkeBLWE5p0KrJoFIqRWmy7ZzkG6KJ3Ks9bh4dOEljxD1FYjhLZIevsX2npd+lFp+xbL99fafvuyQ9ALT9iu5HiwYjHFHcftq7b0U+Vuc+/OUp3hInDTvgm/bosY/++gpDHFW6hS7CnMQN1OKm/p/60TbqocE3FdtGyhqGIYmwn4PfP2N/Pr9j/mxN3KqF3yV+m1iTeVX8rpXPxVrZT4s/tkkeWkIZTgyvg35T/wCfFHonJ7L3jjJO4eRNFP2zlJ2hsvKZK8cQjIz+SEpIpxbN26VfOLLhdwj1mm/bSDFSNeWdOcFTZI07pCxD0rGdLv0otP2LZfvr7T992SHoBafsTlArpu8anZObNmykpsfvkY5q9dHfOrFYmIj8pLK8aTiUeYlBcqXHgRZim7KdDQ+4qYu8VVGqRhSlTVbp8JN+p9A2V4ibpDilqWpahu3qqb8aOVOIqCfi98/Y386v2P8AmU24ZM9DldN/qClqerdHgkX8roeqcFmLIR4txbbwb8vcJTVKZurRwh4F4tTOYcEuqVTTt94d9EvmSUg1l4VxELxsy8ijEv5bdkLvfviIN1HKttwNIduY1CUuSZrLPLfiKy74hCplF2QuQaUrUtbZm8szFxtTNJhhJuow9vXE+ey/Q79KLT9i2X76+0/fdkh6AWn7ELnt3KEUTOgowvF+zKpfq9SyMu6lVISBXmFm6CbZH5N0tyzate+tmt+PcIXRKuiqkZBW3V+BMdKDylafQ9OXSBUykCzoqYOapzBNSqRknJFAYhTjl06DeKSjh3vU2ErTdeV71tiHnd9Af8w3cVRqRQqlKoJmFCkSpzW8stWnC6LjW4MMOzhvvyG3tGabj4Ws45iE8Cv1o+slm5PSwKd8TGliWYWRTcJu7Kj161sAIWG2JVhFNI0odtSPUNGxQjoxtFpbVbSi1lWNuMY5wJOHayyR7AJvRlmkj3fQclDk0bFBkzSYN9klBM5ZRlbMewcbFUyqp6NiQyZpMG+yQh2UnRewm5q07Pw0suPb1TTIkT5S6nHLwg7OGm+82Xc15SfTOZJRutRyh0lOYo5hUVWObqospQcwoKmqbxaVqUcwoDKGP13s43GY7PGvCiNt/NOYgxYbz/P9Vfrv/IsJry8Fs7R2O6sLSd8xFfC3c548qLfacjDbZJpR+wOSpD2285KY/qrnec5MlLU9YxpyEfsu9jz8ELRe8tI/CKqFRSdLmdOIRlkZXpvJhyE6IR9kYz+ol3uOjq1762gx56d21p30no7FyqahklI54V+z+Du15y0WOzqPqo86e0GN5iOFjyXDcf1F9SP1HZ5G8Fl0doUTxWws2S4avwd1PubkxacdjYTpctyO28gyPHPWrg7RwxeEftP6ZdYjdGQeGkHrVud44YMyR7Podtk3jeTj1It8iqZBWLflkmXwMw/x0eY1TVtmMysx19oUP30Fky3DU/pr2leEiOz6J4zvqvyD5pqLYl8e7+Bu+S5h2LCieUjut60TfNZOPUi3ySp0FYaSLKsP6R26TZNn7xSQdt26jpeIjSRMf1GLQ5bog6wkiLWmecQ/fmZGkYwOeqhoKMNLyaaZUU/AvmC59oEHjhsMq/GVfjKvxlX4yr8ZV+Mq/GVfjKvxlX4yr8ZV+Mq/GVfjKvxlX4yr8ZV+Mq/GVfjKvxlX4yr8ZV+Mq/GVfjKvxlX4yr8ZV+Mq/GVfjKvxlX4yr8ZV+Mq/GVfjKvxlX4yr8ZV+Mq/GVfjKvxlX4yr8ZV+Mq/GVfjKvxlX4yr8ZV+Mq/GVfjKvxlX4yr8ZV+Mq/GVfjKvxlX4yr8ZV+Mq/GVfjKvxlX4yr8ZV+Mq/GVfjKvxlX4yr8ZV+Mq/GVfjKvxlX4yr8ZV+Mq/GVfjKvxlX4yr8ZV+Mq/GVfjKvxlX4yr8ZV+Mq/GVfjKvxlX4VfulyCwIPeN4E7Dpzce6bKs101Tonyr4ZR8Mo+GUfDKPhlHwyj4ZR8Mo+GUfDKPhlHwyj4ZR8Mo+GUfDKPhlHwyj4ZR8Mo+GUfDKPhlHwyj4ZR8Mo+GUfDKPhlHwyj4LO13Oyx4THsPCuCxFKqrW/KInw0kMNJDDSQw0kMNJDDSQw0kMNJDDSQw0kMNJDDSQw0kMNJDDSQw0kMNJDDSQw0kMNJDDSQw0kMNJDDSQw0kMNJDDSQw0kMNJDDSQw0kMNJDDSQw0kMNJDDSQw0kMNJDDSQw0kMNJDDSQw0kMNJDDSQw0kMNJDDSQw0kMNJDDSQw0kMNJDDSQw0kMNJDDSQw0kMNJDDSQw0kMNJDDSQw0kMNJDDSQw0kMNJDDSQw0kMNJDDSQw0kMNJDDSQw0kMNJDDSQw0kMNJDDSQw0kMNJDDSQw0kMNJDDSQw0kMNJDDSQw0kMNJDDSQw0kMNJDDSQw0kMNJDDSQw0kCQcmoaIsN65VQQI2R8G5rTTmqObWlmgw0kMNJDDSQw0kMNJDDSQw0kMNJDDSQw0kMNJDDSQw0kMNJDDSQw0kMNJDDSQw0kMNJDDSQw0kMNJDDSQw0kMNJDDSQw0kMNJDDSQw0kEbflFjW9YqhVv+kTf/8QAMxEAAQMCAggCCgMBAAAAAAAAAQACAwQRBRMQEhUhMUFRUjNQFCIjMkBgYXGBoTBCoLH/2gAIAQMBAT8B/wAnuYzqs2PqFmx9Qs2PqFmx9Qs2PqFmx9Qs2PqFmx9Qs2PqFmx9Qs2PqFmx9Qs2Pr8hVtVqDUZx/noqu3s3/j5AqJhDGXJzi4knn8BRVGY3UdxHn9bNmSWHAfAxvMTg4ckx4kaHDz2okyoi5cf54WCSQNPNVdO2Aix0YbLcFnnuJPsA3THTyy+6NyNDME5pabEWOiOlmkG4J1HMwcLrgo4ny31BdMp5ZCQBwRoZgEQWmxQudwTKKZw6KKCSKZusOaxLi3RRv1Jh9d3nuIG8340RNDngHmVVyup2gMTK2YHebhVssMrQWneqGASPueSqqwsdqMUNdI0+ubhV8ItmtWG8XfhVVVlO1I1TVkhkDXm91iLACHLD4R4hU9dIXEM3BUlUZTqPWJcW6GHVcD57XeOdAJBBCjrYpBaTcjS08u9v6VRRmEXBuFh9hF+U5lGXXJ/ay6Lr+1USwuhLWlYZ/ZVPjO+6h8UfdYl7oVNupEVT7pm/dYlxbo5ocPPMQFpr6IWh7wHcCqqkygCy9uabrAjVvdSkilOv0WHSDez8qqgMchPIqOMykNAVTSxwMvfesM4uVT4zvuofFH3WJe6FQPDoyzopojE+xCooS+QOPALEuLdDBcgee4kzeH6YsQIFnhenwjg3/inqXT/QdE1zmm43FMxEEe0CNfG0eo1SyumN3KmqfR77r3Ur8x5d1THarg7oqmq9IAFuCY8xHWaUMQY4eu1Or941BuVTUekW3WtopW60w89rI8yE/T4PDWXcX+fVUWVLbl8FSRZUI8+rIM5n1HwNJFmy/QfIEtAJHlzTZbMPctmHuWzD3LZh7lsw9y2Ye5bMPctmHuWzD3LZh7lsw9y2Ye5bMPctmHuWzD3KmpxTtt/i0//EACsRAAEDAwIEBgMBAQAAAAAAAAEAAgMEERIhURAUMVATIjIzQEFgcaAwQv/aAAgBAgEBPwH+T3Nu6zbus27rNu6zbus27rNu6zbus27rNu6zbus27rNu6zbv+BVE2IxHX/enn/5d+ASyeG26JLjc/Appchievf6h+b/18Fji0ghNcHC/fZXYMJ+BG0OcAVPE2Ii33wpH6Y99rHaAcWRPfqAuWkCIINiODIXvHRGnkA6cGsc/oLpsT3HojTSBEWNjwFPIQmRujkFwqzqOFO60g77Vm8luDBdwup3mJoxCbUSA66qofG8CxVNGHm+ymqCDi1MqXA+ZVUYtmFR9SppjGcWKGd2QDlVtGhVLGPWpKh17NUExf5XKs+uDdCO+1PucASDcJlQx48y8CJ/RS05jFxqqX0ItpydVjTqV8ZjIBVH1Km9wqP1j9qs9IUWkPCLSQKs6jh9od8qvc4MAc4AqaDwwMULg6J+kPmVI4atU8RY4m2hTWF5sFNC2Nt1R/am9wqP1j9qr9IVM4FuKkYYyVTxkuvsqzqOA1I77WDoeLKo2s4LmYx9KWYy/pAlpuOqbVC3mC5po9IT5DIdVDL4V9L3T3ZOJTTZwOylm8UAWsmOLDcIVTSPME6q1GI0Usvi206cIReQd9nZlGfh0jdSe/TM8Nx+FAzBgHfqiLxG/BgZm8bD8AfS5OuFyZ3XJndcmd1yZ3XJndcmd1yZ3XJndcmd1yZ3XJndcmd1yZ3XJndcmd1FEIhb+LT//xABNEAABAwEDBwYKCAIJBAMBAAACAAEDBBE0kxASISIxNaEgMkFRcbETIzBCUmFyc4HBBRQkM1BgYpEVY0BDU6Oy4eLw8XSCosBkksLR/9oACAEBAAY/Av8A1AUqiXWLYAW850TnVHED+ZE+azK19L/mRijJwJtjs6F5ZiqofOCQreKjqaZ7QNv28n4STXmL7uPrRPLVHGD+ZG+a39NH6vVyMLeY5Wt+yaOSyKsbnB1+tvKkcjsIC1ru/QikZ3+rhqwt6uvIxDRyOz6WVyk4K5ScFcpOCuUnBXKTgrlJwVyk4K5ScFcpOCuUnBXKTgrlJwVyk4K5ScFcpOCuUnBXKTgrlJwVyk4K5ScFcpOCuUnBXKTgrlJwVyk4K5ScFcpOCuUnBXKTgrlJwVyk4K5ScFcpOCuUnBXKTgrlJwVyk4K5ScFcpOCuUnBXKTgrlJwVyk4K5ScFcpOCuUnBXKTgrlJwVyk4K5ScFcpOCuUnBXKTgrlJwVyk4K5ScFcpOCuUnBXKTgrlJwVyk4K5ScFcpOCuUnBXKTgrlJwVyk4K5ScFcpOCuUnBXKTgrlJwVyk4K5ScFcpOCuUnBXKTgrlJwVyk4K5ScFcpOCuUnBXKTgrlJwVyk4K5ScFcpOCuUnBXKTgrlJwVyk4K5ScFcpOCuUnBXKTgrlJwVyk4K5ScFcpOCKWelMIx2vkehmfxNRzfUfkpKmpfVHo636kdTU7X5rei3VkZ2pJLHV0PgrofBXQ+Cuh8FdD4K6HwV0PgrofBXQ+Cuh8FdD4K6HwV0PgrofBXQ+Cuh8FdD4K6HwV0PgrofBXQ+Cuh8FdD4K6HwV0PgrofBXQ+CIJBcSF7HZ0EsBOEgPaLsmCV2CtBtcev1t5Rvo2mLXk0zP1D1ZPDzj9mh/8AIur8ylHK2cBNY7KWnLms9oP1imIHzSF7WdQVHn2WSe15AiN2ERa13dWRO/1SLRG3X68g11WOj+qF+/8AprzU7ZtUP/mnA2cSbQ7Oo56YsyUHtZ008erI2iQPRfyU1VNzYxts61LU1D2ySFa6jgha05HsZRU0WwW0v1v+Zmq4x8bBt9nIdHI/i6htX2m8h/DKQtZ/vy//ADkz5m+zR871+pMwtYzf056ukH7QPPZvObIFRFa4bJA9IVHUU5Z0UjWs/kY/o2F9WPXl7ehsh/SEzaX1Yvm/5nIJGtAmsdlNTF5haPWyjmhfNkjLOF1BUx82UM7s5UtS+k+bG3WSOWYnOQ3tJ1HBDzidBBDzR4/gD1tK3iyfxjdT9eRqCpL7NM+pb5peQmqZebEOcpZ5ntOQs51FTxc6QrOxRwwtYEY2N+aIK4G/lyfLJPRG+tCWcPsvynhjL7PTao+t+l8n1qVvHTbPUP4CUcrZwE1jsji8x9IP6sjeGK2pg1ZPX1Py4KCN9aZ88/Zb/fDJLXSN+iP5/mmog6SHV7VpVPp1ZfFP8eTKcZZs8vi4+3IAE3ig1j7F1fgTsDeOj1o//wCZIpifxJakvsq1uVVGz2gBeDHsZMIta76GVPT9IDrdvT+aqkWbVJ89vihMHsIXtZ1T1I7JQYuR4AXtipWzW9rpyCZN4yfXfs6PwTwgN4qfWbt6cgRm9stN4suzo5NXU7HCN83t6MkNrWjF4x/h+a6WqbptjL5fPJGD7YTcPnlqaov6oHdu1HJI+cZPa7qGF+ZbaXYur+n2C1qtceRKzNrx645Bid/F1LZj9vRyY4GfTPLwb/bZKmqfaZZjdjeR8NOzla9gs3S6oxkLwUHhxsjHt/oZ0/0YOsL2FKXyU0k5vIZTva79jfk2brjdjyVtK/nC0jfD/nLDSjzpztf2R/22SarJtJagfP8AAPgj7OTPC3NzrR7FHNE9hxkxD2qGoj5soMTciCnt0QxW/F/9tkpG2OQ537+Rpfe/JUXvh7/6HVe9LvUvvn7m/JtRDt8JGTZKf+YxBwyvG2yCNh+eSmi2FmWl2/gHwR9nJp6ofObMLJEz7YSePkVpdAnmt8EIDtJ7GQAOwWsbyDTVbuIOWboa1QR0ZERDJa9o2dCpppOZHIJOvvZMN1HNDpCRrWyPJObRgO13TtAMlQ/q0Mt3/wB//pVlTDJB6+cy8JSyjKH6cjunYpJGdujwTrwNLI7yWW2ONmUjlLNAWtd197Jhuj+p55MG13GxlJDLIeeBZpajqeQOaUhO37o4qsyE3lztA2rwNIZOdlukbOSRFsFrV96eG6Gpz2GEgz84tGhZtMB1L9barLT9H/3/APpTRk5U8j9B7P3yfapNf0B0uvE0JEPWUub8lZU0hxN1iecvCUcjG3T6uR9rmYS9BtLr7PSSSe0eategdm9U1vyTC8jwH1SaPxeqj6BlJuKoZNlk42/vlq6hntaSUnbsVPC+lika3s5Vgstcv2XOdapfutZuRo2LWNc51o1uRtFZm11ab2LnOtR7VY+jLoWs+auc61HtVj7bEfZyZH6Y3YsldSv0sMg9z/LkVEv9pKRcVRD/ADWfyIQ0jMRtJnaXsQSVgCIk9jWFao4otJyFmsvuo8RlTQzaDjBmdST1D2Rg1rpykdxiZ9SPoZfZY9RtploZa1aDF6gTyELTRNtKPoTTUp5pdLdDoZ4tBbDHqfJ/EKYdUvvW6n61HPA+bID2so6mLRnNpbqfJ/DqYtVvvn+Sjp6drTPggp4dg7X63VTLFGGZJIRDrsjjPnC9jp5qMBIGLN0lYnmqwEQzHbQdvJn9gu7JS0kVrQRRgLA3nFYmOoMKZn6C0us6mnCd/RszUQSC4mL2Ozo4S16oNWEn6v8AJGcbPI7vryHsWtWgxdWYm+sMxRlsMdiCaN3zdhj6QoTB7RJrWfJ4Gm01Ujf/AEbrTnIRSSE+l36UxzuNKL+nt/ZeJq4zLqIc1eDrInjfo6nQU1YedSvoZ38z/Jdf4rWN+u1MTbWe1CTbH0qsmZ7HCEnbtsyA7+YLlyWZulWMrBbOdc1lYTWOrHTjktLmsuplqNatYVqrOHnZWRG+1ajWrSLK0Vb0tlzi5zrWWgWVhtYs7pR9nJqQsttjKzJG1uiQCHLMfoA75KX1Wvw8lS+9+SovfD35Y6GN9QGzz7VFTtoZ3tN+pkEMA5kYNYzZRnpxzYJ+hvNJBG7+Kn1Xb19GQ45WYgJrHZ0UenwJaYi9S8FMVlNM9hep+tajt9Zk0Rt807vaRE/7rws4/aped+lurLVe9LvUvvn7m5U/sF3ZJa6VrfBasfblYxazw0bE/aooI+dIWao6enawAbJVgTW2RuTdrZKN36BsRyyPYADnOpaiXnSFb2L+IVDW2PZC3zynBO2h9j9T9akgl58ZZrpgN7TgfM+HR+Kz9g92SkL0oRfgqz9TMPHJUyejHZx/y5I5LH25W1bXWdZZkZlmNs6crOyZ+tP69ORkwNls68jpsjvlzX6EfZyiF9ovYqB3/tLMtc//AMeT/Dkh9ku7yVL735Ki98PflrD/AJrt+yqpq6YYicWELePyV9Dir6HFX0OKzKapCWUTYhZlFK20CYmVrZChexpG0xl1OjimHNkB7CZCVQbm4jmtb1JvpCqHxY/dM/S/XyKr3pd6l98/c3Kn9gu7JF+oifLS+5+apbfX3Zar3Jd2Sm+PeqizzrByUsL1gMQRtbofar6HFX0OKvocVNNRm0kZ2Payqoeg4879n/z/ABWX2R7slB/08f8AhU3th35K7/s+fJYupWitZlqEtlvYtOQcjvay2itoraKYS6EORl8MoZC7UTo39XI7UfZyqpv5pd6+j/8AqA/xZa1uuA/8OSH2S7vJUvvfkqL3w9+WoztvhC708lHTlKDPY7t1q5ScFcpOCuUnBXKTgrlJwUTHzsxrcplSi1gNmkbec+SN4RaMo2zDBujkVXvS71L75+5uVP7Bd2Sm+Pflpfc/NU3x7stV7ku7JTfHvWj+1HJcj4K5ScFcpOCuUnBXKTgnkq6coo/Bu1r/AIrP2D3ZKMeqAG/8VL7wO/JXf9nz5Wq612/Zc5aFrMrOjoQ5LM0lzSXNJc0lzXTWNkZfDKHbkLtRo+QKPs5VX74u9fR//UR/4ssoekDtkpfW7tw8lS+9+SovfD35awP5pOqumfboMfn8uRnTyDGPWRWK2IxNvU+X6rTl9pmbTZ5ooIoWzpDexmUEgv4SMhsN+okMraY30SD1sglhLOA2tZ8tV70u9S++fublT+wXdkpvj35aX3PzVN8e7LVe5LuyU3x71PZ5jsWSmmbTnRtb28jwbzxNJ6Oe1v4tV+orOC0IA9EbFUeohfjkrA6XYX7+TqtarXHRl1XsTO+1M/rQvkLkWsy1msyNyA7chdqs60Tci3qZH2cqQ/SJ3X0eP81n5FXF6EpNxVGfVKPkqZ/53yVIZaGaYe/KFaDeLlbNL2lFUNpZtBt1sgmpyz4z2PlGkpyzooXtJ26SUEI22Z1pO3o5DqJtNnNbrfqUk85Zxm9rr+IVA6xaIW9XWpKedrQNrFJTz84H29bJvo+pfxZ/dO/Q/Vlqmf8Ati71OHSM3y5U/sF3ZKb49+Wl9z81TfHuy1XuS7slN8e9SQycyQXF1JTzc+MrF/D6l7NNsL/LKc9QVgDxUtRLz5CtdTVclth6gN3/AIrVn0PKXeqOL0phbjkrxb+yd/205DH04nbk9qdlp2deSwdqZn2ph+OT1srR5zKwtuTTzcmjY2RuQHbkLtTOyZ2WeHxyWDtXr6UfZyaiRtoRk/DJT/oYi4cis/W+f+6Z22sopR2SAxeRJwa14SY8jA1TazdLjpVPLMWfI7azqSnqGtA04TNnRu+pJ0OvsktgvtB9IuvGUYE/qOxPHHm00b+ht/dDFADySFsZlnTWPVSc9+r1J3J7BbpT+Df7NFojbr9aEH+4DWlf1IQBs0R0M2T6xAP2iFujzh6la2h1myv9qiaw/X68lUxNYxnnj8URUcrx5231qGKsmzoyZ2zbOTP7Bd2Sm+Pflpfc/NU3x7stV7ku7JTfHvyfWKXRVA2z02ThILgY7WdMEubUg3p7f3Xi6OMS63O1Z1XJazbBbYybQ4U7PryIIYGzYwaxm/FJpn/qwcla6pP0WnwySRHzZBcXUkUmggJxdUr9Dlm/vyrJNDrrZcxlqszLQ9pK0tuS0V1P1LWa1cxlp0LNj/fK3IDIXbk/SrRdaRZaGzUwjzUfZyan9TZuSrns0RxZvxd/8uRS1LbJY81+1v8AnJTdYan7eR0pzppCpnfoZrRWn6Qtb3H+aGmjkKRme20sjxzg0gPtZ07wvJTv+nSy0fSH9x/qX2mqkl9kc1WUcIh1l0vkOCbOzD22PYvujxHTxUYZjE9r+vkFIUJM5PboOxNPSjIEjfryMFUGluabbWXi64hH1xW/NRVL1ZSHG9rMwZvJIS2E1i+6PEdDBTM7Rjs05QkrAIiFrGsKxDPTAbSDstO3KcZ80msdfdSYjoYKZnaMdlr25ftcLEXptodfZ6uSP2hzlp+kP7j/AFK2bPqH/W+hMEQsANsYfxWo6z1MlXUvsjjYG+P/ABlrBbYZeEb4oTB7CF7WUUwc2QWLlapOy57rSb8rQTrnutZ7fK6NC57rWd35cEDbTO39v+cksztpml4N/t+R4Rm0wSMXw2ZKqkJ/5g/P5fmulpR6XeQvl88jSO2meRy+WWkrB2Ezxl3t88gx+dCWb+DODbIRYclHC7WE0TOXa/IqaZ/62NxTibWEOh2VObvYBPmF8fzXUO2kY3zG+CYR0u+xU1M39VGzP25alma04vGD8MngSfUnaz49H4KcknNBrXUsx84ytVJTu1onI2d2dPKnsawJvGj8ckE7vr5th9v5pqKjpEdXtVr7VTM7WhE/hC+HIsfYqmm80StD2ehDJG9hC9rOoqgfPbT6n/BHjZ7DnfN+HTkqK021IhzB9p/98eVHVg2vTlp9l8ktFI+rJrB2/mmGhjf9cnyyTVptrTPmh7LcmL6QibXi1JPZyHRSvqnpj7fwQgF/Fw6jdvTkpwJrJJPGH2vypIJmtjkHNJTU0vOiKztUc8Og4yzmUVRFzZGt7PzOcsr2ADWu6mqZNshW9iigha2SQs1lDTRc2Ic3kywTtnRyDmkpqWbaD7etutBJG+aYPazqOcNFvObqf8Cln8+ywO1O5aXdU8JDbEL58nst5CP6ThbZqTfJ8h0Ez6p60Xb1fmcKCJ9eTWk9Q5D+kJG8XDqx+suW30hAPjYGsk9YZPByl9nl0P6n6/wJqaN/Fw7fayFWSD42p2ex5CWmnbOjlGx1NSzc6N9vW3WglifNMHtZ1HOPO2G3UX5llnnewI2tUtTNzjf9lHDC2dJIWaLKClj05jaz9b9PLcTa0X0OyIQZ/q0utE/yyNSzv4+JtX9Q/gEk3n7A9pORPaTva7qCmbmu9pv1D0oY42zQFrBbq8i1bTjbPTtr2ecGR/q08sNu3MN2V+qcYlfqnGJX6pxiV+qcYlfqnGJX6pxiV+qcYlfqnGJX6pxiV+qcYlfqnGJX6pxiV+qcYlfqnGJX6pxiV+qcYlfqnGJX6pxiV+qcYlfqnGJX6pxiV+qcYlfqnGJX6pxiV+qcYlfqnGJX6pxiV+qcYlfqnGJX6pxiV+qcYlfqnGJX6pxiV+qcYlfqnGJX6pxiV+qcYlfqnGJX6pxiV+qcYlfqnGJX6pxiV+qcYlfqnGJX6pxiV+qcYlfqnGJX6pxiV+qcYlfqnGJX6pxiV+qcYlfqnGJX6pxiV+qcYlfqnGJX6pxiV+qcYlfqnGJX6pxiV+qcYlfqnGJX6pxiV+qcYlfqnGJX6pxiV+qcYlfqnGJX6pxiV+qcYlfqnGJX6pxiV+qcYlfqnGJX6pxiV+qcYlfqnGJX6pxiV+qcYlfqnGJX6pxiV+qcYlfqnGJX6pxiV+qcYlfqnGJX6pxiV+qcYlfqnGJX6pxiV+qcYlfqnGJX6pxiV+qcYlfqnGJX6pxiV+qcYlfqnGJX6pxiV+qcYlmT1M0oeiUjvkL6TqB0Nqwt3v5E6c9B7Yy9ElJBUDmSA9hMmKIyAm6WexXyfEdXyoxHV8qMR1fKjEdXyoxHV8qMR1fKjEdXyoxHV8qMR1fKjEdXyoxHV8qMR1fKjEdXyoxHV8qMR1fKjEdXyoxHV8qMR1fKjEdXyoxHV8qMR1fKjEdXyoxHV8qMR1fKjEdXyoxHV8qMR1fKjEdXyoxHV8qMR1fKjFdN9Ymkls2ZxW5Prc42VFS3T0B5Mp/oXNcS2wvos7FmnQVFv6Y3LuW76rAJbvqsAlu+qwCW76rAJbvqsAlu+qwCW76rAJbvqsAlu+qwCW76rAJbvqsAlu+qwCW76rAJbvqsAlu+qwCW76rAJbvqsAlu+qwCW76rAJbvqsAlu+qwCW76rAJbvqsAlu+qwCW76rAJbvqsAlu+qwCW76rAJbvqsAlu+qwCW76rAJbvqsAlu+qwCW76rAJbvqsAlu+qwCW76rAJbvqsAlu+qwCW76rAJbvqsAlu+qwCW76rAJbvqsAlu+qwCW76rAJbvqsAlu+qwCW76rAJbvqsAlu+qwCW76rAJbvqsAlu+qwCW76rAJbvqsAlu+qwCW76rAJbvqsAlu+qwCW76rAJbvqsAlu+qwCW76rAJbvqsAlu+qwCW76rAJbvqsAlu+qwCW76rAJbvqsAlu+qwCW76rAJbvqsAlu+qwCW76rAJbvqsAlu+qwCW76rAJbvqsAlu+qwCW76rAJbvqsAlu+qwCW76rAJbvqsAlu+qwCW76rAJbvqsAlu+qwCW76rAJbvqsAlu+qwCW76rAJbvqsAlu+qwCW76rAJbvqsAlu+qwCW76rAJZo/R9Tb64nZMX0m31aBtrW6zoIYBzIwawWbyXh6d/A1gtt6D7V4yilJuuNs7uW76rAJbvqsAlu+qwCW76rAJbvqsAlu+qwCW76rAJbvqsAlu+qwCW76rAJbvqsAlu+qwCW76rAJbvqsAlu+qwCW76rAJbvqsAlu+qwCW76rAJbvqsAlu+qwCW76rAJbvqsAlu+qwCW76rAJbvqsAlu+qwCW76rAJbvqsAlu+qwCW76rAJZofR9Rb+qNx70NR9M2MwPaMO23t/8ASJ//xAAsEAABAgMGBwADAQEBAAAAAAABABEhwfAQMUFR0fEgYXGBkaGxMFBg4UDA/9oACAEBAAE/If8AyAokgfDuXqjfrgaFln5RyFJLyf6TDyARHdAg6DsI5FEFRn7NieIPT8TqE16HmJjHoEQ9N/CMmB+olzkuc/8AsOBphBeTkwA7uwb6eX5SUUFmAC8qMyJOEw6K9DfmCQEDydbxqW8alvGpbxqW8alvGpbxqW8alvGpbxqW8alvGpbxqW8alvGpbxqW8alvGpbxqW8alvGpbxqW8alvGpbxqW8alvGpbxqW8alvGpbxqW8alvGpbxqW8alvGpbxqW8alvGpbxqW8alvGpbxqW8alvGpbxqW8alvGpbxqW8alvGpbxqW8alvGpbxqW8alvGpbxqW8alvGpbxqW8alvGpbxqW8alvGpbxqW8alvGpbxqW8alvGpbxqW8alvGpbxqW8alvGpbxqW8alvGpbxqW8alvGpbxqW8alvGpbxqW8alvGpbxqW8alvGpbxqW8alvGpbxqW8alvGpDr852YDzYaO/fuFqIePxNURwdHCDmjm4YbsEEA5YJouHDsPS3PUt+1LftS37Ut+1LftS37Ut+1LftS37Ut+1LftS37Ut+1LftS37Ut+1LftS37Ut+1LftS37Ut+1LftS37Ut61LdtSZwMZiChNWXkCsvpJb8k7/juBICHod9/QDOy+YUEgiGBMeyv/pASSR2IIiE4cXAxLkQ4ACgQRinCh7IYBfr3/AQqQgwAF5RK/ZufP1nDlYKNgL441h5y/7RwAIEYMjzRBZ3AQUaOxJDUB8dHROCH4SHx3MYDuU7ZrSUFvsonFyWevPc/wBMF+Mleehj5sgvuhOGsPgWHEbk8YxFgLx3Xn/bDRKcHnqMoEAAAwAELsP+6G5IPvNn9suuUAWGMOuSAiEjfOv4TQpoGJ/AR72ZEJNhQB0P9O4to64ghiPBT+hvvdB8I18BkCIqCuAx7xvHniZhvXju2vZG2DNxJQC3bPkM0E+DE5sT5/QZCORfYORsIMxFCrBu6shdHjPfGkM2uHcp2d5eZVxcHZMT2CZeJ0wL+pvP9RliuPJfR4siLDDNED94cE+qMRgw1YN2sFcNvjp+b+n6EA00fiMkRrmN8Tmg4ugm8Fs+YhNY9weIoecEbrjyXsPG7PPi+Dz/AFLChz48t3sBEIAYi9GfsOfi9twmvwCDEFj2D2PNHxbDugGAAMAYABg36ITkvkAic+4DyAiCCjM95Rj2v7IAggINxfiN8UJfrlGBFMDEoKWYhmJxLz/VQROz4vroyQRkiFCAY4wJERwFLdws0T9AdkyG0kd9Hgv3/SPrd35U+9kWPABvz/EO3CxhBYXS3sQi45iSscw+D2R/VsC7hHSNg9hzvkHZ9tD0CyjjgHcsiYSZ15JvKba/gcTogAAAIBcBd/3xYDImJA4IyQ7rK8eEb0Vt2d5n5cd+GDAIG5Dn37WBG4bpjn2R4/CFFXK+JZ8Lk9wHWWuXnH/jKzhgy4gsQEz4Tl6luT/GgDwHCOTGPo2PILDvMmPx4tcM1cOZsAicPEYXyeD+gi7kl73gZ3eIQQ1hY88RonpELIC4UCQRZAgFrSmGc+DIrn0LDgiI+ZJ/h/DS86r+T/joef8AjhEAIF6kQ9opsksCHcm9hCx6z95mL6gn8EIJmYon63b9CvaocDfIENgCIjy58WOuc6+j0eBui/YwMo84/UKB+w4uQDD5+APuAE5OxLN2KapyjsEGPVHBINIDwBe5VhJESIV8M4N0LAzaiwAB1KBmeIg/cx9FGKD8lAxFkIkH0o90iSdjk1472QoJYGADk6onbmJAY3I4Dhic8C/rfaLYaPLAABybMoktb+8bg+fJDITgA0QW7r0MJFyL+gAPAwF46FMPc2lgF8TwkSYwmwAEbNiABAEYCAIMboFG4MxAXuXPpBe5GKIEowFi7C3lrGZFxAne2HdkYDAwBeAS5UNXqQJqMa4Lj1gxHAHAxiIj2EU3wuYndgChnNxeKUgiGCwnrd8QLxBcG5jf+2bkME9ATJzix65EAftsWBn1Q9IYIzB6o+uKMFnkjNc8kpwi/NC90M+BpItmKxwTygjhCKj7RRDFja+uhFF/IwQkA8oscc/RHVMhdaASa8gz9Iq8IcT0x1RCFgT2qHA34cN+H0bClZIAsm1PHgMX1EinQu9YvL8I3cSAYACMeqgch3Ez4IJQAOwiTCzIGwCsFwCBGK50WgnINiXgoMNiYMyiu8mKZPXNFdFikeXCjmOdFmZBiEZF2hyIyUPKvLw/mRyscY6AGKJ+tmi0XIUP1ecccVg1jlFLhxOGv/E8BjRuDEqNeKLfjFHuiQRQJJEFA4PG+ILFF8AJmKioyS0URI4aVmsOlfNAhDkC+Nyj8GAD4xd5RIDxEnjyDuD6TFZDMQQnLzhEYwYns7uE4yIUzuZRD8aAZA7uiObmjyOXJNzgsu4Eyu8bEEOD4NgRGEEx1GXlOKhEOSQ2EOA46XdkYHCxPtFPQG9f0TijUywRd6ExwWEQa4j9q1Vx9gBUMcIOoQrsoDuoojXqN7axlzjpRZh94TXyQLWfNA2By9pEw3BRCWBvzFm5wiXpgIREdeYBOIJHIqNjEXhDOGGPVXQMLPRCvwkX5IiQ+zTq7civNwIBAGVaIYIGOCfd43BOrt1QU64F04Lbq9qhwXnjZzAcexY+7C/nBx7FrFlvTh7I4Dv8JfipedV/Ja1MvDedw7CPdE/LMcG8oTNkdRPOxnd4g4IN5w4oAvDYA3jujjRNx5+2EbuHO4N4Ufp0zHJ1CambOGGHr5I1fBJGGdcUQF2E3kkEDYTuvvP9/wCW1PPxiKVmsGTAg/5nw3k2s5ndAg/E08zB8HxTQPAMycTzJvNgjV0bwHHyy9ZxeAJHwJ20RcgA5+K9GADJgOwR3Hw0Y46e9sOG3ccogasR1Ao8NznI/pDt+161J6WPzqQoZOWdwsy8D5geE2JzbwoyAOCMaC6NjtcWOBQgCQO0Vi4bN0ASYRJMEEbgEVzgoLSJsR8QwtwKHLgseijgRfE2nABgKjLmELLIlDHMQIrNyRjhcXCzBFMWK+1Q4ABDEO4ioD5BdQhQ+G+QInafIPosB/xGpedV/JaUoXYNsiaSZY80xBJODkm16FtehbXoRGIWRfF7xkUUluvALoAiOCIEZWXrpYYfw3H/ABFqPFwKEL+c3YLgr2Bhut0jDnwVPPxiKVmsAaAxO+dBb7D7QmC4kPK2u57K3mRHpjjcyJWNpsdw2OGZW16FtehbXoQ0JNZAdo/EdwgWZlif9qDM2aJ/H5ETMY2QInPhzCOzNAZnBVwpOavZByMVHgyhRhY84WN8xDvYEbJMIrdFui3BFgDg0FE+Rs9FHdsFe4rxe8+oWaAr5w0GQYBFe1Q4eVn3oxgy/S1l7w/azrH8QpedV/Jb3hurk6K3Yhkj1W8alvGpbxqW8alvmpAwYAAcCBH3by+ERYysHIlA3i6GRAh3y4Knn4xFKzWVvNb7D7VDzW13PZW8y6UXOkUFv+pbxqW8alvGpbxqRDuNMGckc+SH7TpgVhwv8ohflWA/Jxb8aWDHziV3COsEAByDdU1BFExx2AUXXA8lRDVUA1VQFVhA3AY42eirzosKquSvOi999XphetwfQvaocJuQY/WhJYqBCzc2Q00zKsyS/FS86r+S0xsMwnQlx6KbG4dyu4B3DEADC5uDveudKREeRYUAraIE2d0fDuUYiJDvJKPfBYPHHQ4dE883GpcIUAYPiCIW0PPxiKVmsrea32H2qHmtrueyt5kQ8HPQwCH+2HOi7MGAEeRwEYxZzBHdB3QIIcRBECLiP2r3vY8ARCABybkMdcLxCMyxvoBsACvgwdXCYY7L0cNgEY2nXN8JsTBAoJyiPFc4QiEwjcYjgAXIIzUN5Sz1VedLCqrkrzovffU7lcK5ihA5jAgxtcMCvaocOfHkS6oCCMrSsJW/oCTrQDroS0/xGOCEXV+iLq7STgGPa+JdOQahvCCWSmJvb0FKI4PnJsRaBYWKOLv0IdymPZuRmC/0uiuPlsXDpcHT5ZiZclgWCRhi098056ImvBwI5gxQprgMGEVfgnvfScOdpBRiAnzQcERhD4EI+j44qVmsrea32H2qHmtrueyt5lFnzYAIZxzQ/GIPnzV9bIkwJN+nvawGEA8TwA6pkB01hkPCYuH6IFybrP8AaseXZujm9KATg90a9h4vI7X/AAsGZwDq4MuEbJuh7oBEOCGRsBvw5LGwOnfQQGd7usGN8orswJoDWAQgwqHICGTkhOz01edODrxe++o14h7UTsEI4YODcsaI6CYN9Pa8Jbol63PiN6AadFtFGAZgEOgBEXYjgq5Kj0IBn+ErcygByzEH0VEXQTaoMAizqiHCgPeSCQ6YAiOYOBfkYoyGCAg6ohLif1RMIABi0nDwxRlALEX49vCJihg3JRI04YiBvAn7megQKwhJIsABeUNCPYTs8/iBUYORyd0AiAAAzABgGyAsFHD6COJzNeO+aECkBcEITHIQMuGvnY/XIzM4i+ujhhgFnAcwoL0oIDt05IcFKzWVvNb7D7VDzW13PZW81gWURT0Oo/w4MWdjBsQVh2pG0UxdFAwwUPhghQnKbphNkJoEOgzKYc3yX7QdzDfYEyRDEclZ2Bk7FM2ARhDyIY/UIhmORBZOSWd/T6eG7khI3MKMIWIibM6IF6RCSAZARcaKyuxTSx5q9AYAIRw8CLgQDqniEMbV6hcnA8rTZzNFoxDL3ljCMSQYAQjLlHojBgEAuqckq/Qv8IiHYgDuRJ7DlXDuydD74GvxhubpYdhMEl3Q9N+EAQA4IiMCEb57n1aBHlMhNkBJYVGgETfAWBn/AAYIboip2biHhOoQSSWRkh4MZuAM0TGJFw4upj2sJQyYXxGXQ2bFcOmSSS6mMMOA+qxgwA3wFw6IO4CL5Be+GNhkRdcs/LkYI4jhgDP5TePYQPVyc+ECTmGHaBEftmzrw2EiYlzE9bXaU48EcB1V49UQLsrQMOWJ2LEEGPQ2QO/HYQolzE2wU0MID3EfKMiJwA/hkAEF0YhAs18ADwDfSgqdYIAAZMLv2sJlggO5D+rCB0QOZv8APe1hDdoC/wBdNjBJzCu6CDJwIcXhgeFkCmadeKEtvNiX+9R/C3AUcyXIpm5Hisw43CMUbZBTtZeeVjyWHu0U4PHu2Jy+2PXAb40Z/wBWyeiA+rCGB2mIPlrTot4Aj6P4K9CKFzjHIxB++P0zwvZbz9shlADhEI98DbYYDkWgfKJsMJWBWPVdlB/VuG8JwH26AS5YOaH7ZZkT5e2G8O9f9OgrtD/0xm8ofpDpMadsAI/Ffls+Tm5epRHH0BQ9cBuX+jCH9goEguFHaLssDr3/AKkLoAfHngPZRDEcryVi7BXNGPbJrQGACQiCiDAR1oUfRGUDssRcmHYLAbi8fpLuYQeLNnmwjRmU43vgBG4Qvs297wW92XUzHwG8dx8/qXLiebB9PiyEc/vJ5J9cN7IwReVx7H7YXMWjdjHcfP0jnRDQc/lkB/RBHJPQMO3E/qsHIhCnjXtcwPcMj/MhOiNvAse9iOxh2/p3V/nZAOVDgIAXswHYJmkYeZKFfCgWvzPnhcOkDkVGqbhnS7gj5wI2BCZyIWFh3iY5N+iEKh5Ld4v7IjRIck4q5gjwxAesB342V6Gxqrl4sGyjhCbsXdeP9/pxekULh3Pzmr0WFQXhe3nsPqw4SsLjA83Y+ibCQsUOmGFq/RHf3z8XjWwXPbi4LvJc+MvwOCAH1x6rCzIAdLuCOBEj4EIs4BBvhCImOR/pX0gm2OQ8wCKBf2FwYDsEZOIAxJTBeDb+954x6BXAgQVGoLBti/k/xOhXLgieh4+foHIB8M4lpf2RrxojEoKZDb4MS8Q6kIUseLcAgB+EzjIwI/4X+bAIhLp56sqwmqwmqwmqwmqwmqwmqwmqwmqwmqwmqwmqwmqwmqwmqwmqwmqwmqwmqwmqwmqwmqwmqwmqwmqwmqwmqwmqwmqwmqwmqwmqwmqwmqwmqwmqwmqwmqwmqwmqwmqwmqwmqwmqwmqwmqwmqwmqwmqwmqwmqwmqwmqwmqwmqwmqwmqwmqwmqwmqwmqwmqwmqwmqwmqwmqwmqwmqwmqwmqwmqwmqwmqwmqwmqwmqwmqwmqwmqwmqwmqwmqwmqwmqwmqwmqwmqwmqwmqwmqwmqwmqwmqwmqwmqwmqwmqwmqwmqwmqwmjZyLl+CbCXrJwvMm4dT+Focd3fI0KI1Pm5q6CM+DuqHmqjmqjmqjmqjmqjmqjmqjmqjmqjmqjmqjmqjmqjmqjmqjmqjmqjmqjmqjmqjmqjmqjmqjmqjmqjmqjmqjmqjmqjmqhmhwh7o7fKxT81QhkcId7/AAsPwkAhjFAOLud5dzcsETdHJ5cqEkqEkqEkqEkqEkqEkqEkqEkqEkqEkqEkqEkqEkqEkqEkqEkqEkqEkqEkqEkqEkqEkqEkqEkqEkqEkqEkqEkqEkqEkqEkqEkqEkqEkqEkqEkqEkqEkqEkqEkqEkqEkqEkqEkqEkqEkqEkqEkqEkqEkqEkqEkqEkqEkqEkqEkqEkqEkqEkqEkqEkqEkqEkqEkqEkqEkqEkqEkqEkqEkqEkqEkqEkqEkqEkqEkqEkqEkqEkqEkqEkqEkqEkqEkqEkqEkqEkqEkqEkqEkqEkqEkqEkqEkqEkqEkqEkqEkqEkqEkghxXfWIUMxCADyxe3dC8h7qAGH4mtmR9wMNSNQUWgP0qEkqEkqEkqEkqEkqEkqEkqEkqEkqEkqEkqEkqEkqEkqEkqEkqEkqEkqEkqEkqEkqEkqEkqEkqEkqEkqEkqEkqEkqEkqEkgfopPLEEdqG9Ge5uSAb8jZf2Tf+Go/9oADAMBAAIAAwAAABAAAAAAAAAAAAAAAAAAAAAAAAAAAAAAAAAAAAAAAAAAAAAAAAAAAAAAAAAAAAAAAAAAAAAAAAAAAAAAAAAAAAAAAAAAAAAAAAAAAAAAAAAAAAAAAAAAAAAAAAAAAAAAAAAAAAAAAAAAAAAAAAAAAAAAAAAAAAAAAAAAAAAAAAAAAAAAAAAAAAAAAAAAAAAAAAAAAAAAAAAAAAAAAAAAAAAAAAAAAAAAAAAAAAAAAAAAAAAAAAAAAAAAAAAAAAAAAAAAAAAAAAAAAAAAAAAAAAAAAAAAAAAAAAAAAAAAAAAAAAAAAAAAAAAAAAAAAAAAAAAAAAAAAAAAAAAAAAAAAAAAAAAAAAAAAAAAAAAAAAAAAAAAAAAAAAAAAAAAAAAAAAAAAAAAAAAAAAAAAAAAAAAAAAAAAAAAAAAAAAAAAAAAAAAAAAAAAAAAAAAAAAAAAAAAAAAAAAAAAAAAAAAAAAAAAAAAAAAAAAAAAAAAAAAAAAAAAAAAAAAAAAAAAAAAAAAAAAAAAAAAAAAAAAAAAAAAAAAAAAAAAAAAAAAAAAAAAAAAAAAAAAAAAAAAAAAAAAAAAAAAAAAAAAAAAAAAAAAAAAAAAAAAAAAAAAAAAAAAAAAAAAAAAAAAAAAAAAAAAAAAAAAAAAAAAAAAAAAAAAAAAAAAAAAAAAAAAAAAAAAAAAAAAAAAAAAAAAAAAAAAAAAAAAAAAAAAAAAAAAAAAAAAAAAAAAAAAAAAAAAAAAAAAAAAAAAAAAAAAAAAAAAAAAAAAAAAAAAAAAAAAAAAAAAAAAAAAAAAAAAAAAAAAAAAAAAAAAAAAAAAAAAAAAAAAAAAAAAAAAAAAAAAAAAAAAAAAAAAAAAAAAAAAAAAAAAAAAAAAAAAAAAAAAAAAAAAAAAAAAAAAAAAAAAAAAAAAAAAAAAAAAAAAAAAAAAAAAAAAAAAAAAAAAAAAAAAAAAAAAAAAAAAAAAAAAAAAAAAAAAAAAAAAAAAAAAAAAAAAAAAAAAAAAAAAAAAAAAAAAAAAAAAAAAAAAAAAAAAAAAAAAAAAAAAAAAAAAAAAAAAAAAAAAAAAAAAAAAAAAAAAAAAAAAAAAAAAAAAAAAAAAAAAAAAAAAAAAAAAAAAAAAAAAAAAAAAAAAAAAAAAAAAAAAAAAAAAAAAAAAAAAAAAAAAAAAAAAAAAAAAAAAAAAAAAAAAAAAAAAAAAAAAAAAAAAAAAAAAAAAAAAAAAAAAAAAAAAAAAAAAAAAAAAAAAAAAAAAAAAAAgAAAAAAAAAAAAAAAAAAABhwAAAAAAAAAAAAAAAAAAAAAAAAAAAAAAAAAAAAAAAAAAAAAAAABQggAAARRDPPPPPPPPPPPOjgwAAAAQhAAAAAAAAAAAAAAAAAAAAAAAAAAAAAAAAAAAAAAAAAAAAAAAAAACggAASB0AAAAAAAAAAAAAAUwAAABQQAAAAAAAAAAAAAAAAAAAAAAAAAAAAAAAAAAAAAAAAAAAAAAAAAAADQABQ0EAAAAAAAAAAAAAADlgAAQwgAAAAAAAAAAAAAAAAAAAAAAAAAAAAAAAAAAAAAAAAAAAAAAAAAABQAgBioAAAAAAAAAAAAAAABKagBQAAAAAQAAAAAAAAAwAAAAAAAAAAAAAAAAAAAAAAAAAAAAAAAAAAAAACggACEAAAAAAAAAAAAAAasBqQAAQAAATygAQAAgAQhggAQwAgAwAQwwAAAAAAAAAAAAAAAAAAAAAAAAABSTwMAAUM8AgAkI8skUp8IBAABiAAAADzgSBwyiDiBSABQQDDggRiCiAAAAAAAAAAAAAAAAAAAAAAAAABTCgIAbSPEMAaJKiEULhcABZ2gigAAADyizCDxBggBQABQQBQijwzDAQAAAAAAAAAAAAAAAAAAAAAAAABRQCoBG/wDj8hevCJCznBFCADqAkMAAAAwgIAIEg0oAUAAUUAUoo8cIIkAAAAAAAAAAAAAAAAAAAAAAAAAEcAiAWIWDiIG8CoCERjDGATjoQAAAAAUYAogwUgQIM4AUYAUosgkU4gAAAAAAAAAAAAAAAAAAAAAAAAAogorAAVfATwiDQCBRCqIgAVwAAkAAAAAAAAAAAAAAAAAAAAAAAAAAAAAAAAAAAAAAAAAAAAAAAAAAAAEgIEGAAAAAAAAAAAAAAAAAAZMAQAgAAAAAAAAAAAAAAAAAAAAAAAAAAAAAAAAAAAAAAAAAAAAAAAAAAAAggAQLAAAAAAAAAAAAAAAAA9IAA8kAAAAAAAAAAAAAAAAAAAAAAAAAAAAAAAAAAAAAAAAAAAAAAAAAAAUoAAA/AAAAAAAAAAAAAAAAUAAAAQAIwwwwwwwwwwwwwwwwwwwwwwwwwwwwwwwwwwwwwwwwwwwwwwwwwkkIAAQ0lAAAAAAAAAAAAAAAqIAAAAAQwwwwwwwwwwwwwwwwwwwwwwwwwwwwwwwwwwwwwwwwwwwwwwwwwgwAAAAAYwwwwwwwwwwwwwwwAAAAAAAAAAAAAAAAAAAAAAAAAAAAAAAAAAAAAAAAAAAAAAAAAAAAAAAAAAAAAAAAAAAAAAAAAAAAAAAAAAAAAAAAAAAAAAAAAAAAAAAAAAAAAAAAAAAAAAAAAAAAAAAAAAAAAAAAAAAAAAAAAAAAAAAAAAAAAAAAAAAAAAAAAAAAAAAAAAAAAAAAAAAAAAAAAAAAAAAAAAAAAAAAAAAAAAAAAAAAAAAAAAAAAAAAAAAAAAAAAAAAAAAAAAAAAAAAAAAAAAAAAAAAAAAAAAAAAAAAAAAAAAAAAAAAAAAAAAAAAAAAAAAAAAAAAAAAAAAAAAAAAAAAAAAAAAAAAAAAAAAAAAAAAAAAAAAAAAAAAAAAAAAAAAAAAAAAAAAAAAAAAAAAAAAAAAAAAAAAAAAAAAAAAAAAAAAAAAAAAAAAAAAAAAAAAAAAAAAAAAAAAAAAAAAAAAAAAAAAAAAAAAAAAAAAAAAAAAAAAAAAAAAAAAAAAAAAAAAAAAAAAAAAAAAAAAAAAAAAAAAAAAAAAAAAAAAAAAAAAAAAAAAAAAAAAAAAAAAAAAAAAAAAAAAAAAAAAAAAAAAAAAAAAAAAAAAAAAAAAAAAAAAAAAAAAAAAAAAAAAAAAAAAAAAAAAAAAAAAAAAAAAAAAAAAAAAAAAAAAAAAAAAAAAAAAAAAAAAAAAAAAAAAAAAAAAAAAAAAAAAAAAAAAAAAAAAAAAAAAAAAAAAAAAAAAAAAAAAAAAAAAAAAAAAAAAAAAAAAAAAAAAAAAAAAAAAAAAAAAAAAAAAAAAAAAAAAAAAAAAAAAAAAAAAAAAAAAAAAAAAAAAAAAAAAAAAAAAAAAAAAAAAAAAAAAAAAAAAAAAAAAAAAAAAAAAAAAAAAAAAAAAAAAAAAAAAAAAAAAAAAAAAAAAAAAAAAAAAAAAAAAAAAAAAAAAAAAAAAAAAAAAAAAAAAAAAAAAAAAAAAAAAAAAAAAAAAAAAAAAAAAAAAAAAAAAAAAAAAAAAAAAAAAAAAAAAAAAAAAAAAAAAAAAAAAAAAAAAAAAAAAAAAAAAAAAAAAAAAAAAAAAAAAAAAAAAAAAAAAAAAAAAAAAAAAAAAAAAAAAAAAAAAAAAAAAAAAAAAAAAA/8QAKBEAAgECBQMEAwEAAAAAAAAAAAERECExQVDw8SBAYFFhgZEwcaCh/9oACAEDAQE/EP5Pfb/ZyRyRyRyRyRyRyRyRyRyRyRyR7H7MfAb1e788tMt4AzkZGI35C4PjJZxOvJN4uwzCxxqSLlfXY3/db6BdMVNiUWSeMmquCLptFACAS6PAQ4YyyelQ8JvgndIGnIWMHsUyEf8AJSmOtepCQBbsxufjGEwGKV5dDUTla+9LGcr4tBWGGy7oacqYvj0dRxS9HQ9SaGFrkrUdF+QGIGcEKTiLFDpQX0hqi9uzH8y4ugZiUKNc/wAlW88Yu+Hd6AeRGUzck/uiAItYARj0EWO2Qic1BFddsDG7s5Wy12JJbsqIPF3168rsSGT8AL4QbaNtG2jbRto20baNtG2jbRto20baNtG2holLf8Wn/8QAIxEAAgEEAQUBAQEAAAAAAAAAAAERECExYWAgQEFQUaBx0f/aAAgBAgEBPxD8nusaxrGsaxrGsaxrGsaxrGsa3EYUXw4ApvYsHxl7+3rHZBpTXiHM0BSM3AQsn4ldCWITIRRpBkFExQCCdRwPmJgR4JwJUwcV4kPFEzzYiAqnA26mRRpGrh97CGoZUNKF7zJURDA/8UxCGccJG/qwxvDxd0epKGK94kVbcwxHJd/VHRgID8PO/S3q5sLJnyeorCFZe8u1VLoZCOWowGoAxs866CnlgG/NggE9rKI973+U7OT31hXELLysrsYVwAVNx2BJJJJJJJ+5fi0//8QALBAAAQIEBAUEAwEBAAAAAAAAAQARITFBgRBRYXEgkaGx8DBQwdFAYPHhwP/aAAgBAQABPxD/AI2i6urq6urq6urq6urq6urq6urq6urq6urq6urq6urq6urq6urq6urq6urq6urq6urq6urq6urq6urq6urq6urq6urq6urq6urq6urq6urq6urq6urq6urq6urq6urq6urq6ur/AIBV1dXV1dXV1dXV1dXV1dXV1dXV1dXV1dXV1f8ABMaYRWWTqATJpLkUsLiXXFEgC5Tk/shWNOU2wIujgT73tRHZTiuH3eUPTSYgOdzKE5UHDLe+AjcUchxC5IuSmTbJtk2ybZNsm2TbJtk2ybZNsm2TbJtk2ybZNsm2TbJtk2ybZNsm2TDMKGaENsSRdxDbI2T7LK5yfMHX1Wbo0HOQ0DIZBLnFizRfkpgn67lAcRO/ZK9evXr169evXr169evXr169evXr169evXr169evXr169evXr169evXr169evXr169evXr169evXr169evXr169evXr169evXr169evXr169evXr169eu+LF55osgUH6y/kTeQhR6IH8PvliQg5iXDE7EPco4gOSmaJRkxlEXH5jR48ePHjx48ePHjx48ePHjx48ePHjw4sIWIwGmCEVvFbB1WTXDhUeoUQ9MfcH+1op2AXC2ltcDwH9lSPG7tiAwSsZiD3aB1BRH9UuZwBzBRm2bX2v6AwkCQZyGgATh0QgKRR/g3FAGLUTaQARIq/NDlPsAAfzFE9DAMUwQgNd9pOYMiEHgIN7DnWL69I8Aigxp+rARgR50D0aAQGyZVTROanQTQsRU4mv9mKlpREdEGxdnwLHdogNBroQOMGErIMxlrwBhVgLGkwXAngD1Om4Uupp4AD84J6DuSY5FGYoqxRi6H2CoUCWklDVkEiPRhIg+8gbhywBOZKk+b+zgPcrswDcoQHqdUQQ8gtq2dlnglTDouFuKHTcjLOwYloSNiD2JzkpnKTkqx6AJm+zLOu6n2ANl6bjvCkd4aUUigvAWUfE1egJy55OEHVgXWTibHHYaCQ0VRMEOKro4U33z8w/aAfZpwJwOZJMmts9PCUrCbyLakhpqQBJIUScc74ZrW0ewyidynTfzfJCyR2RlciQjBEZ4RI0Ta5xgICWGIjGE+Z+D9meO7tn7TGPSnIiqCZC2A0KIs7jA/5+GbpQq8uOyT5sitsNEE1ephzQxtBAHsQZudAFgEAIiEVgY0M0PeZUdk4HAjMcJRkUMzDI78wgSHxIkgAEDN+HiIf2koEOraTaBmj5M5weYTfmRgZsFxwPWnGUIO4TiJQqmInD5Cv2QUrIZB3eISYwTLJJFDkd7wuhnrOjDEOSnJNUIftN/wBr3x/Md+QYQmbngGx0ETeb66CnIJddybkp0E/TrfuQ2xBSD89+qMYIYjhyXkOCjVzE4ljd6IggZui+jruDOc6jwxqk8xx8BEFikaR39FWZ+TjsgZkXXIDsKse8NPw5e1988HX+hEG8b/v9N5YweOowI56NQjnjHhPZEYyAT5pFBQDToDFG5b7BACgyUAGGKfLgLCB932Ugtn5EZhkokTmE4ATybmNQ7cA2BwhzeNoZcj0es4P4fsG1fMcA9aOwpiofrrN10GAqCC6Mnuz5J5IFgocoUOTdr7AO5XjcuE8m3ofJ4YOwPBALXJ4J8MWi7wUB9n2ow7+itH5B/C5lYAQXi8Y3U2pHzWWgHLVg2J/q3+CH3HF7iGV1cMDe+FRYhLvpFuQgJwabqkxgn95yQQoYp0CiBDTWSaSFQ82KOk6UYERlSeOGibUE0BBqxg+RQzpJzIYk4IbFDzG83jID5r1fC6jheUCcwYPXLTNp0QG2yyAQKFyqD0IIxtF5DCAeHah7djVFZmWNp6oYI2Ud0YqF7BxWXBgcGJbc6TUowGa2EQUiPKId0NvoD2iT1oIQNFF7sIYh3yDMrerTpQSCKdMIBrjtrWHlkTpHifYPkIsDtD5Kz+Z9EECY1AOmMSlSUMWsdtCZWICNb0IQ0nAygeSKYZBEwcQARAh4n0mUNGCJ0PkZ7lQo88fSIB20WKExIZA4jgiSgAJoOGDQ5QbiS/0TDXsFCODbgrxuXCEKS+NGPccKJ0YuE9+CGSckj5k0AWf0WoMF3pW2wn6D8mfiAghyc2FtFReY/KoF6/yEj75bAqEF+Ge8gT3UVWtj5s2gOgEtSL37u0gMZd9GYA6IbLQNHm8g/BWIFEMAPy8hXskKAVyW0C1DmDJMIskYFP2OAGfyXXBtPUwqUGY4hqHQCKDrEBGLn7lHrcDjpwQEQKxwB0TcItHzPtAMjsR6bfzhEBtxih+qZLi9QACBizmUwrkf+WKb9EblD2hVEYEI9sLw3hkfBKhvY/D6ugQEwMX6z2Tm27maOcOTUKP8Cl4Oc/LVkOdh/OA/76ZgzXYR6A4h/umFNiZ7e4g7zkkeZYy0k8AJkcEeFcIUiD1CiCMZ0L3UG6MzeZVGVczqOF08iAdG07kcNBxB03Bz4U3oYIEgAAic0U0wEOwCjQDcobMPCJwUy2qn14QhXoZ1BYHsAELrqEdMCFOMM0zCEmFF0rcMZGsBK4qIZNWOAUzFc5G5WImzCB3IXJp6YvLnGghI2QzKlY1uKdi8AuCaoGNBGS8blwgw9LNN6IjAlQJZFu5KGBHcBzk/8MB+kxw6zg/hg0tIY1W08EKZHcBit5oDUoN4MhAwBAABBJp7KVVALHwU1AMh88QXIJpiMhDIaLqieY2TbNF2kQW0svoU54xDnBkOqOgTok6epJKBhAk0MGWer1D1eKHeahgDD74IR8WIRjD6j2amPx1keZ200Khz9pwAVKT6A4w1wE3eNZGdDDOx7AsRDhXFPsCyAhKCEA61NmjENwuBaOXMIVhupg4zjSqOWfeMYz7qQN/vcIk/FrlEZOJsOf5efznhEgoBMSpCg2EDAOAInQAEZAEkgCklYBggbHAk+z0KGGkTUcTzBNvkUv0lCYWbMOlpucOVpjIgQhAAqIb+kQjprZFgdIIy8TZwKPcJey8blwitsYBCRZTqMUax0m29QQw1+2Ds4nX6XWcH8MG7YjJxAWR82EgthYuCnz57y0KdJIVUSMTwyfwUfc2ARm10MEAlrMxGn+KtA7Ia40OJ8B0R9R6vFPdGGcvAYYn1/DiIsRK33p7uwHGyno7nnBPnz3kewBsTJBk2cZ091AeFNwMnTJcXGZdOGpmOHPcJyhkyHGiJE6FMUUdlqDyCCpI4NyxwNERGSLVO3FLksg130v6T6R/1n0jGMQkWhyE9MOkp8ioI4A9Lg8ZSMcyhgBYg+AgOZCeNy4gg0hUTXuqD84/bQ+DE1D1+l1nB/DAyM+o7pHIDGIYBmCgc+GvXrlc1HLym3AuIxSEhA8vlYVVbCC4v8NJqj8IPV4qLD0OGLEQ+ETuymRb4X169cq8g9FEQIIk908/jcK5uUBT7zuCE63FOj84obITBjmEBhwyNHQBZI3b0NQm2eJLJd72UAUfQ14dZIDtgEeV9ll+LdAc29AMOk8dAMk8rqgcA8PwC/mkvG5cQcpEpAsz2KqP1vQZBmopPpYus4J4YQbYOv6QhgEEc9i82fAO53qVBiRA6JEdG0vgk2qRAN3zYsgNGf4Si1I3TmqtTmD/VLb/L+DjavFRYehxxYnkYIH7L+zMjghu1VMxQbOHT3UBgCxECNCmAVKkFysD4TO3wgB7II2Q9vCVHNBBuPTsQATiMCkeJM6qoJdDBTAEVRp6edwCrvAQ4CyNWHQV0/iAqTIqbppa4RTjgwYkI6jU+FeNy4RRC83XElBDr6hiZUNDtCHRDNmEWQJoPRHYSpavtIYkrxhEmLBpQRpX8TlODvpDDvUagL5k1/ZsAVpAwjKNQ9uQdsIPCjTcSougjYgRKxUrdDJFK2QBQCQTrBYOnvGWgYEE0kgfYQKagdCEQZR5EzwXdDBv08yKXUKz6D+qAqLD0OGLECaAdCDQkwWyHQhim9zbCmBq8dwZJ8Ajnv5VZQl7AChlNAwWRXQA4lueZgtmQ90HE6fMQdAJ62NfIg6CHP0XT6YSax2u+e4QA7C+hOICJ0b/YjgASTSARI7IOpp9uUYGIngvyggamatEZkiocHECck10CAEAYIOJvgbpq6fwJ0OH0+rdDuJjOawJjXAMNNQIIMDFIZrxuSHBVOjyGewjiUh28F+0MXMaft3dNRfyxER6X4KxBtJgJOxSosyGD3uHGHKYrxzRosj5m8htnMgfy4F8ltoRVzUjjM0nYKr66uu7yj1EboifwKP8A5JH1qhnJJmIEwrtohNE/zaSZizUf6QodpIRYPza3PJMMunGwYAdvfEZm1iAN7YoxBoQgUwhwMkG/g4wKghkB8YuCyHldmDpOwLR5qPk0ejgwRJ6YqLD0OKLFAXPIA68qRQPCz5HZhFyHMDGwzsSiYK2zuI95SRPuOs0aX+OAK+aKoakClA91+aMEhFuSalGGA8T7Iwc/Znj+kmuERGIcwpoNObWjkcIJMEFwTU5hQKFo55EFHHY0MTG2lKHQUt06twRY8JEUFBWNaQTc18EbdTsKMQfUsQHgWGZti1y80FNDIji/qCQlKZrw+eEUx8RlqEQnkemmrEwVZkQRC4GZpmA0nlwnSRQjMZBQfDp6L0OBKzu76xs8sBv7e+HogO9sIgS3gHAdDsIENUUZE3en2D5DrsoYNMKH2hyHpqvOiC0qJPPNB4QmfaFyfVNsTXlSmCP6bWvBFHnvyqXso2xiOAMAWfSJlB0nJI7IJSYcpVYoKD7OYcjspyxjlszSPhNLBKgMD2HkV6xANVH4w8uYjmf22OwxIYFXB+cLAeW/KhpFesQHxJxuy7RC3XJscykpURpSdd8S/NFGk1h1z3UP7xT5mwjF92tNtgCoON3R6kOiHfQzgq3iOGO1HFyFWAb2HiALHuQlEeSiTk971WsL2kAuxXMNHjBLINSQ8bjgb2BXNFF4T4GtuwDkOE2RQCI5jaH6+Z+1g21WAffyYRqJS0S1488SGXN4fNBUUIEOpWPmwXezDdkWGvy7YGbzMMQn2xZwRIC6R+iYUKbULEZYg3QopkFAV12/aiqGY8kkSyNEmSgAgzB2XQ6p7GDHcKMQtWEYIx4IYmEUnZ7KZE29PkNcsuC4cFmgkpL8VH+3FBLhB4tIhQL00CIxEijCgcS+3/aRssjM+BEfGa5DklM0kGmoODN4nBOCEZax3+OJrIW1fzOcuYTNNxlytl/ZAwFRZkW0lqMIJlSSoRDTdbeJFa4gRLI5E75sCG0R2k4Vk/7/AGkOhPOzDkF8yJia8UPCB6QKlY98baU0YJ0kd6VSeZvq9kM1Kt4MMXZYiCDFEMLDsAwRqcTNbbGnAtqilqDsr0cXRBdKpykdDJTqVMVR1c/Zwbim8UHoCBn+HAtuJ34R0TKqHg8CLqXG/Ds9q0pqJjVAdJcdgmi0YKqvpADj2MHLAwPgANTWCoIAYXckaqctoqQdAXGihxFAI0/qeFxC/wCBcuA/s6RSjioj8zbCR54EqwPN9KHERtmKRnXfyATEOhN9R+LeWjb2KgcAGB6tkL4GIBookvF4z9CzPYYBQ0TGoUWiHwJotGCpgOhTnBxenVCB06dOnTp06dOnTp06dOnTp06dOnTp06dOnTp06dOnTp06dOnTp06dOnTp06dOnTp06dOnTp06dOnTp06dOnTp06dOnTp06dOnTp06dOnTp06dOnTp06dZ/TSyGpQjiFbF0YCrPzSTBGjYWGTl13TjPVi5gzEEZIVGU0PtjQ2KQSon+dKY7pTsPsDyUGUAsgQtYLk5ckq7CilFDIQDdllgbDYD0TloiSZN+kcBOhAiUxKKH/ZZs2bNmzZs2bNmzZs2bNmzZs2bNmzZs2bNmzZs2bNmzZs2bNmzZs2bNmzZs2bNmzZs2bNmzZs2bNmzZs2bNmzZs2bNmzZs2bNmzZs2bNmzZs2bNmzZs2bNPngElkiRcDAwYbZX5LZCHGYqfDAgAi2PIKo4rBDuKgouYHN7MIoHp/nxo0aNGjRo0aNGjRo0aNGjRo0aNGjRo0aNGnAy9iY3Zs4tIKJiTlEIBP6b4/qh6IyAAMCDVFKFHjMxeY12yPQyX/AAP2W3bt27du3bt27du3bt27du3bt27du3bt27du3bt27du3bt27du3bt27du3bt27du3bt27du3bt27du3bt27du3bt27du3bt27du3bt27du3bt27du3bt28rny8gFadw3IM3pJkSUzD0hgziC8oyjlzo0qkG6nT2C3bt27du3bt27du3bt27du3bt27du3bt27du2Js/mACABaVDw4PQc6tVo1P+ImH/9k=;" vertex="1" parent="1">
          <mxGeometry x="130" y="430" width="342.01" height="192.38" as="geometry" />
        </mxCell>
      </root>
    </mxGraphModel>
  </diagram>
</mxfile>
